<?xml version="1.0" encoding="utf-8"?>
<!-- Generator: Adobe Illustrator 22.0.1, SVG Export Plug-In . SVG Version: 6.00 Build 0)  -->
<svg version="1.1" id="Слой_2" xmlns="http://www.w3.org/2000/svg" xmlns:xlink="http://www.w3.org/1999/xlink" x="0px" y="0px"
	 viewBox="0 0 132.1 118.5" style="enable-background:new 0 0 132.1 118.5;" xml:space="preserve">
<style type="text/css">
	.st0{fill:#DEDCFB;}
	.st1{fill:url(#SVGID_1_);}
	.st2{fill:url(#SVGID_2_);}
	.st3{fill:none;stroke:#3C3C3C;stroke-width:3;stroke-linecap:round;stroke-linejoin:round;stroke-miterlimit:10;}
	.st4{fill:url(#SVGID_3_);}
	.st5{fill:url(#SVGID_4_);}
	.st6{fill:url(#SVGID_5_);}
</style>
<path id="Эллипс_2-3" class="st0" d="M23.7,4c32.1-16.4-2.4,20.3,42,52c35,25,76.8,8.7,64,41c-10,25.2-78.6,26.5-105,13
	C-4.1,95.3-11.7,22.1,23.7,4z"/>
<g>
	<linearGradient id="SVGID_1_" gradientUnits="userSpaceOnUse" x1="51.0726" y1="22.9669" x2="57.6351" y2="9.3419">
		<stop  offset="0" style="stop-color:#4A3FD9"/>
		<stop  offset="4.939165e-02" style="stop-color:#4A3FD9"/>
		<stop  offset="0.5683" style="stop-color:#F8FF8F"/>
	</linearGradient>
	<path class="st1" d="M52.6,13.8l-8.9-0.6c-0.5,0-1.1,0.2-0.2,1c0,0,0,0,0,0l6.1,5.9l0,0l12.8,5.4l1.9-7L52.6,13.8L52.6,13.8z"/>
	<linearGradient id="SVGID_2_" gradientUnits="userSpaceOnUse" x1="81.9554" y1="37.8416" x2="88.5179" y2="24.2166">
		<stop  offset="0" style="stop-color:#4A3FD9"/>
		<stop  offset="4.939165e-02" style="stop-color:#4A3FD9"/>
		<stop  offset="0.5683" style="stop-color:#F8FF8F"/>
	</linearGradient>
	<path class="st2" d="M91.2,30.8c-0.3-0.7-0.8-1.2-1.4-1.4L86.7,28l0,0l-5.8-2.4L79.5,31l0,0.1c0,0,0,0.1,0,0.2l-0.2,1.4l4.9,2.1
		l0,0L87,36c0.3,0.1,0.7,0.2,1,0.2c0.3,0,0.7-0.1,1-0.2c0.7-0.3,1.2-0.8,1.4-1.4l0.7-1.8C91.5,32.1,91.5,31.4,91.2,30.8z"/>
</g>
<path class="st3" d="M49.2,61v-6.3c0-1.5-1.2-2.7-2.7-2.7h-0.1c-0.8,0-1.5,0.3-2,0.9c-0.4-1.1-1.4-1.8-2.6-1.8h-0.1
	c-0.8,0-1.5,0.3-2,0.8c-0.4-1-1.4-1.7-2.5-1.7h-0.1c-0.7,0-1.3,0.3-1.8,0.7c-0.3-1.2-1.4-2-2.7-2h-0.1c-1.5,0-2.7,1.2-2.7,2.7v4.5
	L28.9,56c-1.4-0.2-2.4,0-3.2,0.6c-1.4,1.2-1.4,3.5-1.2,7c0.3,4.1,4.4,7.6,5.3,8.4l0.1,3.7h16.4l-0.1-5C49,68.1,49.4,63.3,49.2,61z"
	/>
<path class="st3" d="M107.6,53.7v-6.3c0-1.5-1.2-2.7-2.7-2.7h-0.1c-0.8,0-1.5,0.3-2,0.9c-0.4-1.1-1.4-1.8-2.6-1.8H100
	c-0.8,0-1.5,0.3-2,0.8c-0.4-1-1.4-1.7-2.5-1.7h-0.1c-0.7,0-1.3,0.3-1.8,0.7c-0.3-1.2-1.4-2-2.7-2h-0.1c-1.5,0-2.7,1.2-2.7,2.7v4.5
	l-0.6-0.1c-1.4-0.2-2.4,0-3.2,0.6c-1.4,1.2-1.4,3.5-1.2,7c0.3,4.1,4.4,7.6,5.3,8.4l0.1,3.6h16.4l-0.1-4.9
	C107.5,60.8,107.8,56,107.6,53.7z"/>
<linearGradient id="SVGID_3_" gradientUnits="userSpaceOnUse" x1="74.6893" y1="16.3004" x2="33.5227" y2="102.6338">
	<stop  offset="0" style="stop-color:#4A3FD9"/>
	<stop  offset="4.939165e-02" style="stop-color:#4A3FD9"/>
	<stop  offset="0.5683" style="stop-color:#F8FF8F"/>
</linearGradient>
<path class="st4" d="M80.3,21.6l-0.1,0c-0.2,0-0.4-0.1-0.6-0.1c-0.6,0-1.1,0.2-1.5,0.5c-0.1-1.1-0.9-2.1-2.1-2.4l-0.1,0
	c-0.7-0.2-1.5,0-2.1,0.3c-0.1-0.4-0.2-0.7-0.4-1c-0.4-0.6-1-1.1-1.7-1.2l-0.1,0c-0.7-0.2-1.4-0.1-1.9,0.3c0-0.5-0.2-0.9-0.4-1.4
	c-0.4-0.6-1-1.1-1.7-1.2l-0.1,0c-0.7-0.2-1.5,0-2.1,0.3c-0.6,0.4-1.1,1-1.2,1.7l-2.3,7.9L57,23.3l-0.4,1.9c-0.4,1.1-0.6,2.5-0.8,3.7
	c-0.7,4.2,2.6,8.6,3.3,9.4l-0.3,7.3h16.3l0.3-4.9c3.9-2.2,4.8-7.9,5-8.7l2-7.1l0-0.1C82.6,23.4,81.7,21.9,80.3,21.6z"/>
<linearGradient id="SVGID_4_" gradientUnits="userSpaceOnUse" x1="85.3526" y1="31.1025" x2="44.186" y2="117.4359">
	<stop  offset="0" style="stop-color:#4A3FD9"/>
	<stop  offset="9.570556e-02" style="stop-color:#4A3FD9"/>
	<stop  offset="0.5683" style="stop-color:#F8FF8F"/>
</linearGradient>
<path class="st5" d="M56.6,86.5c0,1.2,0.9,1.4,1.3,1.4h0.2c0,0,0.1,0,0.1,0l0,0h17.5l0,0c0,0,0,0,0.1,0H76c0.4,0,1.2-0.2,1.3-1.1
	V52.5H56.6v33.8C56.6,86.4,56.6,86.4,56.6,86.5z"/>
<path class="st3" d="M87.5,87.9h0.2c0,0,0.1,0,0.1,0l0,0h17.5l0,0c0,0,0,0,0.1,0h0.2c0.4,0,1.2-0.2,1.3-1.2V75.2H86.2v11.5
	C86.3,87.7,87.1,87.9,87.5,87.9z"/>
<linearGradient id="SVGID_5_" gradientUnits="userSpaceOnUse" x1="81.3495" y1="19.3018" x2="40.1828" y2="105.6351">
	<stop  offset="0" style="stop-color:#4A3FD9"/>
	<stop  offset="4.939165e-02" style="stop-color:#4A3FD9"/>
	<stop  offset="0.5683" style="stop-color:#F8FF8F"/>
</linearGradient>
<path class="st6" d="M77.3,47c0-1.1-0.7-1.3-1.1-1.4H57.8c-0.4,0-1.1,0.3-1.1,1.4v5.5h20.7v-5.3C77.3,47.1,77.3,47,77.3,47z"/>
<path class="st3" d="M106.9,69.6c0-1.1-0.7-1.3-1.1-1.4H87.4c-0.4,0-1.1,0.3-1.1,1.4l0,5.5h20.7l0-5.3
	C106.9,69.8,106.9,69.7,106.9,69.6z"/>
<path class="st3" d="M48.5,82.5v-5.4c0-0.1,0-0.1,0-0.2c0-1.1-0.7-1.3-1.1-1.4H29c-0.4,0-1.1,0.3-1.1,1.4v5.6"/>
<path class="st3" d="M29.1,87.9h0.2c0,0,0.1,0,0.1,0l0,0h17.5l0,0c0,0,0,0,0.1,0h0.2c0.4,0,1.2-0.2,1.3-1.2V75.2H27.8v11.5
	C27.9,87.7,28.7,87.9,29.1,87.9z"/>
</svg>
