<?xml version="1.0" encoding="utf-8"?>
<!-- Generator: Adobe Illustrator 22.0.1, SVG Export Plug-In . SVG Version: 6.00 Build 0)  -->
<svg version="1.1" id="Слой_1" xmlns="http://www.w3.org/2000/svg" xmlns:xlink="http://www.w3.org/1999/xlink" x="0px" y="0px"
	 viewBox="0 0 238.2 216.4" style="enable-background:new 0 0 238.2 216.4;" xml:space="preserve">
<style type="text/css">
	.st0{fill:#AEB1B7;}
	.st1{fill:#DFDFEA;}
	.st2{fill:#EDEEF7;}
	.st3{fill:#FFFFFF;}
	.st4{fill:#92A5D3;}
	.st5{fill:#CBDAF7;}
	.st6{fill:#3D3D3F;}
</style>
<polygon class="st0" points="237.2,161.5 95.8,216.4 1.8,57.9 1.8,54 132.2,21.1 238.2,158.5 "/>
<polygon class="st1" points="238.2,158.5 96.8,213.4 1.8,54 133.2,19.1 "/>
<path class="st0" d="M133.2,19.1l-0.6,0.2c-1.8,9-18.1,90.1-13.6,98c5.8,10.2,118.2,42.3,118.2,42.3l1-1L133.2,19.1z"/>
<path class="st2" d="M133.2,19.1c0,0-18,88.8-13.2,97.1c5.8,10.2,118.2,42.3,118.2,42.3L133.2,19.1z"/>
<g id="XMLID_13_">
	<path id="XMLID_958_" class="st3" d="M3.5,2.8c-4.4,4-4.7,10.7-0.8,15.1l1.8,2L20.4,5.5l-1.8-2C14.6-0.9,7.9-1.2,3.5,2.8z"/>
	
		<rect id="XMLID_959_" x="40.6" y="5.7" transform="matrix(0.7418 -0.6706 0.6706 0.7418 -16.1313 41.611)" class="st4" width="10.7" height="72.1"/>
	
		<rect id="XMLID_960_" x="32.7" y="12.9" transform="matrix(0.7418 -0.6706 0.6706 0.7418 -22.9795 38.1479)" class="st5" width="10.7" height="72.1"/>
	<polygon id="XMLID_961_" class="st6" points="9.9,25.8 17.8,18.6 25.8,11.4 20.4,5.5 4.5,19.8 	"/>
	<polygon id="XMLID_962_" class="st3" points="58.3,79.2 69.4,83.6 77.3,76.4 74.1,64.9 66.2,72.1 	"/>
	<polygon id="XMLID_963_" class="st6" points="80.5,87.9 77.3,76.4 69.4,83.6 	"/>
</g>
</svg>
