<?xml version="1.0" encoding="utf-8"?>
<!-- Generator: Adobe Illustrator 22.0.1, SVG Export Plug-In . SVG Version: 6.00 Build 0)  -->
<svg version="1.1" id="Слой_1" xmlns="http://www.w3.org/2000/svg" xmlns:xlink="http://www.w3.org/1999/xlink" x="0px" y="0px"
	 viewBox="0 0 153.2 221.5" style="enable-background:new 0 0 153.2 221.5;" xml:space="preserve">
<style type="text/css">
	.st0{fill:#DFDFEA;}
	.st1{fill:#597096;}
	.st2{fill:#92A5D3;}
</style>
<g>
	<path class="st0" d="M114.9,54.4L102,50.8L90.4,89l20.8,6.5c9.2,2.8,12.9,18,7.8,33.7l0,0c-4.6,15.7-16.1,26.3-25.4,23.5l-20.8-6.5
		l-11.5,38.3l12.9,3.7c21.7,6.5,48.4-18,60-54.9l0,0C145.3,96.4,137,60.9,114.9,54.4z"/>
	<polygon class="st0" points="94.1,152.3 82.6,163.8 7.4,140.7 11.5,127.3 	"/>
</g>
<path class="st1" d="M125.5,205.3l-25.8-38.8c-3.2-4.6-8.3-7.4-13.8-7.4s-10.6,2.8-13.8,7.4l-25.8,38.8H125.5z"/>
<circle class="st2" cx="85.8" cy="175.8" r="8.8"/>
<polygon class="st0" points="153.2,221.5 0,221.5 12,204.4 141.2,204.4 "/>
<rect x="72.4" y="105.3" transform="matrix(0.2905 -0.9569 0.9569 0.2905 -54.6271 150.2163)" class="st1" width="3.2" height="13.4"/>
<rect x="67.8" y="112.1" transform="matrix(0.2905 -0.9569 0.9569 0.2905 -61.025 151.9657)" class="st0" width="8.3" height="10.2"/>
<rect x="72" y="99.7" transform="matrix(0.2905 -0.9569 0.9569 0.2905 -49.8748 148.19)" class="st2" width="6" height="16.1"/>
<rect x="50.7" y="98.6" transform="matrix(0.7219 -0.692 0.692 0.7219 -58.3278 65.4678)" class="st1" width="3.2" height="13.4"/>
<rect x="44.2" y="104.3" transform="matrix(0.7219 -0.692 0.692 0.7219 -62.2458 63.8536)" class="st0" width="8.3" height="10.2"/>
<g>
	<rect x="51" y="90.7" transform="matrix(0.7219 -0.692 0.692 0.7219 -51.8287 68.4847)" class="st2" width="16.6" height="16.1"/>
	
		<rect x="47.3" y="55.5" transform="matrix(0.2905 -0.9569 0.9569 0.2905 -14.2582 126.9078)" class="st2" width="62.3" height="35.1"/>
</g>
<g>
	<polygon class="st1" points="102,30.9 106.1,42.4 104.7,48.4 71.1,38.3 72.9,32.3 82.6,24.9 90,0 109.8,6 	"/>
	<circle class="st1" cx="97.4" cy="71.1" r="14.8"/>
</g>
<circle class="st2" cx="97.4" cy="71.1" r="7.4"/>
</svg>
