<?xml version="1.0" encoding="utf-8"?>
<!-- Generator: Adobe Illustrator 22.0.1, SVG Export Plug-In . SVG Version: 6.00 Build 0)  -->
<svg version="1.1" xmlns="http://www.w3.org/2000/svg" xmlns:xlink="http://www.w3.org/1999/xlink" x="0px" y="0px"
	 viewBox="0 0 236.4 197.3" style="enable-background:new 0 0 236.4 197.3;" xml:space="preserve">
<style type="text/css">
	.st0{fill:#AEB1B7;}
	.st1{fill:#DFDFEA;}
	.st2{fill:#597096;}
	.st3{fill:#DD5757;}
	.st4{fill:#B54057;}
	.st5{fill:#3D3D3F;}
	.st6{fill:#CBDAF7;}
	.st7{fill:#92A5D3;}
</style>
<g id="Слой_1">
	<polygon class="st0" points="235.4,142.4 94,197.3 0,38.8 0,34.9 130.4,2 236.4,139.4 	"/>
	<polygon class="st1" points="236.4,139.4 95,194.3 0,34.9 131.4,0 	"/>
	<polygon class="st2" points="134.8,26.3 31.3,53.7 33.3,56.5 136.8,29.1 	"/>
	<polygon class="st2" points="142.3,38.6 38.9,66 40.9,68.9 144.4,41.5 	"/>
	<polygon class="st2" points="150.3,52 46.9,79.4 48.9,82.2 152.4,54.8 	"/>
	<polygon class="st2" points="157.1,64.5 53.7,91.9 55.7,94.8 159.2,67.4 	"/>
	<polygon class="st2" points="110,92.4 62.2,105 64.2,107.9 109.4,95.9 	"/>
</g>
<g id="Слой_2">
	<path class="st3" d="M135.3,80.2c0,0.4-0.3,0.8-0.6,1.1c-9.2,6.3-24.5,13.3-25.2,13.6c-0.2,0.1-0.4,0.1-0.6,0.1
		c-0.4,0-0.8-0.2-1.1-0.4c-0.4-0.4-0.6-1.1-0.3-1.7c0.3-0.6,7.3-16,13.6-25.2c0.3-0.4,0.7-0.6,1.1-0.6c0.4,0,0.9,0.1,1.2,0.4
		L134.8,79C135.1,79.3,135.3,79.8,135.3,80.2z"/>
	<path class="st4" d="M135.3,80.2c0,0.4-0.3,0.8-0.6,1.1c-9.2,6.3-24.5,13.3-25.2,13.6c-0.2,0.1-0.4,0.1-0.6,0.1
		c-0.4,0-0.8-0.2-1.1-0.4c-0.4-0.4-0.6-1.1-0.3-1.7c0-0.1,0.2-0.4,0.5-1c3.7-1.7,16.2-7.7,24.1-13.1c0.4-0.3,0.6-0.7,0.6-1.1
		c0-0.4-0.1-0.9-0.4-1.2l2.5,2.5C135.1,79.3,135.3,79.8,135.3,80.2z"/>
	<path class="st5" d="M119.5,90c-5.5,2.8-10,4.9-10.1,4.9c-0.2,0.1-0.4,0.1-0.6,0.1c-0.4,0-0.8-0.2-1.1-0.4
		c-0.4-0.4-0.6-1.1-0.3-1.7c0,0,2.1-4.5,4.9-10.1"/>
	<path class="st5" d="M119.5,90c-5.5,2.8-10,4.9-10.1,4.9c-0.2,0.1-0.4,0.1-0.6,0.1c-0.4,0-0.8-0.2-1.1-0.4
		c-0.4-0.4-0.6-1.1-0.3-1.7c0,0,0.1-0.3,0.3-0.7c1.5-0.7,5-2.5,9.2-4.7L119.5,90z"/>
	<path class="st6" d="M191.8,23.9c-6.2,9.3-15.7,20.4-26.7,31.3c-10.9,10.9-22.1,20.4-31.3,26.7c-0.2,0.2-0.5,0.3-0.7,0.5L120,69.3
		c0.2-0.2,0.3-0.5,0.5-0.7c6.2-9.3,15.7-20.4,26.7-31.3c10.9-10.9,22.1-20.4,31.3-26.7c10.3-6.9,16.6-8.9,19.4-6.1
		C200.8,7.2,198.8,13.6,191.8,23.9z"/>
	<g>
		<path class="st7" d="M191.8,23.9c-6.2,9.3-15.7,20.4-26.7,31.3c-7,7-16.9,15.6-14.9,13.9l-2.8-2.8c4.9-4.2,9.9-8.9,14.9-13.9
			C173.3,41.4,182.8,30.3,189,21c5.7-8.5,8.1-14.3,7.2-17.6c0.7,0.2,1.3,0.5,1.8,1C200.8,7.2,198.8,13.6,191.8,23.9z"/>
		<path class="st7" d="M141.5,71.2l2.8,2.8c-3.7,3-7.2,5.6-10.5,7.8c-0.2,0.2-0.5,0.3-0.7,0.5l-2.8-2.8c0.2-0.2,0.5-0.3,0.7-0.5
			C134.3,76.8,137.8,74.2,141.5,71.2z"/>
	</g>
	<path class="st5" d="M147.5,66.3c-2,1.7-4,3.4-5.9,5l-13.2-13.2c1.6-1.9,3.2-3.9,5-5.9L147.5,66.3z"/>
	<path class="st5" d="M150.3,69.1c-2,1.7-4,3.4-5.9,5c0,0,0,0,0,0l-2.8-2.8c1.9-1.6,3.9-3.2,5.9-5L150.3,69.1z"/>
	<path class="st3" d="M202.8,7.7c-0.1,4-3.6,9.2-10.8,15.8c-0.3,0.3-0.7,0.4-1,0.4c-0.4,0-0.8-0.1-1.1-0.4l-11-11
		c-0.3-0.3-0.4-0.7-0.4-1.1c0-0.4,0.2-0.8,0.5-1.1C192.2-2.4,197.1-1,200.2,2.2l0,0C201.2,3.1,202.9,4.8,202.8,7.7z"/>
	<path class="st4" d="M202.8,7.7c-0.1,4-3.6,9.2-10.8,15.8c-0.3,0.3-0.7,0.4-1,0.4c-0.4,0-0.8-0.1-1.1-0.4l-2.4-2.4
		c0.3,0.3,0.7,0.4,1.1,0.4c0.4,0,0.7-0.1,1-0.4c7.2-6.6,10.7-11.8,10.8-15.8c0-1.8-0.6-3.1-1.3-4.1c0.4,0.3,0.8,0.6,1.1,0.9l0,0
		C201.2,3.1,202.9,4.8,202.8,7.7z"/>
	<path class="st4" d="M176.9,59.9c-3.4-1.7-4.2-3.8-4.3-5.3c-0.1-2.8,2.2-5.1,4.2-6.3c10.7-6.4,16.4-12.6,16.4-17.9
		c0-2.2-1.1-4.3-3.4-6.6l-12.7-12.7c-0.6-0.6-0.6-1.5,0-2.1c0.6-0.6,1.5-0.6,2.1,0l12.7,12.7c1.1,1.1,4.3,4.3,4.3,8.7
		c0,6.5-6,13.4-17.9,20.5c-1.4,0.8-2.8,2.3-2.7,3.6c0,1.2,1.4,2.2,2.6,2.8c0.7,0.4,1,1.3,0.7,2c-0.3,0.5-0.8,0.8-1.3,0.8
		C177.3,60.1,177.1,60,176.9,59.9z"/>
</g>
</svg>
