<?xml version="1.0" encoding="utf-8"?>
<!-- Generator: Adobe Illustrator 22.0.1, SVG Export Plug-In . SVG Version: 6.00 Build 0)  -->
<svg version="1.1" id="Слой_1" xmlns="http://www.w3.org/2000/svg" xmlns:xlink="http://www.w3.org/1999/xlink" x="0px" y="0px"
	 viewBox="0 0 154.7 175.5" style="enable-background:new 0 0 154.7 175.5;" xml:space="preserve">
<style type="text/css">
	.st0{fill:#C1B3A3;}
	.st1{fill:#597096;}
	.st2{fill:#E0D5C6;}
	.st3{fill:#AFA49A;}
	.st4{fill:#B54057;}
	.st5{fill:#8E3C50;}
	.st6{fill:#384556;}
	.st7{fill:#445977;}
	.st8{enable-background:new    ;}
	.st9{fill:#DFDFEA;}
	.st10{fill:#EF4545;}
	.st11{fill:#DD5757;}
</style>
<g id="XMLID_1554_">
	<g id="XMLID_1577_">
		<path class="st0" d="M4.5,14.2c-0.7-0.7-1.9-1-2.9-0.6C0.6,14.1,0,15,0,16.1v147.7c0,2.4,2,4.4,4.4,4.4h147.7c1.1,0,2-0.6,2.4-1.6
			c0.4-1,0.2-2.1-0.6-2.9L4.5,14.2z M31.9,85.3l51.3,51.3H31.9V85.3z"/>
	</g>
	<g id="XMLID_1235_">
		<path id="XMLID_1233_" class="st1" d="M75,158.1c-2.5,0-4.5,2-4.5,4.5v5.5h9v-5.5C79.5,160.2,77.5,158.1,75,158.1z"/>
		<path id="XMLID_1232_" class="st1" d="M92.6,158.1c-2.5,0-4.5,2-4.5,4.5v5.5h9v-5.5C97.1,160.2,95.1,158.1,92.6,158.1z"/>
		<path id="XMLID_1231_" class="st1" d="M110.2,158.1c-2.5,0-4.5,2-4.5,4.5v5.5h9v-5.5C114.7,160.2,112.7,158.1,110.2,158.1z"/>
		<path id="XMLID_1230_" class="st1" d="M127.9,158.1c-2.5,0-4.5,2-4.5,4.5v5.5h9v-5.5C132.4,160.2,130.4,158.1,127.9,158.1z"/>
		<path id="XMLID_1229_" class="st1" d="M22.1,158.1c-2.5,0-4.5,2-4.5,4.5v5.5h9v-5.5C26.6,160.2,24.6,158.1,22.1,158.1z"/>
		<path id="XMLID_1228_" class="st1" d="M35.2,162.7v5.5h9v-5.5c0-2.5-2-4.5-4.5-4.5C37.2,158.1,35.2,160.2,35.2,162.7z"/>
		<path id="XMLID_1227_" class="st1" d="M61.8,168.2v-5.5c0-2.5-2-4.5-4.5-4.5c-2.5,0-4.5,2-4.5,4.5v5.5H61.8z"/>
	</g>
	<g id="XMLID_1566_">
		<path class="st2" d="M0,16.1v147.7c0,1.2,0.5,2.3,1.3,3.1l30.6-30.6v-51l25.5,25.5L79.2,89L4.5,14.2c-0.7-0.7-1.9-1-2.9-0.6
			C0.6,14.1,0,15,0,16.1z"/>
	</g>
	<polygon id="XMLID_933_" class="st3" points="15.4,46.6 15.4,152.7 31.9,136.3 31.9,85.3 	"/>
	<polygon id="XMLID_934_" class="st3" points="15.4,152.7 124.8,152.7 83.2,136.6 31.9,136.3 	"/>
</g>
<path class="st4" d="M120.6,30.4c-2.4-2.7-6.6-3.8-12-2.5C98.2,30.5,87.4,41,84.5,51.3c-1.4,5.1-0.6,9.3,1.8,11.8c0,0,0,0,0,0
	l3.1,3.4c2.5,2.6,6.6,3.5,11.9,2.1c10.4-2.6,21.2-13.1,24.1-23.4c1.4-5.1,0.7-9.2-1.8-11.7C123.5,33.4,120.5,30.3,120.6,30.4z"/>
<path class="st5" d="M108.5,28c10.4-2.6,16.5,3.6,13.6,13.9c-2.9,10.3-13.7,20.8-24.1,23.4C87.6,68,81.5,61.7,84.4,51.4
	C87.3,41.1,98.1,30.6,108.5,28z"/>
<path class="st6" d="M108.4,0.2c-1.5,0.4-2.4,1.2-2.7,2.2l-5.2,18.5c0,0,0,0,0,0c-0.3,1,0.1,2.1,1.1,3.2c2.1,2.2,6.3,3.4,9.3,2.6
	c1.5-0.4,2.5-1.2,2.7-2.2c0,0,0,0.1,0,0.1l5.2-18.5c0.3-1-0.1-2.1-1.1-3.2C115.5,0.6,111.3-0.5,108.4,0.2z"/>
<g>
	<path class="st7" d="M108.4,0.2c-1.5,0.4-2.4,1.2-2.7,2.2l-5.2,18.5c0.3-1,1.2-1.8,2.7-2.2c3-0.8,7.1,0.4,9.3,2.6
		c1.1,1.1,1.4,2.2,1.1,3.2l5.2-18.5c0.3-1-0.1-2.1-1.1-3.2C115.5,0.6,111.3-0.5,108.4,0.2z"/>
	<polygon class="st1" points="102,41.1 101.7,45.8 98.1,42 87.8,42.5 41.7,140.1 40.8,152.1 46.1,157.6 51.8,157 101.3,52.2 
		95.4,139.2 100.7,144.7 106.9,142.3 113.1,129 119,41.5 113.6,36 	"/>
</g>
<g class="st8">
	<polygon class="st7" points="46.5,151.5 51.8,157 46.1,157.6 40.8,152.1 	"/>
	<polygon class="st9" points="87.8,42.5 98.1,42 46.5,151.5 40.8,152.1 41.7,140.1 	"/>
</g>
<polygon class="st7" points="113.6,36 119,41.5 113.1,129 107.7,123.5 "/>
<polygon class="st1" points="101.6,136.7 106.9,142.3 100.7,144.7 95.4,139.2 "/>
<polygon class="st9" points="113.6,36 107.7,123.5 101.6,136.7 95.4,139.2 102,41.1 "/>
<path class="st4" d="M104.7,116.6c-0.7-0.8-1.8-1-3.3-0.7c-2.9,0.7-5.9,3.6-6.7,6.5c-0.4,1.4-0.2,2.6,0.5,3.3c0,0,0,0,0,0l1.6,1.7
	c0.7,0.7,1.8,1,3.3,0.6c2.9-0.7,5.9-3.6,6.7-6.5c0.4-1.4,0.2-2.6-0.5-3.3C106.2,118.2,104.7,116.5,104.7,116.6z"/>
<path class="st10" d="M101.4,115.9c2.9-0.7,4.6,1,3.8,3.8c-0.8,2.9-3.8,5.8-6.7,6.5c-2.9,0.7-4.6-1-3.8-3.8
	C95.5,119.5,98.5,116.6,101.4,115.9z"/>
<g>
	<path class="st7" d="M100.5,118.8c1.2-0.3,2,0.4,1.6,1.7c-0.3,1.2-1.6,2.5-2.9,2.8c-1.2,0.3-2-0.4-1.6-1.7
		C98,120.4,99.3,119.2,100.5,118.8z"/>
	<path class="st4" d="M114.3,23.7c-2.4-2.7-6.7-3.7-12.1-2.4C91.8,24,81,34.4,78.1,44.7c-1.4,5.1-0.6,9.3,1.8,11.8c0,0,0,0,0,0
		l3.1,3.4c2.5,2.6,6.6,3.5,11.9,2.1c10.4-2.6,21.2-13.1,24.1-23.4c1.4-5.1,0.7-9.2-1.8-11.7C117.1,26.8,114.2,23.6,114.3,23.7z"/>
	<path class="st4" d="M114.3,23.7c-2.4-2.7-6.6-3.7-11.9-2.4l23,23.7c1.4-5,0.7-9.2-1.7-11.7C123.6,33.3,114.2,23.6,114.3,23.7z"/>
</g>
<path class="st10" d="M102.2,21.3c10.4-2.6,16.5,3.6,13.6,13.9c-2.9,10.3-13.7,20.8-24.1,23.4c-10.4,2.6-16.5-3.6-13.6-13.9
	C81,34.4,91.8,24,102.2,21.3z"/>
<path class="st11" d="M98.7,33.6c3.5-0.9,5.6,1.2,4.6,4.7c-1,3.5-4.7,7.1-8.2,8c-3.5,0.9-5.6-1.2-4.6-4.7
	C91.5,38.1,95.2,34.5,98.7,33.6z"/>
<path class="st9" d="M98.5,35.7c-2.4,0.6-4.9,3-5.6,5.4c-0.7,2.4,0.7,3.8,3.2,3.2c2.4-0.6,4.9-3,5.6-5.4
	C102.3,36.5,100.9,35.1,98.5,35.7"/>
<path class="st9" d="M45.1,154.1c-0.4,0.1-0.7,0.3-0.8,0.6l-3.6,20.8l7.3-19.7c0.1-0.3,0-0.6-0.3-0.9
	C47.2,154.3,46,153.9,45.1,154.1z"/>
<path class="st7" d="M100.5,139.6c-0.4,0.1-0.7,0.3-0.8,0.6l-5.2,18.5c0,0,0,0,0,0c0,0.1,0,0.2,0,0.2l0,0c0,0,0.8,3.9,1,4
	c0.2,0.1,2.6-2.9,2.6-2.9l0,0c0.1-0.1,0.2-0.2,0.2-0.4c0,0,0,0,0,0.1l5.2-18.5c0.1-0.3,0-0.6-0.3-0.9
	C102.5,139.7,101.3,139.4,100.5,139.6z"/>
<path class="st7" d="M100.5,139.6c-0.4,0.1-0.7,0.3-0.8,0.6l-5.2,18.5c0.1-0.3,0.3-0.5,0.8-0.6c0.9-0.2,2,0.1,2.6,0.7
	c0.3,0.3,0.4,0.6,0.3,0.9l5.2-18.5c0.1-0.3,0-0.6-0.3-0.9C102.5,139.7,101.3,139.4,100.5,139.6z"/>
</svg>
