<?xml version="1.0" encoding="utf-8"?>
<!-- Generator: Adobe Illustrator 22.0.1, SVG Export Plug-In . SVG Version: 6.00 Build 0)  -->
<svg version="1.1" id="Слой_1" xmlns="http://www.w3.org/2000/svg" xmlns:xlink="http://www.w3.org/1999/xlink" x="0px" y="0px"
	 viewBox="0 0 236.4 197.3" style="enable-background:new 0 0 236.4 197.3;" xml:space="preserve">
<style type="text/css">
	.st0{fill:#AEB1B7;}
	.st1{fill:#DFDFEA;}
	.st2{fill:#597096;}
	.st3{fill:#EF4545;}
	.st4{fill:#B54057;}
	.st5{fill:#F4E9E9;}
</style>
<polygon class="st0" points="235.4,142.4 94,197.3 0,38.8 0,34.9 130.4,2 236.4,139.4 "/>
<polygon class="st1" points="236.4,139.4 95,194.3 0,34.9 131.4,0 "/>
<polygon class="st2" points="134.8,26.3 31.3,53.7 33.3,56.5 136.8,29.1 "/>
<polygon class="st2" points="142.3,38.6 38.9,66 40.9,68.9 144.4,41.5 "/>
<polygon class="st2" points="150.3,52 46.9,79.4 48.9,82.2 152.4,54.8 "/>
<polygon class="st2" points="157.1,64.5 53.7,91.9 55.7,94.8 159.2,67.4 "/>
<polygon class="st2" points="165.6,77.6 62.2,105 64.2,107.9 167.7,80.5 "/>
<polygon class="st2" points="173.9,90.1 70.4,118.4 72.5,121.3 175.9,93 "/>
<path class="st3" d="M143.5,100.5l-25.8-25.8c-1.4-1.4-1.4-3.7,0-5.2l42.9-42.9c1.4-1.4,3.7-1.4,5.2,0l25.8,25.8
	c1.4,1.4,1.4,3.7,0,5.2l-42.9,42.9C147.3,101.9,145,101.9,143.5,100.5z"/>
<path class="st4" d="M148.7,100.5l6.9-6.9c-0.2-0.4-30.5-30.8-30.9-30.9l-6.9,6.9c-1.4,1.4-1.4,3.7,0,5.2l25.8,25.8
	C145,101.9,147.3,101.9,148.7,100.5z"/>
<path class="st5" d="M151.7,97.5l-1.7,1.7l-30.9-30.9l1.7-1.7L151.7,97.5z"/>
<path class="st2" d="M165.9,26.6c-1.4-1.4-3.7-1.4-5.2,0l-18.9,18.9l30.9,30.9l18.9-18.9c1.4-1.4,1.4-3.7,0-5.2L165.9,26.6z"/>
</svg>
