<?xml version="1.0" encoding="utf-8"?>
<!-- Generator: Adobe Illustrator 22.0.1, SVG Export Plug-In . SVG Version: 6.00 Build 0)  -->
<svg version="1.1" id="Слой_1" xmlns="http://www.w3.org/2000/svg" xmlns:xlink="http://www.w3.org/1999/xlink" x="0px" y="0px"
	 viewBox="0 0 134.1 208" style="enable-background:new 0 0 134.1 208;" xml:space="preserve">
<style type="text/css">
	.st0{fill:#AEB1B7;}
	.st1{fill:#CE344A;}
	.st2{fill:#EF4545;}
	.st3{fill:#EAEAEF;}
	.st4{fill:#98989E;}
</style>
<path class="st0" d="M47.8,176.5c-2.1-1.8-4.6-3.2-7.5-3.9l-18-4.5c-4.8-1.2-9.7-0.4-13.6,2c-3.9,2.4-7,6.2-8.2,11.1
	c-2.4,9.6,3.4,19.4,13.1,21.8l18,4.5c9.6,2.4,19.4-3.4,21.8-13.1c0.6-2.5,8.6-34.4,15.1-60.1C65.8,137.7,56.3,160.3,47.8,176.5z"/>
<polygon class="st1" points="76.1,96 125.6,108.4 102.7,127.6 72.9,108.6 "/>
<polygon class="st2" points="72.9,108.6 134.1,124 121.5,134.2 127.7,149.2 66.6,133.8 "/>
<path class="st3" d="M42.6,13.6l-23.4,93.2l-4.9,19.5L0.5,181.2c1.2-4.8,4.3-8.7,8.2-11.1c4-2.4,8.8-3.2,13.6-2l18,4.5
	c7.1,1.8,12.1,7.5,13.3,14.3c1.5-1.9,2.7-4.2,3.3-6.7l10.2-40.7l1.3-5.2l3.6-14.3l23.4-93.2c2.4-9.6-3.4-19.4-13.1-21.8l-18-4.5
	C54.8-1.9,45,4,42.6,13.6z"/>
<path class="st1" d="M46.8,70.7l18,4.5c9.6,2.4,15.5,12.2,13.1,21.8l-0.4,1.6l-3.2,12.6l-2.8,11c2.4-9.6-3.4-19.4-13.1-21.8l-18-4.5
	c-9.6-2.4-19.4,3.4-21.8,13.1L25,83.8C27.4,74.1,37.2,68.3,46.8,70.7z"/>
<path class="st2" d="M47.4,68.5l18,4.5c9.6,2.4,15.5,12.2,13.1,21.8L78,96.4l-3.2,12.6l-2.8,11c2.4-9.6-3.4-19.4-13.1-21.8l-18-4.5
	c-9.6-2.4-19.4,3.4-21.8,13.1l6.3-25.2C28,71.9,37.8,66,47.4,68.5z"/>
<path class="st4" d="M35.2,193.2l5.2-20.6c7.1,1.8,12.1,7.5,13.3,14.3C49.4,192.3,42.3,195,35.2,193.2z"/>
</svg>
