<?xml version="1.0" encoding="UTF-8" standalone="no"?>
<!DOCTYPE svg PUBLIC "-//W3C//DTD SVG 1.1//EN" "http://www.w3.org/Graphics/SVG/1.1/DTD/svg11.dtd">
<svg version="1.1" xmlns="http://www.w3.org/2000/svg" xmlns:xlink="http://www.w3.org/1999/xlink" preserveAspectRatio="xMidYMid meet" viewBox="0 0 640 640" width="640" height="640"><defs><path d="M380.45 298.66C380.45 298.66 380.45 298.66 380.45 298.66C413.6 336.92 432.03 358.17 435.71 362.42C435.71 362.42 435.71 362.42 435.71 362.42C420.66 375.47 412.3 382.71 410.62 384.16C410.62 384.16 410.62 384.16 410.62 384.16C377.47 345.9 359.05 324.65 355.36 320.39C355.36 320.39 355.36 320.39 355.36 320.39C370.41 307.35 378.78 300.1 380.45 298.66Z" id="cj02eTr5z"></path><path d="M355.18 320.42C366.8 333.95 373.26 341.46 374.55 342.97C383.64 336.53 391.97 329.06 399.78 321.14C398.48 319.64 392.03 312.13 380.4 298.6L355.18 320.42Z" id="d4i7qSB6G"></path><path d="M282.33 16.22L289.49 16.86L296.56 17.79L303.52 18.99L310.38 20.47L317.12 22.2L323.76 24.2L330.27 26.45L336.65 28.95L342.91 31.68L349.03 34.65L355.01 37.85L360.84 41.27L366.52 44.91L372.04 48.75L377.4 52.8L382.6 57.05L387.62 61.49L392.47 66.12L397.13 70.92L401.6 75.9L405.89 81.05L409.97 86.36L413.85 91.82L417.53 97.43L420.99 103.19L424.23 109.08L427.25 115.11L430.04 121.26L432.6 127.53L434.92 133.91L436.99 140.4L438.82 146.99L440.39 153.68L441.7 160.45L442.74 167.31L443.52 174.24L444.02 181.24L444.24 188.31L444.18 195.44L443.83 202.62L443.18 209.78L442.26 216.84L441.06 223.81L439.58 230.67L437.85 237.42L435.85 244.06L433.6 250.58L431.11 256.97L428.38 263.23L425.41 269.35L422.21 275.34L418.8 281.18L415.16 286.87L411.32 292.4L407.27 297.76L403.03 302.97L398.59 308L393.97 312.85L389.16 317.52L384.19 322L379.04 326.29L373.74 330.38L368.27 334.26L362.66 337.94L356.91 341.4L351.01 344.65L344.99 347.67L338.84 350.46L332.57 353.01L326.18 355.33L319.69 357.39L313.1 359.21L306.41 360.78L299.63 362.08L292.77 363.11L285.83 363.88L278.82 364.36L271.75 364.57L264.61 364.49L257.42 364.11L250.26 363.45L243.19 362.51L236.21 361.29L229.34 359.8L222.59 358.05L215.95 356.04L209.42 353.79L203.03 351.29L196.76 348.55L190.64 345.58L184.65 342.38L178.81 338.96L173.12 335.33L167.58 331.48L162.21 327.44L157.01 323.2L151.98 318.76L147.12 314.15L142.45 309.35L137.97 304.38L133.68 299.24L129.58 293.95L125.69 288.49L122.01 282.89L118.54 277.15L115.29 271.26L112.27 265.25L109.47 259.11L106.91 252.85L104.58 246.48L102.5 240L100.67 233.42L99.1 226.74L97.78 219.98L96.73 213.13L95.95 206.2L95.45 199.2L95.23 192.13L95.29 185.01L95.64 177.83L96.31 170.66L97.26 163.59L98.48 156.62L99.97 149.75L101.72 143L103.74 136.36L106 129.84L108.51 123.45L111.26 117.19L114.24 111.07L117.45 105.08L120.89 99.25L124.53 93.56L128.39 88.04L132.45 82.67L136.7 77.47L141.15 72.45L145.78 67.6L150.59 62.93L155.58 58.46L160.73 54.17L166.04 50.08L171.51 46.2L177.13 42.52L182.89 39.06L188.79 35.82L194.81 32.8L200.97 30L207.24 27.45L213.62 25.13L220.11 23.05L226.7 21.23L233.39 19.66L240.16 18.35L247.02 17.3L253.95 16.52L260.96 16.02L268.03 15.8L275.15 15.86L282.33 16.22ZM256.3 43.8L250.46 44.44L244.69 45.31L238.99 46.41L233.36 47.72L227.81 49.25L222.35 50.99L216.98 52.94L211.71 55.08L206.53 57.43L201.46 59.97L196.5 62.7L191.66 65.61L186.94 68.7L182.34 71.97L177.88 75.41L173.55 79.02L169.36 82.79L165.32 86.72L161.42 90.8L157.69 95.04L154.11 99.41L150.7 103.93L147.46 108.59L144.4 113.38L141.52 118.29L138.82 123.33L136.32 128.49L134.01 133.76L131.9 139.14L130 144.63L128.31 150.22L126.84 155.91L125.58 161.69L124.56 167.56L123.76 173.51L123.2 179.55L122.89 185.6L122.82 191.6L122.99 197.56L123.4 203.46L124.04 209.31L124.92 215.08L126.01 220.79L127.33 226.43L128.86 231.98L130.6 237.45L132.55 242.82L134.7 248.11L137.05 253.29L139.59 258.36L142.32 263.33L145.24 268.18L148.34 272.91L151.61 277.51L155.05 281.98L158.66 286.32L162.43 290.51L166.36 294.56L170.45 298.46L174.68 302.2L179.06 305.77L183.58 309.18L188.24 312.42L193.02 315.48L197.94 318.36L202.98 321.06L208.13 323.56L213.4 325.86L218.78 327.96L224.27 329.85L229.85 331.53L235.53 332.99L241.31 334.23L247.17 335.24L253.12 336.02L259.14 336.56L265.19 336.87L271.2 336.94L277.15 336.77L283.05 336.36L288.89 335.72L294.66 334.85L300.37 333.75L305.99 332.44L311.54 330.91L317 329.17L322.37 327.23L327.65 325.08L332.82 322.73L337.89 320.19L342.85 317.46L347.69 314.55L352.41 311.46L357.01 308.19L361.48 304.75L365.81 301.14L369.99 297.37L374.04 293.44L377.93 289.36L381.67 285.13L385.24 280.75L388.65 276.23L391.89 271.57L394.95 266.79L397.83 261.87L400.53 256.83L403.04 251.67L405.34 246.4L407.45 241.02L409.35 235.53L411.04 229.94L412.52 224.25L413.77 218.47L414.8 212.6L415.59 206.65L416.15 200.62L416.47 194.57L416.54 188.56L416.36 182.61L415.96 176.71L415.31 170.87L414.44 165.1L413.35 159.39L412.04 153.77L410.51 148.22L408.77 142.76L406.82 137.39L404.67 132.11L402.33 126.94L399.79 121.87L397.06 116.91L394.15 112.07L391.05 107.34L387.78 102.75L384.34 98.28L380.74 93.95L376.97 89.76L373.04 85.72L368.95 81.83L364.72 78.09L360.34 74.52L355.82 71.11L351.17 67.87L346.38 64.8L341.47 61.92L336.43 59.23L331.27 56.72L326 54.41L320.61 52.31L315.13 50.4L309.53 48.71L303.85 47.24L298.07 45.99L292.2 44.96L286.24 44.16L280.21 43.61L274.16 43.29L268.16 43.22L262.2 43.39L256.3 43.8Z" id="b4ssJBiygO"></path><path d="M274.23 12.85L281.39 13.49L288.45 14.42L295.42 15.62L302.27 17.1L309.02 18.83L315.65 20.83L322.17 23.08L328.55 25.58L334.81 28.31L340.93 31.28L346.9 34.48L352.74 37.9L358.42 41.54L363.94 45.38L369.3 49.43L374.49 53.68L379.52 58.12L384.36 62.75L389.03 67.55L393.5 72.53L397.78 77.68L401.87 82.99L405.75 88.45L409.43 94.07L412.89 99.82L416.13 105.72L419.15 111.74L421.94 117.89L424.5 124.16L426.82 130.54L428.89 137.03L430.71 143.62L432.29 150.31L433.6 157.08L434.64 163.94L435.42 170.87L435.92 177.88L436.14 184.94L436.08 192.07L435.73 199.25L435.08 206.41L434.16 213.47L432.95 220.44L431.48 227.3L429.74 234.05L427.75 240.69L425.5 247.21L423.01 253.6L420.28 259.86L417.31 265.99L414.11 271.97L410.69 277.81L407.06 283.5L403.22 289.03L399.17 294.4L394.92 299.6L390.49 304.63L385.86 309.48L381.06 314.15L376.08 318.63L370.94 322.92L365.63 327.01L360.17 330.89L354.56 334.57L348.8 338.03L342.91 341.28L336.89 344.3L330.74 347.09L324.47 349.64L318.08 351.96L311.59 354.03L305 355.84L298.31 357.41L291.53 358.71L284.67 359.75L277.73 360.51L270.72 361L263.65 361.2L256.51 361.12L249.32 360.75L242.16 360.08L235.08 359.14L228.11 357.92L221.24 356.43L214.49 354.68L207.84 352.68L201.32 350.42L194.93 347.92L188.66 345.18L182.53 342.21L176.55 339.01L170.7 335.59L165.01 331.96L159.48 328.12L154.11 324.07L148.91 319.83L143.88 315.4L139.02 310.78L134.35 305.98L129.86 301.01L125.57 295.88L121.48 290.58L117.59 285.12L113.91 279.52L110.44 273.78L107.19 267.89L104.16 261.88L101.37 255.74L98.8 249.48L96.48 243.11L94.4 236.63L92.57 230.05L91 223.37L89.68 216.61L88.63 209.76L87.85 202.83L87.35 195.83L87.13 188.77L87.19 181.64L87.54 174.46L88.21 167.29L89.15 160.22L90.38 153.25L91.87 146.39L93.62 139.63L95.64 132.99L97.9 126.47L100.41 120.08L103.16 113.82L106.14 107.7L109.35 101.72L112.78 95.88L116.43 90.2L120.29 84.67L124.34 79.3L128.6 74.1L133.05 69.08L137.68 64.23L142.49 59.57L147.48 55.09L152.63 50.8L157.94 46.71L163.41 42.83L169.03 39.15L174.79 35.69L180.68 32.45L186.71 29.43L192.86 26.64L199.13 24.08L205.52 21.76L212.01 19.69L218.6 17.86L225.29 16.29L232.06 14.98L238.92 13.93L245.85 13.15L252.86 12.65L259.92 12.43L267.05 12.49L274.23 12.85ZM248.2 40.43L242.36 41.08L236.59 41.95L230.89 43.04L225.26 44.35L219.71 45.88L214.25 47.62L208.88 49.57L203.6 51.72L198.43 54.06L193.36 56.6L188.4 59.33L183.56 62.24L178.84 65.34L174.24 68.61L169.78 72.05L165.45 75.65L161.26 79.42L157.21 83.35L153.32 87.44L149.58 91.67L146.01 96.05L142.6 100.57L139.36 105.22L136.3 110.01L133.42 114.92L130.72 119.96L128.22 125.12L125.91 130.39L123.8 135.78L121.9 141.26L120.21 146.85L118.73 152.54L117.48 158.32L116.45 164.19L115.66 170.14L115.1 176.18L114.78 182.23L114.71 188.24L114.89 194.19L115.3 200.09L115.94 205.94L116.81 211.72L117.91 217.42L119.23 223.06L120.76 228.61L122.5 234.08L124.45 239.46L126.6 244.75L128.95 249.93L131.5 255.01L134.23 259.98L137.15 264.83L140.24 269.56L143.52 274.17L146.96 278.64L150.57 282.99L154.35 287.18L158.28 291.24L162.37 295.14L166.61 298.89L170.99 302.47L175.51 305.89L180.17 309.14L184.96 312.21L189.88 315.1L194.92 317.81L200.08 320.32L205.36 322.64L210.75 324.75L216.24 326.66L221.83 328.35L227.52 329.83L233.3 331.09L239.17 332.12L245.12 332.92L251.16 333.48L257.2 333.77L263.2 333.82L269.15 333.63L275.04 333.2L280.88 332.54L286.65 331.65L292.35 330.54L297.98 329.21L303.53 327.66L308.99 325.91L314.36 323.95L319.64 321.79L324.82 319.43L329.89 316.87L334.85 314.13L339.7 311.21L344.42 308.11L349.02 304.83L353.49 301.38L357.83 297.76L362.02 293.99L366.06 290.05L369.96 285.96L373.7 281.72L377.27 277.34L380.68 272.82L383.92 268.16L386.98 263.37L389.86 258.46L392.55 253.42L395.05 248.26L397.35 242.99L399.45 237.61L401.34 232.12L403.02 226.54L404.49 220.85L405.72 215.08L406.73 209.22L407.51 203.27L408.05 197.25L408.37 191.2L408.43 185.19L408.26 179.24L407.85 173.34L407.21 167.5L406.34 161.73L405.25 156.02L403.93 150.4L402.41 144.85L400.67 139.39L398.72 134.02L396.57 128.74L394.23 123.57L391.69 118.5L388.96 113.54L386.04 108.7L382.95 103.98L379.68 99.38L376.24 94.91L372.63 90.58L368.86 86.39L364.93 82.35L360.85 78.46L356.62 74.72L352.24 71.15L347.72 67.74L343.07 64.5L338.28 61.44L333.36 58.55L328.32 55.86L323.17 53.35L317.89 51.05L312.51 48.94L307.02 47.04L301.43 45.35L295.74 43.87L289.96 42.62L284.1 41.59L278.14 40.8L272.11 40.24L266.06 39.92L260.05 39.85L254.1 40.02L248.2 40.43Z" id="b8jcUp17A"></path><path d="M399.71 395C393.18 387.3 393.74 375.65 401.45 369.12C403.53 367.32 420.15 352.94 422.22 351.15C429.93 344.61 441.57 345.17 448.11 352.88C462.46 369.44 577.28 501.95 591.64 518.51C598.17 526.22 597.61 537.86 589.9 544.4C587.82 546.19 571.2 560.57 569.13 562.37C561.42 568.9 549.77 568.34 543.24 560.63C514.53 527.5 414.07 411.57 399.71 395Z" id="b12S6cB66L"></path><path d="M589.5 544.23C597.2 537.69 598.05 525.93 591.23 518.34C576.88 501.78 462.06 369.28 447.71 352.71C441.17 345.01 429.41 344.15 421.82 350.98C419.74 352.77 403.12 367.15 401.04 368.95C401.04 368.95 401.04 368.95 401.04 368.95C401.16 368.83 402.12 367.9 402.24 367.78C409.95 361.25 421.59 361.81 428.13 369.52C442.48 386.08 557.3 518.58 571.65 535.15C578.71 543.31 577.74 554.78 570.04 561.32C573.93 557.9 587.55 545.94 589.5 544.23Z" id="a3EKZOsixl"></path><path d="M448.11 352.88C441.57 345.17 429.81 344.32 422.22 351.15C420.15 352.94 403.53 367.32 401.45 369.12C393.74 375.65 392.89 387.41 399.71 395C400.41 395.81 403.87 399.87 410.1 407.16L458.5 365.04C452.27 357.74 448.8 353.69 448.11 352.88Z" id="aRLAcWl7G"></path><path d="M448.11 352.88C441.57 345.17 429.81 344.32 422.22 351.15C420.15 352.94 403.53 367.32 401.45 369.12C401.45 369.12 401.45 369.12 401.45 369.12C401.57 369 402.53 368.07 402.65 367.95C410.35 361.41 422 361.98 428.53 369.69C429.23 370.5 432.69 374.55 438.92 381.84L458.5 365.04C452.27 357.74 448.8 353.69 448.11 352.88Z" id="f109baGdk"></path><path d="M399.11 243.89C367.61 319.65 280.43 355.63 204.68 324.13C139.54 293.96 100.93 208.54 134.03 131.78C165.53 56.03 259.44 24.99 318.87 49.46C394.63 80.96 430.61 168.14 399.11 243.89Z" id="diKD5CVX4"></path></defs><g><g><g><use xlink:href="#cj02eTr5z" opacity="1" fill="#dfdfea" fill-opacity="1"></use><g><use xlink:href="#cj02eTr5z" opacity="1" fill-opacity="0" stroke="#000000" stroke-width="1" stroke-opacity="0"></use></g></g><g><use xlink:href="#d4i7qSB6G" opacity="1" fill="#aeb1b7" fill-opacity="1"></use><g><use xlink:href="#d4i7qSB6G" opacity="1" fill-opacity="0" stroke="#000000" stroke-width="1" stroke-opacity="0"></use></g></g><g><use xlink:href="#b4ssJBiygO" opacity="1" fill="#aeb1b7" fill-opacity="1"></use><g><use xlink:href="#b4ssJBiygO" opacity="1" fill-opacity="0" stroke="#000000" stroke-width="1" stroke-opacity="0"></use></g></g><g><use xlink:href="#b8jcUp17A" opacity="1" fill="#dfdfea" fill-opacity="1"></use><g><use xlink:href="#b8jcUp17A" opacity="1" fill-opacity="0" stroke="#000000" stroke-width="1" stroke-opacity="0"></use></g></g><g><use xlink:href="#b12S6cB66L" opacity="1" fill="#8c8f9b" fill-opacity="1"></use><g><use xlink:href="#b12S6cB66L" opacity="1" fill-opacity="0" stroke="#000000" stroke-width="1" stroke-opacity="0"></use></g></g><g><use xlink:href="#a3EKZOsixl" opacity="1" fill="#767984" fill-opacity="1"></use><g><use xlink:href="#a3EKZOsixl" opacity="1" fill-opacity="0" stroke="#000000" stroke-width="1" stroke-opacity="0"></use></g></g><g><use xlink:href="#aRLAcWl7G" opacity="1" fill="#dfdfea" fill-opacity="1"></use><g><use xlink:href="#aRLAcWl7G" opacity="1" fill-opacity="0" stroke="#000000" stroke-width="1" stroke-opacity="0"></use></g></g><g><use xlink:href="#f109baGdk" opacity="1" fill="#aeb1b7" fill-opacity="1"></use><g><use xlink:href="#f109baGdk" opacity="1" fill-opacity="0" stroke="#000000" stroke-width="1" stroke-opacity="0"></use></g></g><g><use xlink:href="#diKD5CVX4" opacity="1" fill="#f3f8ff" fill-opacity="1"></use><g><use xlink:href="#diKD5CVX4" opacity="1" fill-opacity="0" stroke="#000000" stroke-width="1" stroke-opacity="0"></use></g></g></g></g></svg>