<?xml version="1.0" encoding="utf-8"?>
<!-- Generator: Adobe Illustrator 22.0.1, SVG Export Plug-In . SVG Version: 6.00 Build 0)  -->
<svg version="1.1" id="Слой_2" xmlns="http://www.w3.org/2000/svg" xmlns:xlink="http://www.w3.org/1999/xlink" x="0px" y="0px"
	 viewBox="0 0 101 90" style="enable-background:new 0 0 101 90;" xml:space="preserve">
<style type="text/css">
	.st0{fill:#E5E3FD;}
	.st1{fill:url(#SVGID_1_);}
	.st2{fill:#3C3C3C;}
	.st3{fill:none;stroke:#3C3C3C;stroke-width:2;stroke-linecap:round;stroke-linejoin:round;stroke-miterlimit:10;}
</style>
<path id="Эллипс_2-2" class="st0" d="M18.1,3.1c24.6-12.4-1.8,15.4,32.1,39.5c26.8,19,58.7,6.6,48.9,31.1
	c-7.6,19.1-60.1,20.1-80.3,9.9C-3.2,72.4-9,16.8,18.1,3.1z"/>
<linearGradient id="SVGID_1_" gradientUnits="userSpaceOnUse" x1="40.7865" y1="55.8627" x2="66.0638" y2="17.8943">
	<stop  offset="0" style="stop-color:#4A3FD9"/>
	<stop  offset="4.939165e-02" style="stop-color:#4A3FD9"/>
	<stop  offset="0.5683" style="stop-color:#F8FF8F"/>
</linearGradient>
<circle class="st1" cx="52" cy="39" r="18.3"/>
<path class="st2" d="M52,11.9c14.9,0,27.1,12.1,27.1,27.1S66.9,66.1,52,66.1S24.9,53.9,24.9,39S37.1,11.9,52,11.9 M52,10
	c-16,0-29,13-29,29s13,29,29,29s29-13,29-29S68,10,52,10L52,10z"/>
<g>
	<path class="st2" d="M52,15.9c-0.6,0-1,0.4-1,1v1c0,0.6,0.4,1,1,1c0.6,0,1-0.4,1-1v-1C53,16.3,52.6,15.9,52,15.9z"/>
	<path class="st2" d="M52,58.9c-0.6,0-1,0.4-1,1v1c0,0.6,0.4,1,1,1c0.6,0,1-0.4,1-1v-1C53,59.3,52.6,58.9,52,58.9z"/>
	<path class="st2" d="M74,37.9h-1c-0.6,0-1,0.4-1,1c0,0.6,0.4,1,1,1h1c0.6,0,1-0.4,1-1C75,38.3,74.6,37.9,74,37.9z"/>
	<path class="st2" d="M31,37.9h-1c-0.6,0-1,0.4-1,1c0,0.6,0.4,1,1,1h1c0.6,0,1-0.4,1-1C32,38.3,31.6,37.9,31,37.9z"/>
	<path class="st2" d="M66.9,22.6l-0.7,0.7c-0.4,0.4-0.4,1,0,1.4c0.2,0.2,0.5,0.3,0.7,0.3c0.3,0,0.5-0.1,0.7-0.3l0.7-0.7
		c0.4-0.4,0.4-1,0-1.4S67.3,22.2,66.9,22.6z"/>
	<path class="st2" d="M36.5,53l-0.7,0.7c-0.4,0.4-0.4,1,0,1.4c0.2,0.2,0.5,0.3,0.7,0.3c0.3,0,0.5-0.1,0.7-0.3l0.7-0.7
		c0.4-0.4,0.4-1,0-1.4S36.8,52.6,36.5,53z"/>
	<path class="st2" d="M67.6,53c-0.4-0.4-1-0.4-1.4,0c-0.4,0.4-0.4,1,0,1.4l0.7,0.7c0.2,0.2,0.5,0.3,0.7,0.3c0.3,0,0.5-0.1,0.7-0.3
		c0.4-0.4,0.4-1,0-1.4L67.6,53z"/>
	<path class="st2" d="M37.2,22.6c-0.4-0.4-1-0.4-1.4,0c-0.4,0.4-0.4,1,0,1.4l0.7,0.7c0.2,0.2,0.5,0.3,0.7,0.3s0.5-0.1,0.7-0.3
		c0.4-0.4,0.4-1,0-1.4L37.2,22.6z"/>
</g>
<line class="st3" x1="49" y1="38.9" x2="41" y2="38.9"/>
<line class="st3" x1="52" y1="35.9" x2="52" y2="24.9"/>
<circle class="st3" cx="52" cy="38.9" r="3"/>
</svg>
