<?xml version="1.0" encoding="utf-8"?>
<!-- Generator: Adobe Illustrator 22.0.1, SVG Export Plug-In . SVG Version: 6.00 Build 0)  -->
<svg version="1.1" id="Objects" xmlns="http://www.w3.org/2000/svg" xmlns:xlink="http://www.w3.org/1999/xlink" x="0px" y="0px"
	 viewBox="0 0 404.8 354" style="enable-background:new 0 0 404.8 354;" xml:space="preserve">
<style type="text/css">
	.st0{opacity:0.4;fill:none;stroke:#FFFFFF;stroke-width:2;enable-background:new    ;}
	.st1{fill:url(#SVGID_1_);}
	.st2{fill-rule:evenodd;clip-rule:evenodd;fill:#7B7EA3;}
	.st3{fill-rule:evenodd;clip-rule:evenodd;fill:#33383C;}
	.st4{fill-rule:evenodd;clip-rule:evenodd;fill:#3C3B3E;}
	.st5{fill:#4A4D4E;}
	.st6{fill:#2C3135;}
	.st7{fill:#0B1315;}
	.st8{fill:#00070A;}
	.st9{fill-rule:evenodd;clip-rule:evenodd;fill:#C0C1CA;}
	.st10{fill-rule:evenodd;clip-rule:evenodd;fill:#DBDDE6;}
	.st11{fill-rule:evenodd;clip-rule:evenodd;fill:#7E7E72;}
	.st12{fill-rule:evenodd;clip-rule:evenodd;fill:#ADAEB7;}
	.st13{fill-rule:evenodd;clip-rule:evenodd;fill:#94969C;}
	.st14{fill-rule:evenodd;clip-rule:evenodd;fill:#93978E;}
	.st15{fill-rule:evenodd;clip-rule:evenodd;fill:#21241F;}
	.st16{fill-rule:evenodd;clip-rule:evenodd;fill:#64615A;}
	.st17{fill-rule:evenodd;clip-rule:evenodd;fill:#292823;}
	.st18{fill-rule:evenodd;clip-rule:evenodd;fill:#A7ADA9;}
	.st19{fill-rule:evenodd;clip-rule:evenodd;fill:#000F14;}
	.st20{fill-rule:evenodd;clip-rule:evenodd;fill:#000B10;}
	.st21{fill:#181C1B;}
	.st22{fill:#33383C;}
	.st23{fill-rule:evenodd;clip-rule:evenodd;fill:#42484B;}
	.st24{fill-rule:evenodd;clip-rule:evenodd;fill:#A2A9AC;}
	.st25{fill-rule:evenodd;clip-rule:evenodd;fill:#67625A;}
	.st26{fill-rule:evenodd;clip-rule:evenodd;fill:#F2F5F8;}
	.st27{fill:#1F2324;}
	.st28{fill-rule:evenodd;clip-rule:evenodd;fill:#C3BDB3;}
	.st29{fill-rule:evenodd;clip-rule:evenodd;fill:#5F514E;}
	.st30{fill-rule:evenodd;clip-rule:evenodd;fill:#626361;}
	.st31{fill-rule:evenodd;clip-rule:evenodd;fill:#272723;}
	.st32{fill-rule:evenodd;clip-rule:evenodd;fill:#C8C8CC;}
	.st33{fill:#7B7EA3;}
	.st34{fill-rule:evenodd;clip-rule:evenodd;fill:#CBCCCA;}
	.st35{fill-rule:evenodd;clip-rule:evenodd;fill:#FDFEFF;}
	.st36{fill-rule:evenodd;clip-rule:evenodd;fill:#4A4C50;}
	.st37{fill-rule:evenodd;clip-rule:evenodd;fill:#B8B9BC;}
	.st38{fill-rule:evenodd;clip-rule:evenodd;fill:#493E35;}
	.st39{fill:#DEDFEA;}
	.st40{fill:#BDBEC0;}
	.st41{fill-rule:evenodd;clip-rule:evenodd;fill:#AD525C;}
	.st42{fill-rule:evenodd;clip-rule:evenodd;fill:#46484B;}
	.st43{fill-rule:evenodd;clip-rule:evenodd;fill:#DFBA4D;}
	.st44{fill-rule:evenodd;clip-rule:evenodd;fill:#CDA370;}
	.st45{fill-rule:evenodd;clip-rule:evenodd;fill:#745946;}
	.st46{fill-rule:evenodd;clip-rule:evenodd;fill:#B98046;}
	.st47{fill-rule:evenodd;clip-rule:evenodd;fill:#222527;}
</style>
<path class="st0" d="M195.5,99.2C160.7,143,94.3,138.2,94.3,186.2s47.5,75.6,98.2,84.2c19.6,3.3,41.5-2.2,57.2-10.7
	c28.3-15.4,31.4-50.2,52.8-72.5c19.5-20.4-0.8-82.8-34.3-96.9C254.7,84.5,216.5,72.9,195.5,99.2z"/>
<path class="st0" d="M193.2,69.9c-48,60.3-139.3,53.6-139.3,119.7s65.4,104,135.1,115.9c27,4.6,57.2-3,78.7-14.7
	c38.9-21.2,43.3-69.2,72.6-99.9c26.8-28.1-1.1-114-47.2-133.5C274.7,49.6,222.1,33.7,193.2,69.9z"/>
<path class="st0" d="M18.8,258.1c30.2,51.2,96,81.3,165.5,93.1c36.7,6.2,77.6-4,106.8-20c52.8-28.8,58.7-93.7,98.5-135.3
	c36.4-38-1.5-154.4-64.1-180.9C300.4,4.4,229.1-17.3,190,31.9C124.8,113.6,1,104.5,1,194.1C1,206.7,1.9,218,5.2,229"/>
<g id="img">
	
		<linearGradient id="SVGID_1_" gradientUnits="userSpaceOnUse" x1="290.0455" y1="1082.6241" x2="119.4525" y2="980.1223" gradientTransform="matrix(1 0 0 -1 0 1219.6959)">
		<stop  offset="0" style="stop-color:#6F71B1"/>
		<stop  offset="1" style="stop-color:#F2F2BB"/>
	</linearGradient>
	<path class="st1" d="M182.4,127.7c-28.3,35.5-67.6,17.8-67.6,56.8s38.6,61.3,79.8,68.3c16,2.7,33.8-1.8,46.5-8.7
		c23-12.5,21.1-31.6,35.5-52.1c10.7-15.4,15-61.1-6.4-73.4C236.9,99.6,199.4,106.3,182.4,127.7z"/>
	<g>
		<path class="st2" d="M277.7,157.8c-0.1,0-1.2,0.9-1.4,1.1L240.3,187l-0.9-0.5c-1.9,0.5-3.5,0-5-1.1c1,0.1,1.9-0.4,2.7-1l-1.2-7.4
			l-0.9,0.3l-4.3,5.5l-72.5-9.7l0,2.8c0,0.8,0.3,0.8,0.6,1l53.7,29.6c2.3,1.2,4,0.7,5.8-0.1l12.3-6.1c2.6-1.2,4.4-3,6.3-4.6
			c0.1-0.1,0.2-0.3,0.3-0.4l39.4-31.4c1.2-1,3.6-3.1,3.6-3.6l-2.3-0.9c-1-0.3-1.9-0.3-2.3-0.6C275.6,158.6,277.8,157.8,277.7,157.8
			L277.7,157.8z"/>
		<path class="st3" d="M197,124.3l54.5,24.8l13-10.5l-0.7-4.2c0,0-52.6-19.1-53-19.1c-0.4,0-7.3,2.4-7.3,2.4L197,124.3z"/>
		<polygon class="st4" points="198.2,124.3 253.1,147.1 249.3,153.8 194.8,132.1 		"/>
		<path class="st5" d="M192,119.1L192,119.1c-1.1-0.2-2.5,1.1-3.4,3c-0.9,2.1-0.8,4.2,0.2,4.7c1,0.3,1.9,0.7,2.9,1l3.2-7.6
			L192,119.1z"/>
		<path class="st6" d="M195.4,124.8c-1,2.1-2.5,3.4-3.6,2.9c-1.1-0.4-1.1-2.5-0.2-4.6c0.9-2.1,2.5-3.4,3.6-3
			C196.2,120.6,196.3,122.7,195.4,124.8L195.4,124.8z"/>
		<path class="st7" d="M195.3,124.9c-0.8,1.8-2.2,2.9-3,2.5c-0.9-0.4-1-2.2-0.2-4c0.8-1.8,2.2-2.9,3-2.5
			C196.1,121.3,196.1,123.1,195.3,124.9L195.3,124.9z"/>
		<path class="st8" d="M194.6,122.4L194.6,122.4c-0.5-0.1-1.2,0.5-1.6,1.5c-0.5,1-0.4,2,0.1,2.3c0.5,0.1,1,0.3,1.4,0.5l1.6-3.7
			L194.6,122.4z"/>
		<path class="st8" d="M196.3,125.2c-0.5,1-1.2,1.6-1.8,1.4c-0.5-0.2-0.5-1.2-0.1-2.3c0.4-1,1.2-1.6,1.8-1.4
			C196.7,123.2,196.8,124.2,196.3,125.2L196.3,125.2z"/>
		<path class="st8" d="M196.3,125.2c-0.4,0.9-1.1,1.4-1.5,1.2c-0.4-0.2-0.5-1.1-0.1-1.9c0.4-0.9,1.1-1.4,1.5-1.2
			C196.6,123.5,196.7,124.3,196.3,125.2L196.3,125.2z"/>
		<polygon class="st9" points="254.4,154.2 194.7,128.7 178.7,139.8 176.1,147.6 236.4,178.3 253.8,163.9 		"/>
		<polygon class="st10" points="194.7,128.7 178.7,139.8 237.5,167.1 251.4,165 254.4,154.5 254.4,154.2 		"/>
		<path class="st11" d="M264,152.5l5.7,2.4c0,0,0.4-1.3,0.4-1.4c0-0.1-5.5-2.8-5.5-2.8s-0.9,0.7-1,0.9
			C263.6,151.9,264,152.5,264,152.5L264,152.5z"/>
		<polygon class="st9" points="251.9,156.4 237.5,167.1 235.3,175.8 234.5,182 238.7,182.7 256.3,167.9 270.8,155.6 269.7,154.1 
			263.8,149.7 		"/>
		<path class="st10" d="M264.2,149.7l4.4,4c0.8,0.8,0.6,1.1,0.2,1.6l-33.3,25.9l-2.3,1.2l1.1,2l4.9,1.6c0,0,14.8-10.3,15.3-10.8
			c0.5-0.5,23.3-20,23.3-20l0-0.1c-3.3-2.2-7.4-3.6-11-5.1L264.2,149.7z"/>
		<path class="st12" d="M236.7,192.6l39.8-31.8c1.2-1,1.3-1.5,1.3-1.9l-0.1-3.2l-35.9,27.9c0,0-5.8,4.2-5.8,4.5
			C236,188.6,236.7,192.6,236.7,192.6L236.7,192.6z"/>
		<polyline class="st13" points="263.1,139.1 264.8,137.8 231.9,122.6 207.7,114.2 208.8,116.2 208.9,117.9 		"/>
		<path class="st14" d="M208.9,116.6v1.3l-9.2,5.7c-1.2,1.9-2,3.9-1.6,6.2c-0.8,0.9-0.7,1.7-0.6,2.5l-1.4-0.7l1.4-10.3
			c0,0,9.6-5.5,9.8-5.5C207.4,115.8,208.9,116.6,208.9,116.6L208.9,116.6z"/>
		<path class="st9" d="M251.5,144.7l-0.4,2.1l-0.5,0.8l-1.2,0.5c-1.1,2.2,0,2.5-1.3,4.4c-0.6,1.6,0.2,2.8,1.2,3.4l4.6,2.2l1.8-10.9
			l-0.3-1.5L251.5,144.7z"/>
		<path class="st13" d="M248.1,152.6c-0.5,1.6,0.3,2.8,1.2,3.3l4.6,2.2l0.4-2.2l-1.5-1L248.1,152.6L248.1,152.6z"/>
		<polygon class="st15" points="255.8,156.2 258,157.1 258,155.6 256.4,155 		"/>
		<path class="st12" d="M269.2,143.7c-0.3,0.4-0.7,0.8-0.7,1.5l0,2.7c0,0.8-0.5,1.5-1.2,2.1l-9.3,7.1v-7.2l10.9-7L269.2,143.7z"/>
		<path class="st9" d="M255.2,146.5c0.7,3.7,4.3,2.5,6.9,2.9l8.3-6.6l-0.1-7.1c-2.2-0.4-3.9,0.6-5.8,1c2.2,0.9-8.6,8.8-8.9,8.9
			C255.4,145.7,255.2,146.5,255.2,146.5L255.2,146.5z"/>
		<path class="st12" d="M235.7,173.9l1.2,7.4c-1,0.8-2.1,1.3-3.4,0.9l-3.1-2.5l4.3-5.5L235.7,173.9z"/>
		<path class="st9" d="M277.4,154.8c-0.2,0-0.4,0.1-0.5,0.2L240.1,184l-0.9-0.5c-3.1,0.9-5.5-1.4-8-3.7L158,170v2.8
			c0,0.8,0.4,0.8,0.6,1l53.7,29.6c2.3,1.2,4,0.7,5.8-0.1l12.3-6.1c2.6-1.2,4.4-3,6.3-4.6c1.7-1.6,1-4.2,3.1-6.2l37.7-30
			c0.5-0.4,0.5-1.1,0.2-1.5C277.7,154.9,277.5,154.8,277.4,154.8L277.4,154.8z"/>
		<path class="st10" d="M235.7,173.9L217,198.7c-1.4,1.6-3.1,2.6-6.2,0.8l-51.4-28c-1-0.5-1.5-0.9-1.4-1.6c0.1-0.4,0.3-0.9,0.7-1.4
			l18-23.2L235.7,173.9z"/>
		<path class="st4" d="M234.2,174.3l-3.7,5.1l-2.4-1.1l-12.6,16.1c-2.2,2.5-4.4,2.5-6.5,1.2l-45.8-24.7c-1-0.5-1.2-2.4-0.1-4
			l11-14.3l-0.9-0.4l4-5.3L234.2,174.3z"/>
		<polygon class="st16" points="177.2,146.9 177.6,148.8 233.3,175.6 234.2,174.3 177.2,146.9 177.2,146.9 		"/>
		<path class="st17" d="M177.2,147l-4,5.2l0.9,0.4l-11,14.3c-0.8,1.1-0.9,2.3-0.6,3.2l0.3-0.1l17.5-9.8l-2.6-11.3L177.2,147z"/>
		<path class="st18" d="M177.2,146.9l-0.6,0.7l-3.4,4.6l0.9,0.4l-11,14.3c-1.1,1.5-0.9,3.3-0.1,3.9l0,0c-0.6-1.1-0.3-2.4,0.7-3.6
			l2.5-3.4l8.9-11.8l0.4-0.3l2.2-2.7L177.2,146.9z"/>
		<polygon class="st13" points="177.2,146.9 173.2,152.2 174,152.6 166.1,163 166.2,163.7 168.7,166.9 217.3,192 228.1,178.3 
			230.5,179.4 234.2,174.3 177.2,146.9 		"/>
		<polygon class="st12" points="166.2,163.7 166.6,168.7 215.6,194.2 218.3,190.7 		"/>
		<polygon class="st3" points="171.2,152.9 169.5,155.3 168.5,154.9 170.2,152.4 		"/>
		<polygon class="st19" points="169.5,155.3 170.4,157.2 172.7,154 171.2,152.9 		"/>
		<polygon class="st20" points="168.5,154.9 169.5,156.7 170.4,157.2 169.5,155.3 		"/>
		<path class="st19" d="M168.6,162.1l0.1,2.9c0.7,0.9,2.3,0.8,3.3,0.6c0.7-0.3,1.1-0.5,1.7-0.8c0.6-0.3,0.7-0.6,0.6-0.9l-0.4-2.6
			L168.6,162.1z"/>
		<path class="st3" d="M169.2,160.7c1.2-1.2,2.3-1,3.3-0.5c0.5,0.3,1.2,0.6,1.3,1c0.1,0.4-0.3,0.8-1.5,1.4c-1.2,0.5-2.3,0.5-3.2,0
			c-0.3-0.2-0.4-0.3-0.5-0.6C168.5,161.7,168.7,161.3,169.2,160.7L169.2,160.7z"/>
		<path class="st19" d="M173.2,165.3l0,2.3c0.6,0.7,1.9,0.7,2.6,0.5c0.6-0.2,0.9-0.4,1.4-0.6c0.5-0.3,0.5-0.5,0.5-0.7l-0.3-2.1
			L173.2,165.3z"/>
		<path class="st3" d="M173.7,164.3c1-1,1.8-0.8,2.7-0.4c0.4,0.2,1,0.5,1,0.8c0.1,0.3-0.2,0.6-1.2,1.1c-1,0.5-1.8,0.4-2.6,0
			c-0.2-0.1-0.3-0.3-0.4-0.5C173.2,165.1,173.3,164.7,173.7,164.3L173.7,164.3z"/>
		<path class="st19" d="M176.7,167.2l0,2.3c0.6,0.8,1.9,0.7,2.6,0.5c0.6-0.2,0.9-0.4,1.4-0.6c0.5-0.2,0.5-0.5,0.5-0.7l-0.3-2.1
			L176.7,167.2z"/>
		<path class="st3" d="M177.2,166.1c1-1,1.8-0.8,2.7-0.4c0.4,0.3,1,0.5,1.1,0.8c0.1,0.3-0.2,0.6-1.2,1.1c-1,0.4-1.8,0.4-2.6,0
			c-0.2-0.1-0.4-0.3-0.4-0.5C176.6,166.9,176.8,166.6,177.2,166.1L177.2,166.1z"/>
		<path class="st19" d="M180.4,169.1l0,2.3c0.6,0.8,1.9,0.7,2.6,0.5c0.5-0.2,0.9-0.4,1.4-0.6c0.5-0.2,0.5-0.5,0.5-0.7l-0.3-2.1
			L180.4,169.1z"/>
		<path class="st3" d="M180.9,168c1-1,1.8-0.8,2.7-0.4c0.4,0.3,1,0.5,1,0.8c0.1,0.3-0.2,0.6-1.2,1.1c-1,0.4-1.8,0.4-2.6,0
			c-0.2-0.1-0.3-0.3-0.4-0.5C180.4,168.8,180.5,168.5,180.9,168L180.9,168z"/>
		<path class="st19" d="M184.2,170.9l0,2.3c0.6,0.7,1.9,0.7,2.6,0.4c0.6-0.2,0.9-0.4,1.4-0.6c0.5-0.2,0.5-0.5,0.5-0.7l-0.3-2.1
			L184.2,170.9z"/>
		<path class="st3" d="M184.6,169.8c1-1,1.8-0.8,2.7-0.4c0.4,0.3,1,0.5,1.1,0.8c0.1,0.3-0.2,0.6-1.2,1.1c-1,0.4-1.8,0.4-2.6,0
			c-0.2-0.1-0.4-0.3-0.4-0.5C184.1,170.7,184.2,170.3,184.6,169.8L184.6,169.8z"/>
		<path class="st19" d="M187.9,172.6l0,2.3c0.6,0.8,1.9,0.7,2.6,0.5c0.5-0.2,0.9-0.4,1.4-0.6c0.5-0.2,0.5-0.5,0.5-0.7l-0.3-2.1
			L187.9,172.6z"/>
		<path class="st3" d="M188.4,171.6c1-1,1.8-0.8,2.7-0.4c0.4,0.3,1,0.5,1,0.8c0.1,0.3-0.2,0.6-1.2,1.1c-1,0.4-1.8,0.4-2.6,0
			c-0.2-0.1-0.3-0.3-0.4-0.5C187.9,172.4,188,172,188.4,171.6L188.4,171.6z"/>
		<path class="st19" d="M191.7,174.6v2.3c0.6,0.8,1.9,0.7,2.6,0.5c0.6-0.2,0.9-0.4,1.4-0.6c0.5-0.2,0.5-0.5,0.5-0.7l-0.3-2.1
			L191.7,174.6z"/>
		<path class="st3" d="M192.1,173.5c1-1,1.8-0.8,2.7-0.4c0.4,0.3,1,0.5,1.1,0.8c0.1,0.3-0.2,0.6-1.2,1.1c-1,0.4-1.8,0.4-2.6,0
			c-0.2-0.1-0.4-0.3-0.4-0.5C191.6,174.3,191.8,173.9,192.1,173.5L192.1,173.5z"/>
		<path class="st19" d="M195.5,176.5l0,2.3c0.6,0.8,1.9,0.7,2.6,0.5c0.5-0.2,0.9-0.4,1.4-0.6c0.5-0.2,0.5-0.5,0.5-0.7l-0.3-2.1
			L195.5,176.5z"/>
		<path class="st3" d="M195.9,175.4c1-1,1.8-0.8,2.7-0.4c0.4,0.3,1,0.5,1,0.8c0.1,0.3-0.2,0.6-1.2,1.1c-1,0.4-1.8,0.4-2.6,0
			c-0.2-0.1-0.3-0.3-0.4-0.5C195.4,176.3,195.5,175.9,195.9,175.4L195.9,175.4z"/>
		<path class="st19" d="M199.5,178.7l0,2.3c0.6,0.8,1.9,0.7,2.6,0.5c0.5-0.2,0.9-0.4,1.4-0.6c0.5-0.2,0.5-0.5,0.5-0.7l-0.3-2.1
			L199.5,178.7z"/>
		<path class="st3" d="M199.9,177.6c1-1,1.8-0.8,2.7-0.4c0.4,0.3,1,0.5,1.1,0.8c0.1,0.3-0.2,0.6-1.2,1.1c-1,0.4-1.8,0.4-2.6,0
			c-0.2-0.1-0.4-0.3-0.4-0.5C199.4,178.4,199.6,178,199.9,177.6L199.9,177.6z"/>
		<path class="st19" d="M203.5,180.8l0,2.3c0.6,0.8,1.9,0.7,2.6,0.5c0.6-0.2,0.9-0.4,1.4-0.6c0.5-0.2,0.5-0.5,0.5-0.7l-0.3-2.1
			L203.5,180.8z"/>
		<path class="st3" d="M203.9,179.7c1-1,1.8-0.8,2.7-0.4c0.4,0.3,1,0.5,1.1,0.8c0.1,0.3-0.2,0.6-1.2,1.1c-1,0.4-1.8,0.4-2.6,0
			c-0.2-0.1-0.4-0.3-0.4-0.5C203.4,180.5,203.6,180.1,203.9,179.7L203.9,179.7z"/>
		<path class="st19" d="M207.2,182.6l0,2.3c0.6,0.7,1.9,0.7,2.6,0.5c0.5-0.2,0.9-0.4,1.4-0.6c0.5-0.3,0.5-0.5,0.5-0.7l-0.3-2.1
			L207.2,182.6z"/>
		<path class="st3" d="M207.7,181.5c1-1,1.8-0.8,2.7-0.4c0.4,0.2,1,0.5,1.1,0.8c0.1,0.3-0.2,0.6-1.2,1.1c-1,0.4-1.8,0.4-2.6,0
			c-0.2-0.1-0.3-0.3-0.4-0.5C207.2,182.4,207.3,182,207.7,181.5L207.7,181.5z"/>
		<path class="st19" d="M211,184.2l0,2.9c0.8,0.9,2.3,0.8,3.3,0.6c0.7-0.2,1.1-0.5,1.7-0.8c0.6-0.3,0.7-0.6,0.6-0.9l-0.4-2.6
			L211,184.2z"/>
		<path class="st3" d="M211.5,182.9c1.2-1.2,2.3-1,3.4-0.5c0.5,0.3,1.2,0.7,1.3,1c0.1,0.4-0.3,0.8-1.6,1.4c-1.2,0.5-2.3,0.5-3.2,0
			c-0.3-0.1-0.4-0.3-0.5-0.6C210.9,183.9,211.1,183.4,211.5,182.9L211.5,182.9z"/>
		<path class="st19" d="M170.7,156l0,2.3c0.6,0.8,1.9,0.7,2.6,0.5c0.5-0.2,0.9-0.4,1.4-0.6c0.5-0.2,0.5-0.5,0.5-0.7l-0.3-2.1
			L170.7,156z"/>
		<path class="st3" d="M171.1,154.9c1-1,1.8-0.8,2.7-0.4c0.4,0.3,1,0.5,1,0.8c0.1,0.3-0.2,0.6-1.2,1.1c-1,0.4-1.8,0.4-2.6,0
			c-0.2-0.1-0.3-0.3-0.4-0.5C170.6,155.7,170.7,155.3,171.1,154.9L171.1,154.9z"/>
		<path class="st19" d="M174.3,158.2l0,2.3c0.6,0.7,1.9,0.7,2.6,0.5c0.6-0.2,0.9-0.4,1.4-0.6c0.5-0.2,0.5-0.5,0.5-0.7l-0.3-2.1
			L174.3,158.2z"/>
		<path class="st3" d="M174.8,157.1c0.9-1,1.8-0.8,2.7-0.4c0.4,0.2,1,0.5,1.1,0.8c0.1,0.3-0.2,0.6-1.2,1.1c-1,0.4-1.8,0.4-2.6,0
			c-0.2-0.1-0.4-0.3-0.4-0.5C174.3,157.9,174.4,157.5,174.8,157.1L174.8,157.1z"/>
		<path class="st19" d="M178,160.3l0,2.3c0.6,0.7,1.9,0.6,2.6,0.4c0.5-0.2,0.9-0.4,1.4-0.6c0.5-0.2,0.5-0.5,0.5-0.7l-0.3-2.1
			L178,160.3z"/>
		<path class="st3" d="M178.5,159.2c1-1,1.8-0.8,2.7-0.4c0.4,0.3,1,0.5,1.1,0.8c0.1,0.3-0.2,0.6-1.2,1.1c-1,0.4-1.8,0.4-2.6,0
			c-0.2-0.1-0.3-0.3-0.4-0.5C178,160,178.1,159.7,178.5,159.2L178.5,159.2z"/>
		<path class="st19" d="M181.5,162.2l0,2.3c0.6,0.7,1.9,0.7,2.6,0.5c0.5-0.2,0.9-0.4,1.4-0.6c0.5-0.3,0.5-0.5,0.5-0.7l-0.3-2.1
			L181.5,162.2z"/>
		<path class="st3" d="M182,161.1c1-1,1.8-0.8,2.7-0.4c0.4,0.2,1,0.5,1,0.8c0.1,0.3-0.2,0.6-1.2,1.1c-1,0.4-1.8,0.4-2.6,0
			c-0.2-0.1-0.3-0.3-0.4-0.5C181.5,161.9,181.6,161.5,182,161.1L182,161.1z"/>
		<path class="st19" d="M185.3,164.1v2.3c0.6,0.7,1.9,0.7,2.6,0.5c0.6-0.2,0.9-0.4,1.4-0.6c0.5-0.2,0.5-0.5,0.5-0.7l-0.3-2.1
			L185.3,164.1z"/>
		<path class="st3" d="M185.7,163c1-1,1.8-0.8,2.7-0.4c0.4,0.3,1,0.5,1.1,0.8c0.1,0.3-0.2,0.6-1.2,1.1c-1,0.4-1.8,0.4-2.6,0
			c-0.2-0.1-0.4-0.3-0.4-0.5C185.2,163.8,185.3,163.4,185.7,163L185.7,163z"/>
		<path class="st19" d="M189,165.9l0,2.3c0.6,0.8,1.9,0.7,2.6,0.5c0.5-0.2,0.9-0.4,1.4-0.6c0.5-0.2,0.5-0.5,0.5-0.7l-0.3-2.1
			L189,165.9z"/>
		<path class="st3" d="M189.4,164.8c1-1,1.8-0.8,2.7-0.4c0.4,0.3,1,0.5,1.1,0.8c0.1,0.3-0.2,0.6-1.2,1.1c-1,0.4-1.8,0.4-2.6,0
			c-0.2-0.1-0.3-0.3-0.4-0.5C188.9,165.6,189.1,165.3,189.4,164.8L189.4,164.8z"/>
		<path class="st19" d="M192.8,167.6v2.3c0.6,0.7,1.9,0.7,2.6,0.5c0.6-0.2,0.9-0.4,1.4-0.7c0.5-0.2,0.5-0.4,0.5-0.7l-0.3-2.1
			L192.8,167.6z"/>
		<path class="st3" d="M193.2,166.5c1-1,1.8-0.8,2.7-0.4c0.4,0.2,1,0.5,1.1,0.8c0.1,0.3-0.2,0.6-1.2,1.1c-1,0.4-1.8,0.4-2.6,0
			c-0.2-0.1-0.4-0.3-0.4-0.5C192.7,167.4,192.8,166.9,193.2,166.5L193.2,166.5z"/>
		<path class="st19" d="M196.5,169.6l0,2.3c0.6,0.7,1.9,0.7,2.6,0.5c0.5-0.2,0.9-0.4,1.4-0.6c0.5-0.2,0.5-0.5,0.5-0.7l-0.3-2.1
			L196.5,169.6z"/>
		<path class="st3" d="M196.9,168.5c1-1,1.8-0.8,2.7-0.4c0.4,0.2,1,0.5,1,0.8c0.1,0.3-0.2,0.6-1.2,1.1c-1,0.4-1.8,0.4-2.6,0
			c-0.2-0.1-0.3-0.3-0.4-0.5C196.5,169.3,196.6,168.9,196.9,168.5L196.9,168.5z"/>
		<path class="st19" d="M200.3,171.5l0,2.3c0.6,0.8,1.9,0.7,2.6,0.5c0.6-0.2,0.9-0.4,1.4-0.6c0.5-0.2,0.5-0.5,0.5-0.7l-0.3-2.1
			L200.3,171.5z"/>
		<path class="st3" d="M200.7,170.4c1-1,1.8-0.8,2.7-0.4c0.4,0.3,1,0.5,1.1,0.8c0.1,0.3-0.2,0.6-1.2,1.1c-1,0.4-1.8,0.4-2.6,0
			c-0.2-0.1-0.4-0.3-0.4-0.4C200.2,171.2,200.4,170.9,200.7,170.4L200.7,170.4z"/>
		<path class="st19" d="M204.3,173.7l0,2.3c0.6,0.8,1.9,0.7,2.6,0.5c0.5-0.2,0.9-0.4,1.4-0.6c0.5-0.2,0.5-0.5,0.5-0.7l-0.3-2.1
			L204.3,173.7z"/>
		<path class="st3" d="M204.7,172.6c1-1,1.8-0.8,2.7-0.4c0.4,0.3,1,0.5,1,0.8c0.1,0.3-0.2,0.6-1.2,1.1c-1,0.4-1.8,0.4-2.6,0
			c-0.2-0.1-0.3-0.3-0.4-0.4C204.3,173.4,204.4,173,204.7,172.6L204.7,172.6z"/>
		<path class="st19" d="M208.3,175.8l0,2.3c0.6,0.8,1.9,0.7,2.6,0.5c0.5-0.2,0.9-0.4,1.4-0.6c0.5-0.2,0.5-0.5,0.5-0.7l-0.3-2.1
			L208.3,175.8z"/>
		<path class="st3" d="M208.7,174.7c1-1,1.8-0.8,2.7-0.4c0.4,0.3,1,0.5,1.1,0.8c0.1,0.3-0.2,0.6-1.2,1.1c-1,0.4-1.8,0.4-2.6,0
			c-0.2-0.1-0.3-0.3-0.4-0.5C208.3,175.5,208.4,175.1,208.7,174.7L208.7,174.7z"/>
		<path class="st19" d="M212.1,177.6l0,2.3c0.6,0.8,1.9,0.7,2.6,0.5c0.6-0.2,0.9-0.4,1.4-0.6c0.5-0.2,0.5-0.5,0.5-0.7l-0.3-2.1
			L212.1,177.6z"/>
		<path class="st3" d="M212.5,176.5c1-1,1.8-0.8,2.7-0.4c0.4,0.3,1,0.5,1.1,0.8c0.1,0.3-0.2,0.6-1.2,1.1c-1,0.4-1.8,0.4-2.6,0
			c-0.2-0.1-0.4-0.3-0.4-0.5C212,177.3,212.1,177,212.5,176.5L212.5,176.5z"/>
		<path class="st19" d="M180.9,155.4l0,2.3c0.6,0.8,1.9,0.7,2.6,0.5c0.6-0.2,0.9-0.4,1.4-0.6c0.5-0.2,0.5-0.5,0.5-0.7l-0.3-2.1
			L180.9,155.4z"/>
		<path class="st3" d="M181.3,154.3c1-1,1.8-0.8,2.7-0.4c0.4,0.3,1,0.5,1,0.8c0.1,0.3-0.2,0.6-1.2,1.1c-1,0.4-1.8,0.4-2.6,0
			c-0.2-0.1-0.4-0.3-0.4-0.5C180.8,155.2,181,154.8,181.3,154.3L181.3,154.3z"/>
		<path class="st19" d="M184.3,157.3l0,2.3c0.6,0.8,1.9,0.7,2.6,0.5c0.6-0.2,0.9-0.4,1.4-0.6c0.5-0.2,0.5-0.5,0.5-0.7l-0.3-2.1
			L184.3,157.3z"/>
		<path class="st3" d="M184.8,156.2c0.9-1,1.8-0.8,2.7-0.4c0.4,0.3,1,0.5,1.1,0.8c0.1,0.3-0.2,0.6-1.2,1.1c-1,0.4-1.8,0.4-2.6,0
			c-0.2-0.1-0.4-0.3-0.4-0.5C184.3,157,184.4,156.7,184.8,156.2L184.8,156.2z"/>
		<path class="st19" d="M188.1,159.2l0,2.3c0.6,0.7,1.9,0.7,2.6,0.4c0.5-0.2,0.9-0.4,1.4-0.6c0.5-0.2,0.5-0.5,0.5-0.7l-0.3-2.1
			L188.1,159.2z"/>
		<path class="st3" d="M188.5,158.1c1-1,1.8-0.8,2.7-0.4c0.4,0.3,1,0.5,1,0.8c0.1,0.3-0.2,0.6-1.2,1.1c-1,0.4-1.8,0.4-2.6,0
			c-0.2-0.1-0.3-0.3-0.4-0.5C188,158.9,188.1,158.5,188.5,158.1L188.5,158.1z"/>
		<path class="st19" d="M191.8,161l0,2.3c0.6,0.7,1.9,0.7,2.6,0.5c0.6-0.2,0.9-0.4,1.4-0.6c0.5-0.3,0.5-0.5,0.5-0.7l-0.3-2.1
			L191.8,161z"/>
		<path class="st3" d="M192.2,160c0.9-1,1.8-0.8,2.7-0.4c0.4,0.2,1,0.5,1.1,0.8c0.1,0.3-0.2,0.6-1.2,1.1c-1,0.5-1.8,0.4-2.6,0
			c-0.2-0.1-0.4-0.3-0.4-0.5C191.7,160.8,191.9,160.4,192.2,160L192.2,160z"/>
		<path class="st19" d="M195.6,162.7l0,2.3c0.6,0.8,1.9,0.7,2.6,0.5c0.5-0.2,0.9-0.4,1.4-0.6c0.5-0.2,0.5-0.5,0.5-0.7l-0.3-2.1
			L195.6,162.7z"/>
		<path class="st3" d="M196,161.6c1-1,1.8-0.8,2.7-0.4c0.4,0.3,1,0.5,1,0.8c0.1,0.3-0.2,0.6-1.2,1.1c-1,0.4-1.8,0.4-2.6,0
			c-0.2-0.1-0.3-0.3-0.4-0.5C195.5,162.4,195.7,162.1,196,161.6L196,161.6z"/>
		<path class="st19" d="M199.3,164.7l0,2.3c0.6,0.8,1.9,0.7,2.6,0.5c0.6-0.2,0.9-0.4,1.4-0.6c0.5-0.2,0.5-0.5,0.5-0.7l-0.3-2.1
			L199.3,164.7z"/>
		<path class="st3" d="M199.8,163.6c0.9-1,1.8-0.8,2.7-0.4c0.4,0.3,1,0.5,1.1,0.8c0.1,0.3-0.2,0.6-1.2,1.1c-1,0.4-1.8,0.4-2.6,0
			c-0.2-0.1-0.4-0.3-0.4-0.5C199.3,164.4,199.4,164,199.8,163.6L199.8,163.6z"/>
		<path class="st19" d="M203.1,166.6l0,2.3c0.6,0.7,1.9,0.7,2.6,0.4c0.5-0.2,0.9-0.4,1.4-0.6c0.5-0.2,0.5-0.5,0.5-0.7l-0.3-2.1
			L203.1,166.6z"/>
		<path class="st3" d="M203.6,165.5c1-1,1.8-0.8,2.7-0.4c0.4,0.3,1,0.5,1,0.8c0.1,0.3-0.2,0.6-1.2,1.1c-1,0.4-1.8,0.4-2.6,0
			c-0.2-0.1-0.3-0.3-0.4-0.5C203.1,166.4,203.2,166,203.6,165.5L203.6,165.5z"/>
		<path class="st19" d="M207.1,168.7l0,2.3c0.6,0.7,1.9,0.7,2.6,0.5c0.5-0.2,0.9-0.4,1.4-0.7c0.5-0.2,0.5-0.4,0.5-0.7l-0.3-2.1
			L207.1,168.7z"/>
		<path class="st3" d="M207.6,167.6c1-1,1.8-0.8,2.7-0.4c0.4,0.2,1,0.5,1.1,0.8c0.1,0.3-0.2,0.6-1.2,1.1c-1,0.4-1.8,0.4-2.6,0
			c-0.2-0.1-0.3-0.3-0.4-0.5C207.1,168.5,207.2,168.1,207.6,167.6L207.6,167.6z"/>
		<path class="st19" d="M211.1,170.9l0,2.3c0.6,0.7,1.9,0.7,2.6,0.5c0.6-0.2,0.9-0.4,1.4-0.7c0.5-0.2,0.5-0.4,0.5-0.7l-0.3-2.1
			L211.1,170.9z"/>
		<path class="st3" d="M211.6,169.8c0.9-1,1.8-0.8,2.7-0.4c0.4,0.2,1,0.5,1.1,0.8c0.1,0.3-0.2,0.6-1.2,1.1c-1,0.4-1.8,0.4-2.6,0
			c-0.2-0.1-0.4-0.3-0.4-0.5C211.1,170.6,211.2,170.2,211.6,169.8L211.6,169.8z"/>
		<path class="st19" d="M214.9,172.7l0,2.3c0.6,0.7,1.9,0.7,2.6,0.5c0.5-0.2,0.9-0.4,1.4-0.6c0.5-0.2,0.5-0.5,0.5-0.7l-0.3-2.1
			L214.9,172.7z"/>
		<path class="st3" d="M215.3,171.6c1-1,1.8-0.8,2.7-0.4c0.4,0.3,1,0.5,1,0.8c0.1,0.3-0.2,0.6-1.2,1.1c-1,0.4-1.8,0.4-2.6,0
			c-0.2-0.1-0.3-0.3-0.4-0.5C214.9,172.4,215,172.1,215.3,171.6L215.3,171.6z"/>
		<path class="st19" d="M186.3,151.1l0,2.3c0.6,0.8,1.9,0.7,2.6,0.5c0.6-0.2,0.9-0.4,1.4-0.6c0.5-0.2,0.5-0.5,0.5-0.7l-0.3-2.1
			L186.3,151.1z"/>
		<path class="st3" d="M186.7,150c1-1,1.8-0.8,2.7-0.4c0.4,0.3,1,0.5,1.1,0.8c0.1,0.3-0.2,0.6-1.2,1.1c-1,0.4-1.8,0.4-2.6,0
			c-0.2-0.1-0.4-0.3-0.4-0.4C186.2,150.8,186.4,150.5,186.7,150L186.7,150z"/>
		<path class="st19" d="M189.7,153l0,2.3c0.6,0.8,1.9,0.7,2.6,0.5c0.6-0.2,0.9-0.4,1.4-0.6c0.5-0.2,0.5-0.5,0.5-0.7l-0.3-2.1
			L189.7,153z"/>
		<path class="st3" d="M190.2,151.9c0.9-1,1.8-0.8,2.7-0.4c0.4,0.3,1,0.5,1.1,0.8c0.1,0.3-0.2,0.6-1.2,1.1c-1,0.4-1.8,0.4-2.6,0
			c-0.2-0.1-0.4-0.3-0.4-0.5C189.7,152.7,189.8,152.3,190.2,151.9L190.2,151.9z"/>
		<path class="st19" d="M193.5,154.9l0,2.3c0.6,0.7,1.9,0.7,2.6,0.4c0.5-0.2,0.9-0.4,1.4-0.6c0.5-0.2,0.5-0.5,0.5-0.7l-0.3-2.1
			L193.5,154.9z"/>
		<path class="st3" d="M193.9,153.8c1-1,1.8-0.8,2.7-0.4c0.4,0.3,1,0.5,1,0.8c0.1,0.3-0.2,0.6-1.2,1.1c-1,0.4-1.8,0.4-2.6,0
			c-0.2-0.1-0.3-0.3-0.4-0.5C193.4,154.6,193.5,154.2,193.9,153.8L193.9,153.8z"/>
		<path class="st19" d="M197.2,156.7l0,2.3c0.6,0.7,1.9,0.7,2.6,0.5c0.6-0.2,0.9-0.4,1.4-0.6c0.5-0.2,0.5-0.5,0.5-0.7l-0.3-2.1
			L197.2,156.7z"/>
		<path class="st3" d="M197.6,155.6c0.9-1,1.8-0.8,2.7-0.4c0.4,0.2,1,0.5,1.1,0.8c0.1,0.3-0.2,0.6-1.2,1.1c-1,0.5-1.8,0.4-2.6,0
			c-0.2-0.1-0.4-0.3-0.4-0.5C197.1,156.4,197.3,156,197.6,155.6L197.6,155.6z"/>
		<path class="st19" d="M201,158.4l0,2.3c0.6,0.8,1.9,0.7,2.6,0.5c0.5-0.2,0.9-0.4,1.4-0.6c0.5-0.2,0.5-0.5,0.5-0.7l-0.3-2.1
			L201,158.4z"/>
		<path class="st3" d="M201.4,157.3c1-1,1.8-0.8,2.7-0.4c0.4,0.3,1,0.5,1,0.8c0.1,0.3-0.2,0.6-1.2,1.1c-1,0.4-1.8,0.4-2.6,0
			c-0.2-0.1-0.3-0.3-0.4-0.5C200.9,158.1,201,157.8,201.4,157.3L201.4,157.3z"/>
		<path class="st19" d="M204.7,160.4l0,2.3c0.6,0.7,1.9,0.6,2.6,0.4c0.6-0.2,0.9-0.4,1.4-0.6c0.5-0.2,0.5-0.5,0.5-0.7l-0.3-2.1
			L204.7,160.4z"/>
		<path class="st3" d="M205.2,159.3c0.9-1,1.8-0.8,2.7-0.4c0.4,0.3,1,0.5,1.1,0.8c0.1,0.3-0.2,0.6-1.2,1.1c-1,0.4-1.8,0.4-2.6,0
			c-0.2-0.1-0.4-0.3-0.4-0.5C204.7,160.1,204.8,159.7,205.2,159.3L205.2,159.3z"/>
		<path class="st19" d="M208.5,162.3l0,2.3c0.6,0.7,1.9,0.7,2.6,0.5c0.5-0.2,0.9-0.4,1.4-0.7c0.5-0.2,0.5-0.4,0.5-0.7l-0.3-2.1
			L208.5,162.3z"/>
		<path class="st3" d="M209,161.2c1-1,1.8-0.8,2.7-0.4c0.4,0.2,1,0.5,1,0.8c0.1,0.3-0.2,0.6-1.2,1.1c-1,0.4-1.8,0.4-2.6,0
			c-0.2-0.1-0.3-0.3-0.4-0.5C208.5,162,208.6,161.6,209,161.2L209,161.2z"/>
		<path class="st19" d="M212.5,164.4l0,2.3c0.6,0.7,1.9,0.7,2.6,0.5c0.5-0.2,0.9-0.4,1.4-0.7c0.5-0.2,0.5-0.4,0.5-0.7l-0.3-2.1
			L212.5,164.4z"/>
		<path class="st3" d="M212.9,163.3c1-1,1.8-0.8,2.7-0.4c0.4,0.2,1,0.5,1.1,0.8c0.1,0.3-0.2,0.6-1.2,1.1c-1,0.4-1.8,0.4-2.6,0
			c-0.2-0.1-0.3-0.3-0.4-0.5C212.5,164.2,212.6,163.8,212.9,163.3L212.9,163.3z"/>
		<path class="st19" d="M216.5,166.5l0,2.3c0.6,0.7,1.9,0.7,2.6,0.5c0.6-0.2,0.9-0.4,1.4-0.7c0.5-0.2,0.5-0.4,0.5-0.7l-0.3-2.1
			L216.5,166.5z"/>
		<path class="st3" d="M217,165.4c0.9-1,1.8-0.8,2.7-0.4c0.4,0.2,1,0.5,1.1,0.8c0.1,0.3-0.2,0.6-1.2,1.1c-1,0.4-1.8,0.4-2.6,0
			c-0.2-0.1-0.4-0.3-0.4-0.5C216.5,166.3,216.6,165.9,217,165.4L217,165.4z"/>
		<path class="st19" d="M220.3,168.4l0,2.3c0.6,0.7,1.9,0.7,2.6,0.5c0.5-0.2,0.9-0.4,1.4-0.6c0.5-0.2,0.5-0.5,0.5-0.7l-0.3-2.1
			L220.3,168.4z"/>
		<path class="st3" d="M220.7,167.3c1-1,1.8-0.8,2.7-0.4c0.4,0.3,1,0.5,1,0.8c0.1,0.3-0.2,0.6-1.2,1.1c-1,0.4-1.8,0.4-2.6,0
			c-0.2-0.1-0.3-0.3-0.4-0.5C220.2,168.1,220.3,167.8,220.7,167.3L220.7,167.3z"/>
		<path class="st19" d="M178.6,148.4l0,1.8c0.5,0.6,1.5,0.5,2.1,0.4c0.5-0.1,0.7-0.3,1.1-0.5c0.4-0.2,0.4-0.4,0.4-0.5l-0.3-1.6
			L178.6,148.4z"/>
		<path class="st3" d="M178.9,147.6c0.7-0.8,1.4-0.6,2.1-0.3c0.3,0.2,0.7,0.4,0.8,0.7c0.1,0.2-0.1,0.5-1,0.9c-0.8,0.3-1.4,0.3-2.1,0
			c-0.1-0.1-0.3-0.2-0.3-0.4C178.6,148.2,178.7,147.9,178.9,147.6L178.9,147.6z"/>
		<path class="st19" d="M181.7,149.5l0,2.3c0.6,0.7,1.9,0.7,2.6,0.4c0.5-0.2,0.9-0.4,1.4-0.6c0.5-0.2,0.5-0.5,0.5-0.7l-0.3-2.1
			L181.7,149.5z"/>
		<path class="st3" d="M182.1,148.4c1-1,1.8-0.8,2.7-0.4c0.4,0.3,1,0.5,1,0.8c0.1,0.3-0.2,0.6-1.2,1.1c-1,0.4-1.8,0.4-2.6,0
			c-0.2-0.1-0.3-0.3-0.4-0.5C181.6,149.3,181.7,148.9,182.1,148.4L182.1,148.4z"/>
		<path class="st19" d="M172.8,150.9l0,2.3c0.6,0.8,1.9,0.7,2.6,0.5c0.5-0.2,0.9-0.4,1.4-0.6c0.5-0.2,0.5-0.5,0.5-0.7l-0.3-2.1
			L172.8,150.9z"/>
		<path class="st3" d="M173.2,149.8c1-1,1.8-0.8,2.7-0.4c0.4,0.3,1,0.5,1.1,0.8c0.1,0.3-0.2,0.6-1.2,1.1c-1,0.4-1.8,0.4-2.6,0
			c-0.2-0.1-0.3-0.3-0.4-0.5C172.8,150.6,172.9,150.2,173.2,149.8L173.2,149.8z"/>
		<path class="st19" d="M176.5,153.3l0,2.3c0.6,0.8,1.9,0.7,2.6,0.5c0.6-0.2,0.9-0.4,1.4-0.6c0.5-0.2,0.5-0.5,0.5-0.7l-0.3-2.1
			L176.5,153.3z"/>
		<path class="st3" d="M176.9,152.2c1-1,1.8-0.8,2.7-0.4c0.4,0.3,1,0.5,1,0.8c0.1,0.3-0.2,0.6-1.2,1.1c-1,0.4-1.8,0.4-2.6,0
			c-0.2-0.1-0.3-0.3-0.4-0.5C176.5,153,176.6,152.7,176.9,152.2L176.9,152.2z"/>
		<path class="st19" d="M219.1,174.2l0,2.3c0.6,0.7,1.9,0.7,2.6,0.4c0.5-0.2,0.9-0.4,1.4-0.6c0.5-0.2,0.5-0.5,0.5-0.7l-0.3-2.1
			L219.1,174.2z"/>
		<path class="st3" d="M219.5,173.1c1-1,1.8-0.8,2.7-0.4c0.4,0.3,1,0.5,1,0.8c0.1,0.3-0.2,0.6-1.2,1.1c-1,0.4-1.8,0.4-2.6,0
			c-0.2-0.1-0.3-0.3-0.4-0.5C219,173.9,219.2,173.5,219.5,173.1L219.5,173.1z"/>
		<path class="st19" d="M216.4,179.6v2.3c0.6,0.7,1.9,0.7,2.6,0.4c0.6-0.2,0.9-0.4,1.4-0.6c0.5-0.2,0.5-0.5,0.5-0.7l-0.3-2.1
			L216.4,179.6z"/>
		<path class="st3" d="M216.8,178.5c1-1,1.8-0.8,2.7-0.4c0.4,0.3,1,0.5,1.1,0.8c0.1,0.3-0.2,0.6-1.2,1.1c-1,0.4-1.8,0.4-2.6,0
			c-0.2-0.1-0.4-0.3-0.4-0.5C216.3,179.3,216.5,178.9,216.8,178.5L216.8,178.5z"/>
		<polygon class="st3" points="225.6,174.9 223.8,177.2 222.9,176.8 224.5,174.4 		"/>
		<polygon class="st19" points="223.8,177.2 224.8,179.1 227.1,175.9 225.6,174.9 		"/>
		<polygon class="st20" points="222.9,176.8 223.9,178.6 224.8,179.1 223.8,177.2 		"/>
		<path class="st19" d="M168.7,170.4l0.4,2.3c0,0.3,0.1,0.5,0.5,0.8l34.8,18.4c0.7,0.4,1.4,0.6,1.9,0.3c0.3-0.3,0.5-0.5,0.8-0.8
			c0.6-0.7,0.7-1.5,0.5-2.4c-0.1-0.5-0.4-1-0.7-1.4l0,0L168.7,170.4z"/>
		<path class="st3" d="M171.8,169.3l34.6,17.8c1.5,0.7,0.5,3-2.2,1.8l-35.1-18C168,170.1,170,168.4,171.8,169.3L171.8,169.3z"/>
		<path class="st21" d="M243.1,157.7c0,2.2-3.3,4-7.3,4c-4,0-7.3-1.8-7.3-4c0-2.2,3.3-4,7.3-4C239.9,153.7,243.1,155.5,243.1,157.7
			L243.1,157.7z"/>
		<path class="st7" d="M229.7,153.5c0.3,1.1,0.5,2.2,0.3,3.3c-0.1,0.2-0.2,0.4-0.2,0.7c0,0,0,0.1-0.1,0.1h0c0,0,0,0,0,0.1
			c0,1.8,2.7,3.3,6.2,3.3c3.4,0,6.2-1.5,6.2-3.3c0-0.1,0-0.3-0.1-0.4h0c-0.4-1.2-0.3-2.5,0-3.7L229.7,153.5L229.7,153.5z"/>
		<path class="st7" d="M235.2,157.1c0,0.1-0.2,0.2-0.4,0.2c-0.2,0-0.4-0.1-0.4-0.2c0-0.1,0.2-0.2,0.4-0.2
			C235,156.8,235.2,156.9,235.2,157.1L235.2,157.1z"/>
		<path class="st21" d="M243.1,153.5c0,2.2-3.3,4-7.3,4c-4,0-7.3-1.8-7.3-4c0-2.2,3.3-4,7.3-4C239.9,149.5,243.1,151.3,243.1,153.5
			L243.1,153.5z"/>
		<path class="st22" d="M242,153.5c0,1.8-2.8,3.3-6.2,3.3c-3.4,0-6.2-1.5-6.2-3.3c0-1.9,2.7-3.3,6.2-3.3
			C239.3,150.2,242,151.6,242,153.5L242,153.5z"/>
		<path class="st7" d="M236.8,153.4c0,0.3-0.4,0.4-0.9,0.4c-0.5,0-0.9-0.2-0.9-0.4c0-0.3,0.4-0.5,0.9-0.5
			C236.4,152.9,236.8,153.1,236.8,153.4L236.8,153.4z"/>
		<path class="st7" d="M236,154.2c0,0.1-0.2,0.2-0.4,0.2c-0.2,0-0.4-0.1-0.4-0.2c0-0.1,0.2-0.2,0.4-0.2
			C235.8,154.1,236,154.1,236,154.2L236,154.2z"/>
		<path class="st7" d="M235.2,152.9c0,0.1-0.2,0.2-0.4,0.2c-0.2,0-0.4-0.1-0.4-0.2c0-0.1,0.2-0.2,0.4-0.2
			C235,152.7,235.2,152.8,235.2,152.9L235.2,152.9z"/>
		<path class="st7" d="M237.6,153.1c0,0.1-0.2,0.2-0.4,0.2s-0.4-0.1-0.4-0.2c0-0.1,0.2-0.2,0.4-0.2S237.6,153,237.6,153.1
			L237.6,153.1z"/>
		<path class="st12" d="M255.2,146.7c0,0.8,0,1.6-0.5,2.5c-0.9,1.3-1.1,2.5-1.3,3.7c0,0.8-0.5,1.2-0.9,1.7c-0.3,2.5,0.9,3.8,2.7,3.5
			c0.5-0.9,0.9-1.9,1.8-2.6l0.4-7.2c0-0.9-0.2-1.7-0.8-2.6L255.2,146.7z"/>
		<path class="st7" d="M256.7,148.9L256.7,148.9c-0.5-0.1-1.2,0.5-1.6,1.5c-0.5,1-0.4,2.1,0.1,2.3c0.5,0.1,1,0.3,1.4,0.5l1.6-3.7
			L256.7,148.9z"/>
		<path class="st7" d="M258.3,151.7c-0.4,1-1.2,1.6-1.8,1.4c-0.5-0.2-0.5-1.2-0.1-2.3c0.5-1,1.2-1.6,1.8-1.4
			C258.7,149.7,258.7,150.7,258.3,151.7L258.3,151.7z"/>
		<path class="st7" d="M258.3,151.8c-0.4,0.8-1.1,1.4-1.5,1.2c-0.4-0.2-0.5-1.1-0.1-1.9c0.4-0.8,1.1-1.4,1.5-1.2
			C258.6,150,258.7,150.9,258.3,151.8L258.3,151.8z"/>
		<path class="st5" d="M259,147.6L259,147.6c-1.1-0.2-2.5,1.1-3.4,3.1c-0.9,2.1-0.8,4.2,0.2,4.6c1,0.3,1.9,0.7,2.9,1l3.2-7.7
			L259,147.6z"/>
		<path class="st6" d="M262.4,153.4c-0.9,2.1-2.5,3.4-3.6,3c-1.1-0.5-1.2-2.6-0.2-4.7c0.9-2.1,2.5-3.4,3.6-3
			C263.2,149.2,263.3,151.3,262.4,153.4L262.4,153.4z"/>
		<path class="st7" d="M262.3,153.4c-0.8,1.8-2.2,2.9-3,2.5c-0.9-0.4-1-2.2-0.2-4c0.8-1.8,2.1-2.9,3-2.5
			C263,149.8,263.1,151.6,262.3,153.4L262.3,153.4z"/>
		<path class="st10" d="M194.3,121l4.1,1.9l10.5-6.3l54.8,21.5l-1.2,0.9l-1-0.4l-2.2,1.7l-1.9-0.8l-2.3,1.6l0.8,0.4l-4.4,3.2
			l3.7,2.1l1.3-1l7.6-5.7c1.2,1.1,3.2-1.1,3.6-2.8l1.9-1.5l0.7-0.1l-59.8-24l-3,1.6c-0.8,1.3-1.9,2.2-3.7,2.3l-4,1.9L194.3,121z"/>
		<path class="st9" d="M194.3,121v2.1c-0.9,1.3-1.2,2.8-1.1,4.5l-0.4,1c-0.4,1.3,0.5,2.2,1.1,3.2l3.8,0.9c-0.4-0.7-0.9-1.4-0.8-2.2
			l0.7-1.2c-0.2-1.8,0.2-3.2,0.9-4.6l-0.1-1.8L194.3,121z"/>
		<path class="st13" d="M192.8,128.8c-0.3,1.2,0.6,2.1,1.2,3l3.8,0.9c-0.4-0.7-0.9-1.4-0.8-2.2l0,0L192.8,128.8L192.8,128.8z"/>
		<path class="st23" d="M164.3,126.4c-0.9,0.4-0.4,1.6,0,2.7c0.2,0.6,0.9,0.8,2.1,0.5l5.6-1.7c3.7-1.3,1.5-3.5,6.7-5.5l17.1-6.2
			c0.3,1.4,0.8,2.4,2.5,1.4l3.7-2.3l-0.5-2.4L164.3,126.4z"/>
		<polygon class="st24" points="202.7,112.9 165.2,126.4 164.3,126.4 201.4,112.2 		"/>
		<path class="st25" d="M202,115.9l-1.3,0.8l-1.3,0.1v0.6l1.1,0.8c0,0,0.6,0.4,1.6-0.1c0.1-0.1,1.1-0.6,1.1-0.6
			c0.4-0.2,0.5-0.4,0.5-0.5c0,0,0-0.1,0-0.1v-0.5v-0.1l-0.7,0.1L202,115.9L202,115.9z"/>
		<path class="st13" d="M199.4,116.8l2.6-1.5l1.5,0.7c0.1,0.1,0.3,0.2,0.3,0.3c0,0.1-0.1,0.3-0.6,0.6c0,0-0.9,0.5-1.1,0.6
			c-1,0.5-1.6,0.1-1.6,0.1L199.4,116.8z"/>
		<polygon class="st26" points="212.8,93.1 200.5,126.6 249.7,147.7 262.4,114.3 212.8,93.1 		"/>
		<path class="st21" d="M201.4,139.5c0,2.2-3.3,4-7.3,4c-4,0-7.3-1.8-7.3-4c0-2.2,3.3-4,7.3-4C198.1,135.5,201.4,137.3,201.4,139.5
			L201.4,139.5z"/>
		<path class="st7" d="M187.9,135.3c0.3,1.1,0.5,2.2,0.3,3.3c-0.1,0.2-0.2,0.4-0.2,0.7c0,0,0,0.1-0.1,0.1h0c0,0,0,0,0,0.1
			c0,1.8,2.7,3.3,6.2,3.3c3.4,0,6.2-1.5,6.2-3.3c0-0.1,0-0.3,0-0.4h0c-0.4-1.2-0.3-2.5,0-3.7L187.9,135.3L187.9,135.3z"/>
		<path class="st7" d="M193.5,138.8c0,0.1-0.2,0.2-0.4,0.2s-0.4-0.1-0.4-0.2c0-0.1,0.2-0.2,0.4-0.2S193.5,138.7,193.5,138.8
			L193.5,138.8z"/>
		<path class="st21" d="M201.4,135.3c0,2.2-3.3,4-7.3,4c-4,0-7.3-1.8-7.3-4c0-2.2,3.3-4,7.3-4C198.1,131.3,201.4,133.1,201.4,135.3
			L201.4,135.3z"/>
		<path class="st22" d="M200.3,135.3c0,1.8-2.7,3.3-6.2,3.3c-3.4,0-6.2-1.5-6.2-3.3c0-1.9,2.7-3.3,6.2-3.3
			C197.5,132,200.3,133.4,200.3,135.3L200.3,135.3z"/>
		<path class="st7" d="M195,135.2c0,0.3-0.4,0.4-0.9,0.4c-0.5,0-0.9-0.2-0.9-0.4c0-0.3,0.4-0.5,0.9-0.5
			C194.6,134.7,195,134.9,195,135.2L195,135.2z"/>
		<path class="st7" d="M194.2,136c0,0.1-0.2,0.2-0.4,0.2c-0.3,0-0.4-0.1-0.4-0.2c0-0.1,0.2-0.2,0.4-0.2
			C194,135.8,194.2,135.9,194.2,136L194.2,136z"/>
		<path class="st7" d="M193.5,134.7c0,0.1-0.2,0.2-0.4,0.2s-0.4-0.1-0.4-0.2c0-0.1,0.2-0.2,0.4-0.2S193.5,134.6,193.5,134.7
			L193.5,134.7z"/>
		<path class="st7" d="M195.9,134.9c0,0.1-0.2,0.2-0.4,0.2c-0.2,0-0.4-0.1-0.4-0.2s0.2-0.2,0.4-0.2
			C195.7,134.6,195.9,134.7,195.9,134.9L195.9,134.9z"/>
		<path class="st7" d="M199.9,122.4L199.9,122.4c-0.3-0.1-0.8,0.4-1.1,1c-0.3,0.7-0.2,1.4,0.1,1.5c0.3,0.1,0.6,0.2,0.9,0.3l1-2.5
			L199.9,122.4z"/>
		<path class="st27" d="M201,124.3c-0.3,0.7-0.8,1.1-1.1,1c-0.3-0.1-0.3-0.8-0.1-1.5c0.3-0.7,0.8-1.1,1.1-1
			C201.2,122.9,201.3,123.6,201,124.3L201,124.3z"/>
		<path class="st7" d="M201,124.3c-0.3,0.6-0.7,1-1,0.8c-0.3-0.1-0.3-0.7,0-1.3c0.2-0.6,0.7-1,0.9-0.8
			C201.2,123.2,201.2,123.8,201,124.3L201,124.3z"/>
		<polygon class="st28" points="200.9,123.5 249,143.4 248.9,144 200.6,124.2 200.4,123.8 		"/>
		<polygon class="st29" points="202.1,124.6 249.1,143.9 248.5,144.6 200.2,124.5 200.4,123.8 		"/>
		<path class="st7" d="M249.3,142.9L249.3,142.9c-0.3-0.1-0.8,0.4-1,1c-0.3,0.7-0.3,1.4,0.1,1.5c0.3,0.1,0.6,0.2,0.9,0.3l1-2.5
			L249.3,142.9z"/>
		<path class="st27" d="M250.4,144.7c-0.3,0.7-0.8,1.1-1.1,1c-0.3-0.1-0.4-0.8-0.1-1.5c0.3-0.7,0.8-1.1,1.1-1
			C250.6,143.4,250.6,144.1,250.4,144.7L250.4,144.7z"/>
		<path class="st7" d="M250.4,144.8c-0.2,0.6-0.7,1-0.9,0.8c-0.3-0.1-0.3-0.7-0.1-1.3c0.3-0.6,0.7-1,1-0.8
			C250.6,143.6,250.6,144.2,250.4,144.8L250.4,144.8z"/>
		<path class="st30" d="M259.4,136.4l-8.7,6.5c-2,0.6-2.2,2.2-1.6,2.6c0.1,0.1,0.4,0.4,0.5,0.4c0.4,0,0.7-0.6,1.2-1.6l1.2-1.2l7.9-6
			l0.1-0.5L259.4,136.4z"/>
		<path class="st31" d="M259.9,136.6l-8.9,6.6c-3.4,1.1-1.5,4.8,0.1,1.4l1.2-1.2l2.9-2.2l-0.1,0l2.3-1.6l0,0l2.5-2.1V136.6z"/>
		<path class="st7" d="M250.5,144.9c-0.1,0.3-0.4,0.4-0.5,0.3c-0.2-0.1-0.2-0.4-0.1-0.6c0.1-0.3,0.4-0.4,0.5-0.3
			C250.6,144.3,250.6,144.6,250.5,144.9L250.5,144.9z"/>
		<polygon class="st32" points="213.4,96.5 213.1,97.6 227.8,103.7 228.1,102.6 		"/>
		<polygon class="st32" points="229.3,103.2 228.9,104.2 237,107.6 237.3,106.5 229.3,103.2 		"/>
		<polygon class="st32" points="238.2,107 237.8,108.1 252.5,114.2 252.8,113.1 		"/>
		<polygon class="st32" points="212.5,98.8 212.1,99.8 220.2,103.2 220.6,102.1 212.5,98.8 		"/>
		<polygon class="st32" points="221.5,102.5 221.2,103.6 235.9,109.7 236.3,108.6 		"/>
		<polygon class="st32" points="236.9,109 236.6,110 244.6,113.4 245,112.3 236.9,109 		"/>
		<polygon class="st32" points="245.9,112.7 245.6,113.8 254,117.3 254.3,116.2 245.9,112.7 		"/>
		<polygon class="st32" points="215,102.7 214.6,103.7 223.1,107.2 223.4,106.1 215,102.7 		"/>
		<polygon class="st32" points="224.5,106.5 224.1,107.6 238.8,113.7 239.1,112.6 		"/>
		<polygon class="st32" points="210.7,103.7 210.4,104.8 218.5,108.2 218.8,107.1 210.7,103.7 		"/>
		<polygon class="st32" points="219.8,107.5 219.5,108.5 234.2,114.7 234.5,113.6 		"/>
		<polygon class="st32" points="235.2,113.9 234.8,115 242.9,118.4 243.2,117.3 235.2,113.9 		"/>
		<path class="st33" d="M243.2,225.5c0,1.6-4.5,3-10,3c-5.6,0-10.1-1.3-10.1-3c0-1.6,4.5-3,10.1-3
			C238.7,222.5,243.2,223.8,243.2,225.5L243.2,225.5z"/>
		<path class="st34" d="M221.7,211.9c-0.2,0.4-0.5,0.5-1.4-0.1c-2.2-1.8-6-0.8-4.8,1.6c1,1.6,4.3,3.5,8,3.7l0.5,3
			c-3.3-0.4-6.4-1.2-8.8-3.8c-1.6-2.2-2.3-4.5,0.4-6.8c1.2-1.1,3.5-0.3,6,0.3L221.7,211.9z"/>
		<path class="st35" d="M215.7,213.7c0.8,3.9,4.5,4.5,8.1,4.8l-0.3-1.4C219.9,217,216.8,215.2,215.7,213.7L215.7,213.7z"/>
		<path class="st35" d="M217.4,209c-0.7,0-1.3,0.1-1.8,0.5c-1.5,1.3-1.9,2.5-1.8,3.8c0.5-2.4,2-4.4,6.4-3.2c0.6,0.2,0.8,0,0.9-0.3
			C219.7,209.3,218.4,209,217.4,209L217.4,209z"/>
		<path class="st34" d="M221.2,208.7c0.2,5.2,1,10,4,14.3c4,5.4,12.2,3.7,14,1.8c5.1-5.9,5.2-11.3,6.3-16.8L221.2,208.7z"/>
		<path class="st35" d="M221.9,205.6c3.7-5.5,18.9-6.6,22.9-0.2c0.8,1.3,1,2.6,0.5,3.9c-2.7,6.9-20.2,7.1-23.6,0.5
			C220.9,208.3,221.1,206.8,221.9,205.6L221.9,205.6z"/>
		<path class="st36" d="M223,210.6c4.7,5.1,17.8,3.9,20.8-0.3l0-3.5l-8.4-3.4l-9.2,0.7l-3.8,2.3l0.1,2.7L223,210.6z"/>
		<path class="st37" d="M223,210.6c-2.3-8.5,21.7-8.9,20.8-0.3c2.7-5.1-3.1-9.2-10.7-8.9C224.1,202.4,219.7,206.6,223,210.6
			L223,210.6z"/>
		<path class="st38" d="M226.3,207.1c-3.3,0.9-0.9,3.1-0.9,3.1c1,5.6,14.8,4.5,16.1,0.7c1.9-1.1,0.6-3.2-1.2-3.7
			C235.6,206.2,230.9,205.7,226.3,207.1L226.3,207.1z"/>
		<polygon class="st2" points="150.6,180.6 106.1,223 146.4,241 188.1,197.5 		"/>
		<polygon class="st33" points="102.3,197.9 134,171.5 196.5,199.3 164.8,225.7 		"/>
		<polygon class="st39" points="102.4,196.4 134.1,169.9 196.6,197.7 165,224.1 		"/>
		<polygon class="st40" points="150.6,180.6 124,205.9 163.2,223.4 188.1,197.5 150.6,180.6 		"/>
		<polygon class="st26" points="149.9,180 105.4,222.5 145.6,240.4 187.3,197 		"/>
		<path class="st41" d="M172.8,199.4c3.2-1.9,4.2,2.6,1.1,2.6L172.8,199.4z"/>
		<path class="st42" d="M170.9,199.8l2-0.6c0.7,0.6,1.2,1.4,1.1,2.9l-2,0.7L170.9,199.8z"/>
		<polygon class="st43" points="170.9,199.8 171.9,201.1 172,202.8 128.3,216.8 122.3,217.1 127.1,214.2 		"/>
		<path class="st44" d="M127.1,214.2l-4.8,3l6-0.3h0l-0.3-1.3C128,215.5,127.4,214.6,127.1,214.2L127.1,214.2z"/>
		<path class="st45" d="M128,215.5l-5.7,1.6h0l6-0.3l0.7-0.3C128.5,216,128,215.5,128,215.5L128,215.5z"/>
		<polygon class="st46" points="171.9,201.1 128,215.5 128.3,216.8 172,202.8 171.9,201.1 		"/>
		<path class="st47" d="M124.1,216l-1.8,1.1l2.2-0.1C124.5,216.7,124.4,216.4,124.1,216L124.1,216z"/>
		<polygon class="st32" points="150.8,182.4 149.9,183.6 156.3,186.7 157.2,185.6 		"/>
		<polygon class="st32" points="158.1,186 157,187.2 168.5,192.4 169.3,191.1 		"/>
		<polygon class="st32" points="170.2,191.6 169.2,192.8 175.7,195.9 176.5,194.8 		"/>
		<polygon class="st32" points="152.4,186.2 151.5,187.4 157.9,190.5 158.8,189.4 		"/>
	</g>
</g>
</svg>
