<?xml version="1.0" encoding="utf-8"?>
<!-- Generator: Adobe Illustrator 22.0.1, SVG Export Plug-In . SVG Version: 6.00 Build 0)  -->
<svg version="1.1" id="Слой_2" xmlns="http://www.w3.org/2000/svg" xmlns:xlink="http://www.w3.org/1999/xlink" x="0px" y="0px"
	 viewBox="0 0 126.9 123.5" style="enable-background:new 0 0 126.9 123.5;" xml:space="preserve">
<style type="text/css">
	.st0{fill:#DEDCFB;}
	.st1{fill:none;stroke:#3C3C3C;stroke-width:3;stroke-linecap:round;stroke-linejoin:round;stroke-miterlimit:10;}
	.st2{fill:url(#SVGID_1_);}
</style>
<path id="Эллипс_2" class="st0" d="M19,4.3C55.1-18,4.3,52.7,58,62.3c39,7,86.9,29.5,62,49c-26.3,20.6-89,10.9-101,1
	C3.7,99.6-14.8,25.3,19,4.3z"/>
<path class="st1" d="M75.6,20.2H50.5l-17.7,14v35.4c0,0,0,24.7,30.3,31.8c30.3-7.1,30.3-31.8,30.3-31.8V34.2L75.6,20.2z M86.1,38.7
	v30.2h0c0,0.7-0.6,18.4-23.1,24.3C40.2,87.3,40,69.1,40,68.9V38.7l13.2-10.4h19.7L86.1,38.7z"/>
<linearGradient id="SVGID_1_" gradientUnits="userSpaceOnUse" x1="42.7877" y1="80.4426" x2="108.2877" y2="9.9426">
	<stop  offset="0" style="stop-color:#4A3FD9"/>
	<stop  offset="4.939165e-02" style="stop-color:#4A3FD9"/>
	<stop  offset="0.5683" style="stop-color:#F8FF8F"/>
</linearGradient>
<path class="st2" d="M61.9,79.9v-3.8c-4.7-0.4-9-2.4-12.7-5.6l3.8-4.6c2.9,2.5,5.9,4,9,4.6v-10c-3.8-0.9-6.8-2.2-8.5-3.7
	c-1.8-1.5-2.7-3.8-2.7-6.8c0-2.9,1-5.4,3.1-7.4s4.9-2.9,8.1-3.1v-2.7h3.2v2.7c3.8,0.3,7.4,1.6,10.8,3.8l-3.4,4.7
	c-2.2-1.6-4.7-2.7-7.4-2.9v9.7h0.1c4,0.9,6.9,2.2,8.7,3.8c1.9,1.6,2.8,3.8,2.8,6.9c0,2.9-1,5.4-3.2,7.4c-2.2,1.9-5,2.9-8.5,3.1v3.7
	h-3.2L61.9,79.9L61.9,79.9z M58.2,46.5c-0.9,0.7-1.3,1.8-1.3,2.9s0.3,2.1,1,2.8c0.7,0.7,2.1,1.3,4,1.9v-9
	C60.4,45.3,59.1,45.7,58.2,46.5z M69.1,69.2c1-0.7,1.5-1.8,1.5-2.9c0-1.2-0.4-2.2-1.2-2.9c-0.7-0.7-2.2-1.3-4.3-2.1v9.3
	C66.9,70.5,68.2,69.9,69.1,69.2z"/>
</svg>
