<?xml version="1.0" encoding="utf-8"?>
<!-- Generator: Adobe Illustrator 22.0.1, SVG Export Plug-In . SVG Version: 6.00 Build 0)  -->
<svg version="1.1" id="Слой_2_1_" xmlns="http://www.w3.org/2000/svg" xmlns:xlink="http://www.w3.org/1999/xlink" x="0px"
	 y="0px" viewBox="0 0 639.9 479" style="enable-background:new 0 0 639.9 479;" xml:space="preserve">
<style type="text/css">
	.st0{opacity:0.96;fill:#E5E3FD;enable-background:new    ;}
	.st1{enable-background:new    ;}
	.st2{fill:#EFA6D9;}
	.st3{fill:#FCCAE9;}
	.st4{fill:#EB98D3;}
	.st5{fill:#BAE2E1;}
	.st6{fill:#DAF6ED;}
	.st7{fill:#A6D7DA;}
	.st8{fill:#F5D4A9;}
	.st9{fill:#FCEBC7;}
	.st10{fill:#F0C798;}
	.st11{fill:#C9CEF3;}
	.st12{fill:#E8F0FB;}
	.st13{fill:#B4B8ED;}
	.st14{fill:#AFAFAF;}
	.st15{fill:#FFFEFE;}
	.st16{fill:#FEFEFE;}
	.st17{fill:#FFFFFF;}
</style>
<path class="st0" d="M231,144.4c182.8-25.1,273.1-130.1,364.2-29.9C699.3,229.1,610.3,332.6,443.8,406
	c11.8-5.2-307.6,144.9-400,28.8C-79.7,279.7,82,164.9,231,144.4z"/>
<g>
	<g>
		<g class="st1">
			<g>
				<polygon class="st2" points="122.3,368.5 94.8,333.1 94.4,157.6 121.9,193 				"/>
			</g>
			<g>
				<polygon class="st3" points="121.9,193 94.4,157.6 145,140.2 172.5,175.6 				"/>
			</g>
			<g>
				<polygon class="st4" points="172.5,175.6 172.9,351.1 122.3,368.5 121.9,193 				"/>
			</g>
		</g>
	</g>
</g>
<g>
	<g>
		<g class="st1">
			<g>
				<polygon class="st5" points="361.8,283 334.3,247.6 333.9,37.6 361.4,73 				"/>
			</g>
			<g>
				<polygon class="st6" points="361.4,73 333.9,37.6 384,20.3 411.6,55.7 				"/>
			</g>
			<g>
				<polygon class="st7" points="411.6,55.7 412,265.7 361.8,283 361.4,73 				"/>
			</g>
		</g>
	</g>
</g>
<g>
	<g>
		<g class="st1">
			<g>
				<polygon class="st8" points="242.2,325.6 214.7,290.2 214.2,72.7 241.8,108.1 				"/>
			</g>
			<g>
				<polygon class="st9" points="241.8,108.1 214.2,72.7 264.4,55.4 291.9,90.8 				"/>
			</g>
			<g>
				<polygon class="st10" points="291.9,90.8 292.3,308.4 242.2,325.6 241.8,108.1 				"/>
			</g>
		</g>
	</g>
</g>
<g>
	<g>
		<g class="st1">
			<g>
				<polygon class="st11" points="482.7,241.1 455.2,205.7 455,108.2 482.5,143.6 				"/>
			</g>
			<g>
				<polygon class="st12" points="482.5,143.6 455,108.2 502.5,91.8 530,127.2 				"/>
			</g>
			<g>
				<polygon class="st13" points="530,127.2 530.2,224.7 482.7,241.1 482.5,143.6 				"/>
			</g>
		</g>
	</g>
</g>
<path id="Фигура_2" class="st14" d="M133.3,380.2l0.9-0.7l24.1,30.8l-0.9,0.7L133.3,380.2z"/>
<path id="Фигура_2-2" class="st14" d="M254.3,337.7l0.9-0.7l24.1,30.8l-0.9,0.7L254.3,337.7z"/>
<path id="Фигура_2-3" class="st14" d="M374.2,296.2l0.9-0.7l24.1,30.8l-0.9,0.7L374.2,296.2z"/>
<path id="Фигура_2-4" class="st14" d="M495.2,254.8l0.9-0.7l24.1,30.8l-0.9,0.7L495.2,254.8z"/>
<g class="st1">
	<path class="st15" d="M392.6,250.2c0.7-0.2,1.3-0.3,1.8-0.1c0.5,0.2,0.9,0.5,1.2,1c0.3,0.5,0.4,1.2,0.4,2.1c0,0.7-0.1,1.3-0.2,1.9
		c-0.1,0.5-0.3,1.1-0.5,1.7l-2.6,0.9c0.3-0.7,0.5-1.3,0.7-2c0.2-0.7,0.2-1.2,0.2-1.7c0-0.4-0.1-0.7-0.2-0.9
		c-0.1-0.1-0.3-0.2-0.6-0.1c-0.1,0.1-0.3,0.1-0.4,0.3c-0.1,0.1-0.2,0.3-0.3,0.5s-0.3,0.8-0.7,1.7c-0.3,0.8-0.6,1.5-0.9,1.9
		s-0.6,0.8-1,1.2c-0.4,0.3-0.8,0.6-1.4,0.8c-1,0.4-1.8,0.3-2.3-0.2c-0.6-0.5-0.8-1.4-0.8-2.7c0-1.1,0.3-2.3,0.8-3.7l2.2,0.1
		c-0.5,1.2-0.7,2.1-0.7,2.8c0,0.4,0.1,0.6,0.2,0.7c0.1,0.1,0.3,0.1,0.5,0.1c0.2-0.1,0.4-0.3,0.6-0.5c0.2-0.3,0.5-1,0.9-2.1
		c0.4-1.1,0.9-1.9,1.3-2.4C391.3,250.8,391.9,250.4,392.6,250.2z"/>
	<path class="st15" d="M385.2,242.1l6.5-2.3c1.4-0.5,2.5-0.5,3.3,0c0.8,0.5,1.2,1.5,1.2,3c0,1.5-0.4,2.7-1.1,3.8
		c-0.7,1.1-1.8,1.8-3.2,2.4l-6.5,2.4v-2.9l6.3-2.3c0.8-0.3,1.3-0.6,1.7-1c0.3-0.4,0.5-0.9,0.5-1.4c0-0.6-0.2-1-0.5-1.1
		c-0.3-0.1-0.9-0.1-1.7,0.2l-6.3,2.3V242.1z"/>
	<path class="st15" d="M388.6,230.9c1.2-0.4,2.1-0.4,2.8,0c0.7,0.5,1,1.4,1,2.7v0.8l3.6-1.3v2.9l-10.7,3.9v-3.7
		c0-1.4,0.3-2.5,0.9-3.4C386.7,231.9,387.5,231.2,388.6,230.9z M390,235.2v-0.5c0-0.4-0.1-0.7-0.4-0.9c-0.2-0.2-0.6-0.2-1,0
		c-0.7,0.3-1.1,0.8-1.1,1.6v0.7L390,235.2z"/>
	<path class="st15" d="M395.9,220.1v6.4l-10.7,3.9V224l2.3-0.8v3.5l1.7-0.6v-3.2l2.3-0.8v3.2l2-0.7V221L395.9,220.1z"/>
	<path class="st15" d="M392,216.8l3.9-1.4v2.9l-10.7,3.9v-3.5c0-2.9,1.1-4.8,3.2-5.5c1.2-0.5,2.2-0.2,2.9,0.8l4.7-4.8v3.3L392,216
		V216.8z M389.8,217.6V217c0-1-0.4-1.4-1.3-1c-0.7,0.3-1.1,0.9-1.1,1.9v0.6L389.8,217.6z"/>
	<path class="st15" d="M385.2,212v-3.7c0-1.5,0.2-2.6,0.6-3.5c0.4-0.9,1.1-1.5,2-1.8c0.6-0.2,1.1-0.3,1.5-0.1s0.7,0.5,0.8,0.9l0.1,0
		c0.2-0.7,0.5-1.3,0.9-1.8c0.4-0.4,0.9-0.8,1.6-1c1-0.4,1.7-0.3,2.3,0.3c0.6,0.5,0.8,1.4,0.8,2.7v4.2L385.2,212z M389.3,207.6v-0.9
		c0-0.4-0.1-0.7-0.3-0.9s-0.4-0.2-0.8-0.1c-0.6,0.2-0.9,0.8-0.9,1.7v0.8L389.3,207.6z M391.4,206.8l2.3-0.8v-1
		c0-0.9-0.4-1.2-1.1-0.9c-0.4,0.1-0.6,0.4-0.8,0.7c-0.2,0.3-0.3,0.7-0.3,1.2V206.8z"/>
</g>
<g class="st1">
	<path class="st15" d="M271.6,293.5c0.7-0.2,1.3-0.3,1.8-0.1c0.5,0.2,0.9,0.5,1.2,1c0.3,0.5,0.4,1.2,0.4,2.1c0,0.7-0.1,1.3-0.2,1.9
		c-0.1,0.5-0.3,1.1-0.5,1.7l-2.6,0.9c0.3-0.7,0.5-1.3,0.7-2c0.2-0.7,0.2-1.2,0.2-1.7c0-0.4-0.1-0.7-0.2-0.9
		c-0.1-0.1-0.3-0.2-0.6-0.1c-0.1,0.1-0.3,0.1-0.4,0.3c-0.1,0.1-0.2,0.3-0.3,0.5c-0.1,0.2-0.3,0.8-0.7,1.7c-0.3,0.8-0.6,1.5-0.9,1.9
		c-0.3,0.5-0.6,0.8-1,1.2s-0.8,0.6-1.4,0.8c-1,0.4-1.8,0.3-2.3-0.2c-0.6-0.5-0.8-1.4-0.8-2.7c0-1.1,0.3-2.3,0.8-3.7l2.2,0.1
		c-0.5,1.2-0.7,2.1-0.7,2.8c0,0.4,0.1,0.6,0.2,0.8c0.1,0.1,0.3,0.1,0.5,0.1c0.2-0.1,0.4-0.3,0.6-0.5c0.2-0.3,0.5-1,0.9-2.1
		c0.4-1.1,0.9-1.9,1.3-2.4C270.3,294.2,270.9,293.8,271.6,293.5z"/>
	<path class="st15" d="M264.2,285.5l6.5-2.3c1.4-0.5,2.5-0.5,3.3,0s1.2,1.5,1.2,3c0,1.5-0.4,2.7-1.1,3.8c-0.7,1.1-1.8,1.8-3.2,2.4
		l-6.5,2.4v-2.9l6.3-2.3c0.8-0.3,1.3-0.6,1.7-1c0.3-0.4,0.5-0.9,0.5-1.4c0-0.6-0.2-1-0.5-1.1c-0.3-0.1-0.9-0.1-1.7,0.2l-6.3,2.3
		V285.5z"/>
	<path class="st15" d="M267.6,274.2c1.2-0.4,2.1-0.4,2.8,0c0.7,0.5,1,1.4,1,2.7v0.8l3.6-1.3v2.9l-10.7,3.9v-3.7
		c0-1.4,0.3-2.5,0.9-3.4C265.7,275.2,266.5,274.6,267.6,274.2z M269,278.6V278c0-0.4-0.1-0.7-0.4-0.9c-0.2-0.2-0.6-0.2-1,0
		c-0.7,0.3-1.1,0.8-1.1,1.6v0.7L269,278.6z"/>
	<path class="st15" d="M274.9,263.5v6.4l-10.7,3.9v-6.4l2.3-0.8v3.5l1.7-0.6v-3.2l2.3-0.8v3.2l2-0.7v-3.5L274.9,263.5z"/>
	<path class="st15" d="M271,260.1l3.9-1.4v2.9l-10.7,3.9V262c0-2.9,1.1-4.8,3.2-5.5c1.2-0.5,2.2-0.2,2.9,0.8l4.7-4.8v3.3l-3.9,3.7
		V260.1z M268.8,260.9v-0.5c0-1-0.4-1.4-1.3-1c-0.7,0.3-1.1,0.9-1.1,1.9v0.6L268.8,260.9z"/>
	<path class="st15" d="M264.2,255.3v-3.7c0-1.5,0.2-2.6,0.6-3.5c0.4-0.9,1.1-1.5,2-1.8c0.6-0.2,1.1-0.3,1.5-0.1
		c0.4,0.2,0.7,0.5,0.8,0.9l0.1,0c0.2-0.7,0.5-1.3,0.9-1.8c0.4-0.4,0.9-0.8,1.6-1c1-0.4,1.7-0.3,2.3,0.3c0.6,0.5,0.8,1.4,0.8,2.7v4.2
		L264.2,255.3z M268.3,250.9V250c0-0.4-0.1-0.7-0.3-0.9c-0.2-0.2-0.4-0.2-0.8-0.1c-0.6,0.2-0.9,0.8-0.9,1.7v0.8L268.3,250.9z
		 M270.4,250.2l2.3-0.8v-1c0-0.9-0.4-1.2-1.1-0.9c-0.4,0.1-0.6,0.4-0.8,0.7c-0.2,0.3-0.3,0.7-0.3,1.2V250.2z"/>
</g>
<g class="st1">
	<path class="st16" d="M153.8,337v6.4l-10.7,3.9v-6.4l2.3-0.8v3.5l1.7-0.6v-3.2l2.3-0.8v3.2l2-0.7v-3.5L153.8,337z"/>
	<path class="st16" d="M153.8,325.5v3.4l-3.4,3.3l3.4,0.8v3.3l-5.5-1.6l-5.2,5.3v-3.2l3.3-3.1l-3.3-0.7v-3.3l5.5,1.4L153.8,325.5z"
		/>
	<path class="st16" d="M145.3,322.6c0,0.7,0.3,1.1,0.8,1.3c0.6,0.2,1.3,0.1,2.3-0.3c2.1-0.8,3.1-1.9,3.1-3.5c0-0.5-0.1-0.9-0.2-1.3
		c-0.1-0.4-0.3-0.8-0.5-1.2l2.5-0.9c0.4,0.8,0.6,1.7,0.6,2.8c0,1.6-0.5,3-1.4,4.2c-0.9,1.2-2.3,2.1-4.1,2.8
		c-1.1,0.4-2.1,0.6-2.9,0.4c-0.8-0.1-1.5-0.5-1.9-1.1c-0.5-0.6-0.7-1.5-0.7-2.5c0-1.2,0.3-2.4,0.8-3.6l2.3,0.1
		c-0.2,0.5-0.3,0.9-0.5,1.4C145.3,321.7,145.3,322.1,145.3,322.6z"/>
	<path class="st16" d="M153.8,308.1v6.4l-10.7,3.9V312l2.3-0.8v3.5l1.7-0.6v-3.2l2.3-0.8v3.2l2-0.7V309L153.8,308.1z"/>
	<path class="st16" d="M153.8,306.3l-10.7,3.9v-2.9l8.4-3.1v-4.1l2.3-0.9V306.3z"/>
	<path class="st16" d="M153.8,297.5l-10.7,3.9v-2.9l8.4-3.1v-4.1l2.3-0.9V297.5z"/>
	<path class="st16" d="M153.8,282.4v6.4l-10.7,3.9v-6.4l2.3-0.8v3.5l1.7-0.6v-3.2l2.3-0.8v3.2l2-0.7v-3.5L153.8,282.4z"/>
	<path class="st16" d="M153.8,270.3v3.8l-7.6,6.7v0.1c1.2-0.5,2.1-0.9,2.7-1.1l4.8-1.8v2.6l-10.7,3.9v-3.8l7.5-6.6v0
		c-1.1,0.5-2,0.8-2.6,1.1l-4.9,1.8v-2.6L153.8,270.3z"/>
	<path class="st16" d="M153.8,263.3v2.9l-8.4,3v2.6l-2.4,0.9v-8.1l2.4-0.9v2.6L153.8,263.3z"/>
</g>
<g class="st1">
	<path class="st17" d="M513.8,207.7l-2,1.3v3.5l2-0.2v3.2l-10.8,0.4V212l10.8-7.5V207.7z M509.4,210.4l-1.8,1.1
		c-0.4,0.3-0.9,0.6-1.5,0.9c-0.6,0.4-1.1,0.6-1.3,0.8c0.2,0,0.7-0.1,1.2-0.2c0.6-0.1,1.7-0.2,3.4-0.4V210.4z"/>
	<path class="st17" d="M513.8,203.3l-10.7,3.9v-2.9l8.4-3.1v-4.1l2.3-0.9V203.3z"/>
	<path class="st17" d="M509.8,193.1l3.9-1.4v2.9l-10.7,3.9V195c0-2.9,1.1-4.8,3.2-5.5c1.2-0.5,2.2-0.2,2.9,0.8l4.7-4.8v3.3l-3.9,3.7
		V193.1z M507.7,193.9v-0.5c0-1-0.4-1.4-1.3-1c-0.7,0.3-1.1,0.9-1.1,1.9v0.6L507.7,193.9z"/>
	<path class="st17" d="M513.8,184.4l-10.7,3.9v-2.9l10.7-3.9V184.4z"/>
	<path class="st17" d="M507.5,177.2v-4.6l5.8-2.1c0.4,1.1,0.6,2.4,0.6,3.9c0,1.7-0.5,3.1-1.4,4.4c-1,1.3-2.3,2.2-4.1,2.8
		c-1.7,0.6-3.1,0.6-4,0c-1-0.6-1.4-1.8-1.4-3.6c0-0.7,0.1-1.3,0.2-2c0.1-0.6,0.3-1.2,0.5-1.7l2.3,0.1c-0.4,0.9-0.6,1.8-0.6,2.8
		c0,0.8,0.3,1.4,0.8,1.7c0.6,0.3,1.3,0.2,2.4-0.2c1-0.4,1.8-0.9,2.3-1.5c0.5-0.6,0.8-1.3,0.8-2.1c0-0.4,0-0.8-0.1-1.1l-1.7,0.6v1.9
		L507.5,177.2z"/>
	<path class="st17" d="M513.8,158.9v2.9l-4.4,1.6v3.4l4.4-1.6v2.9L503,172v-2.9l4-1.4v-3.4l-4,1.4v-2.9L513.8,158.9z"/>
	<path class="st17" d="M513.8,151.8v2.9l-8.4,3v2.6l-2.4,0.9v-8.1l2.4-0.9v2.6L513.8,151.8z"/>
</g>
</svg>
