<?xml version="1.0" encoding="utf-8"?>
<!-- Generator: Adobe Illustrator 22.0.1, SVG Export Plug-In . SVG Version: 6.00 Build 0)  -->
<svg version="1.1" id="Слой_2" xmlns="http://www.w3.org/2000/svg" xmlns:xlink="http://www.w3.org/1999/xlink" x="0px" y="0px"
	 viewBox="0 0 105.8 95.7" style="enable-background:new 0 0 105.8 95.7;" xml:space="preserve">
<style type="text/css">
	.st0{fill:#DEDCFB;}
	.st1{fill:url(#SVGID_1_);}
	.st2{fill:#333333;}
</style>
<path id="Эллипс_2-3" class="st0" d="M17,0.4c39.2,8.5,6,52.5,49.6,53.6c31.2,0.8,51.1,16.4,31.2,32
	c-21,16.5-71.2,8.8-80.8,0.8C4.7,76.6-14.1-6.4,17,0.4z"/>
<linearGradient id="SVGID_1_" gradientUnits="userSpaceOnUse" x1="-111.1976" y1="4.7984" x2="-200.2643" y2="99.7317" gradientTransform="matrix(-1 0 0 1 -100.1416 0)">
	<stop  offset="0" style="stop-color:#4A3FD9"/>
	<stop  offset="0.1453" style="stop-color:#4A3FD9"/>
	<stop  offset="0.5683" style="stop-color:#F8FF8F"/>
</linearGradient>
<path class="st1" d="M71.5,61.3l-2.7,1.3l-0.5,2.2c-0.2,0.7-0.5,1.3-0.9,1.9c-0.6,0.7-2.8,0.4-3.5,1.1c-0.2,3.9-4.2,6.2-7.5,2.5
	c-0.7-0.7,4.5-2.8,3.1-6.5l-4-2.1c0,0-0.4-1.6-1.1-3.1c-0.5-1-4.4-1.3-4.4-1.3s-0.4-2.1-1.1-3.8c-0.4-0.9-3.6-1.6-3.6-1.6
	s-0.1-2.2-1.7-3.5c-2.8-2.4-8.1,3.5-8.1,3.5l-7.7-6.2c-4.1-3.3-2.9-12.4,0.4-16.5l2.6-2.7c3.3-4.1,12.4-2.3,15.5-0.6l8.4,7.6
	c0,0-11.7,7.9-8.8,12.1c3.6,5.1,11.9-5.9,12.5-5.3c3.3,3.3,7.4,2.2,7.4,2.2l5.2,4.2c9,6.5,6.3,9.1,2.5,10.9
	c-0.4,0.2-0.5,0.9-0.6,1.3C72.9,59.9,72.3,60.7,71.5,61.3z"/>
<g>
	<path class="st2" d="M24.4,38.5c0.2,4.1,2.2,8,5.3,10.6l4.4,3.7c0,0,0,0,0,0c-0.1,0.3-0.1,0.6-0.1,1c0,1.2,0.5,2.4,1.4,3.3
		c0.9,0.8,2,1.2,3.1,1.2c0.2,0,0.4,0,0.6-0.1c0,0.1,0,0.2,0,0.3c0,1.2,0.5,2.4,1.4,3.3c0.9,0.8,2,1.2,3.1,1.2c0.2,0,0.4,0,0.6-0.1
		c0,0.1,0,0.2,0,0.3c0,1.2,0.5,2.4,1.4,3.3c0.9,0.8,2,1.2,3.1,1.2c0.2,0,0.4,0,0.6-0.1c0,0.1,0,0.2,0,0.3c0,1.2,0.5,2.4,1.4,3.3
		c0.9,0.8,2,1.2,3.1,1.2c1.1,0,2.1-0.4,3-1.1l0.4,0.3c0.9,0.7,1.9,1.1,3,1.1c1,0,1.9-0.3,2.7-0.9c1.1-0.8,1.7-2.1,1.7-3.5
		c0-0.2,0-0.4,0-0.7c1.1,0.1,2.2-0.2,3.1-0.9c1.1-0.8,1.7-2.1,1.7-3.5c0-0.2,0-0.4,0-0.7c1.1,0.1,2.2-0.2,3.1-0.9
		c1.1-0.8,1.7-2.1,1.7-3.5c0-0.2,0-0.4,0-0.6c0.3,0,0.6,0,0.9,0c1.2-0.1,2.3-0.8,3.1-1.7c1-1.3,1.1-3,0.5-4.5l3-2.5
		c3.2-2.6,5.1-6.5,5.3-10.6c0.2-4.1-1.3-8.2-4.1-11.2c-5.4-5.6-14.2-6.1-20.1-1.1l-6.9,5.7l-6.9-5.7c-5.9-5-14.8-4.5-20.1,1.1
		C25.6,30.3,24.1,34.4,24.4,38.5z M77.1,50c0,0-0.1-0.1-0.1-0.1l-8.5-7.1c2.5-1.5,4.2-4.2,4.2-7.3h-2c0,3.6-2.9,6.5-6.4,6.5
		c-2,0-3.8-0.9-5-2.4l0,0c0,0,0,0,0,0c-0.3-0.4-1-0.5-1.4-0.2l-7.4,6c-1,0.8-2.4,0.7-3.3-0.2c-0.5-0.5-0.7-1.2-0.7-1.9
		c0-0.7,0.4-1.3,0.9-1.8l16.4-13.7c5.1-4.3,12.8-3.9,17.4,1c2.5,2.6,3.8,6.1,3.6,9.7c-0.2,3.6-1.8,6.9-4.6,9.2L77.1,50z M58.2,70.3
		L58,70.2l1.5-1.4c0.8-0.7,1.2-1.7,1.4-2.7l0.5,0.4c0.6,0.5,0.9,1.2,0.9,1.9c0,0.8-0.4,1.5-1,1.9C60.4,71.2,59.1,71.1,58.2,70.3z
		 M51.1,68.2c0-0.7,0.3-1.3,0.8-1.8l2-1.8l1-0.9c0.5-0.4,1.1-0.6,1.6-0.6c0.6,0,1.2,0.2,1.7,0.7c0.5,0.5,0.8,1.1,0.8,1.8
		c0,0.7-0.3,1.3-0.8,1.8l-2.9,2.7c-0.9,0.9-2.4,0.9-3.3,0C51.4,69.6,51.1,68.9,51.1,68.2z M46.1,63.4c0-0.7,0.3-1.3,0.8-1.8l2.9-2.7
		c0.5-0.4,1.1-0.6,1.6-0.6c0.6,0,1.2,0.2,1.7,0.7c0.5,0.5,0.8,1.1,0.8,1.8c0,0.7-0.3,1.3-0.8,1.8l0,0l-2.6,2.4c0,0,0,0,0,0l-0.4,0.3
		c-0.9,0.9-2.4,0.9-3.3,0C46.3,64.8,46,64.1,46.1,63.4z M41,58.6c0-0.7,0.3-1.3,0.8-1.8l0.8-0.7l2.1-2c0.5-0.4,1.1-0.6,1.6-0.6
		c0.6,0,1.2,0.2,1.7,0.7c0.5,0.5,0.8,1.1,0.8,1.8c0,0.7-0.3,1.3-0.8,1.8l-2.9,2.7c-0.9,0.9-2.4,0.9-3.3,0C41.3,60,41,59.3,41,58.6z
		 M36,53.8c0-0.7,0.3-1.3,0.8-1.8l2.9-2.7c0.5-0.4,1.1-0.6,1.6-0.6c0.6,0,1.2,0.2,1.7,0.7c0.5,0.5,0.8,1.1,0.8,1.8
		c0,0.7-0.3,1.3-0.8,1.8l-0.3,0.3l-2.3,2.1c0,0,0,0,0,0l-0.4,0.3c-0.9,0.9-2.4,0.9-3.3,0C36.2,55.2,36,54.5,36,53.8z M29.9,28.7
		c4.6-4.8,12.3-5.3,17.4-1l6.6,5.5L46,39.9c-1,0.8-1.5,2-1.6,3.2c-0.1,1.2,0.4,2.5,1.2,3.4c1.6,1.7,4.2,1.9,6,0.4l6.7-5.4
		c1.6,1.6,3.7,2.4,5.9,2.4c0.7,0,1.4-0.1,2.1-0.3l9.3,7.8c1.1,0.9,1.3,2.5,0.5,3.5c-0.4,0.5-1,0.9-1.7,1c-0.7,0.1-1.3-0.1-1.8-0.6
		L72.3,55c0,0,0,0,0,0l-10.6-8.9l-1.3,1.5L71,56.6l0,0c0.6,0.5,0.9,1.2,0.9,1.9c0,0.8-0.4,1.5-1,1.9c-0.9,0.7-2.2,0.6-3.1-0.1
		L67.5,60h0h0l0,0L57,51.3l-1.3,1.5l10.5,8.7l0,0l0,0c0.6,0.5,0.9,1.2,0.9,1.9c0,0.8-0.4,1.5-1,1.9c-0.9,0.7-2.2,0.6-3.1-0.1
		l-0.3-0.3c0,0,0,0,0,0l-2.1-1.8c-0.1-0.1-0.2-0.2-0.4-0.2c-0.2-0.3-0.4-0.6-0.7-0.8c-1-1-2.4-1.3-3.7-1.2c0-0.1,0-0.2,0-0.3
		c0-1.2-0.5-2.4-1.4-3.3c-1-1-2.4-1.3-3.7-1.2c0-0.1,0-0.2,0-0.3c0-1.2-0.5-2.4-1.4-3.3c-1-1-2.4-1.3-3.7-1.2c0-0.1,0-0.2,0-0.3
		c0-1.2-0.5-2.4-1.4-3.3c-1.7-1.6-4.4-1.6-6.1-0.1l-2.9,2.7c-0.2,0.1-0.3,0.3-0.4,0.5l-4-3.4c-2.8-2.3-4.4-5.6-4.6-9.2
		C26.2,34.7,27.4,31.3,29.9,28.7z"/>
</g>
</svg>
