<?xml version="1.0" encoding="utf-8"?>
<!-- Generator: Adobe Illustrator 22.0.1, SVG Export Plug-In . SVG Version: 6.00 Build 0)  -->
<svg version="1.1" id="Слой_3" xmlns="http://www.w3.org/2000/svg" xmlns:xlink="http://www.w3.org/1999/xlink" x="0px" y="0px"
	 viewBox="0 0 101 90" style="enable-background:new 0 0 101 90;" xml:space="preserve">
<style type="text/css">
	.st0{fill:#E5E3FD;}
	.st1{fill:none;stroke:#3C3C3C;stroke-width:2;stroke-linecap:round;stroke-linejoin:round;stroke-miterlimit:10;}
	.st2{fill:url(#SVGID_1_);}
</style>
<path id="Эллипс_2-3" class="st0" d="M18.1,3.1c24.6-12.4-1.8,15.4,32.1,39.5c26.8,19,58.7,6.6,48.9,31.1
	c-7.6,19.1-60.1,20.1-80.3,9.9C-3.2,72.4-9,16.8,18.1,3.1z"/>
<path class="st1" d="M60.2,43.9l18.3,19.8c-0.2,0.2-0.6,0.4-0.9,0.4H25.4c-0.4,0-0.7-0.2-0.9-0.4l18.3-19.8l8.7,7.4L60.2,43.9z"/>
<linearGradient id="SVGID_1_" gradientUnits="userSpaceOnUse" x1="45.7509" y1="55.956" x2="54.992" y2="3.59">
	<stop  offset="0" style="stop-color:#4A3FD9"/>
	<stop  offset="4.939165e-02" style="stop-color:#4A3FD9"/>
	<stop  offset="0.5683" style="stop-color:#F8FF8F"/>
</linearGradient>
<polygon class="st2" points="23.8,26.3 78.3,25.9 51.5,54.4 "/>
<path class="st1" d="M77.7,26.2H25.3c-1.1,0-2,0.9-2,2v33.9c0,1.1,0.9,2,2,2h52.4c1.1,0,2-0.9,2-2V28.2
	C79.7,27.1,78.8,26.2,77.7,26.2z"/>
</svg>
