<?xml version="1.0" encoding="utf-8"?>
<!-- Generator: Adobe Illustrator 22.0.1, SVG Export Plug-In . SVG Version: 6.00 Build 0)  -->
<svg version="1.1" id="Слой_2" xmlns="http://www.w3.org/2000/svg" xmlns:xlink="http://www.w3.org/1999/xlink" x="0px" y="0px"
	 viewBox="0 0 126.9 123.5" style="enable-background:new 0 0 126.9 123.5;" xml:space="preserve">
<style type="text/css">
	.st0{fill:#DEDCFB;}
	.st1{fill:none;stroke:#3C3C3C;stroke-width:3;stroke-linecap:round;stroke-linejoin:round;stroke-miterlimit:10;}
	.st2{fill:#3C3C3C;}
	.st3{fill:url(#SVGID_1_);}
	.st4{fill:url(#SVGID_2_);}
</style>
<path id="Эллипс_2" class="st0" d="M19,4.3C55.1-18,4.3,52.7,58,62.3c39,7,86.9,29.5,62,49c-26.3,20.6-89,10.9-101,1
	C3.7,99.6-14.8,25.3,19,4.3z"/>
<g>
	<path class="st1" d="M28.7,81c-1.6,0-2.8-1.3-2.8-2.8v-3.6c0-1.6,1.3-2.8,2.8-2.8l2.5,0V81H28.7L28.7,81z"/>
	<path class="st1" d="M94.9,81v-9.3h2.5c1.6,0,2.8,1.3,2.8,2.8v3.6c0,1.6-1.3,2.8-2.8,2.8H94.9L94.9,81z"/>
</g>
<path class="st1" d="M90.5,63h-4.1H39.7h-4.1c-2.4,0-4.4,2-4.4,4.4v26.9c0,2.4,2,4.4,4.4,4.4h54.9c2.4,0,4.4-2,4.4-4.4V67.4
	C94.9,65,92.9,63,90.5,63z"/>
<path class="st1" d="M38.2,90.9V76.7c0-0.4,0.3-0.7,0.7-0.7h48.1c0.4,0,0.7,0.3,0.7,0.7v14.1c0,0.4-0.3,0.7-0.7,0.7H39
	C38.6,91.6,38.2,91.3,38.2,90.9z"/>
<g>
	<circle class="st2" cx="46.8" cy="81.2" r="1.6"/>
	<circle class="st2" cx="55" cy="81.2" r="1.6"/>
	<circle class="st2" cx="63.1" cy="81.2" r="1.6"/>
	<circle class="st2" cx="71.3" cy="81.2" r="1.6"/>
	<circle class="st2" cx="79.5" cy="81.2" r="1.6"/>
	<circle class="st2" cx="51.1" cy="86.5" r="1.6"/>
	<circle class="st2" cx="59.3" cy="86.5" r="1.6"/>
	<circle class="st2" cx="67.5" cy="86.5" r="1.6"/>
	<circle class="st2" cx="75.7" cy="86.5" r="1.6"/>
</g>
<linearGradient id="SVGID_1_" gradientUnits="userSpaceOnUse" x1="33.8279" y1="70.0561" x2="106.4946" y2="12.0561">
	<stop  offset="0" style="stop-color:#4A3FD9"/>
	<stop  offset="4.939165e-02" style="stop-color:#4A3FD9"/>
	<stop  offset="0.5683" style="stop-color:#F8FF8F"/>
</linearGradient>
<path class="st3" d="M72.4,24.9H43c-0.9,0-1.6,0.7-1.6,1.6v40.7c0,0.6,0.5,1.1,1.1,1.1h41.2c0.6,0,1.1-0.5,1.1-1.1v-29L72.4,24.9z
	 M63,59.7c0,0-10.7-5.8-10.7-11.1c0-2.9,2.4-5.3,5.3-5.3c2.9,0,5.3,2.4,5.3,5.3c0-2.9,2.4-5.3,5.3-5.3c2.9,0,5.3,2.4,5.3,5.3
	C73.7,53.7,63,59.7,63,59.7z"/>
<linearGradient id="SVGID_2_" gradientUnits="userSpaceOnUse" x1="70.6971" y1="40.275" x2="82.6971" y2="26.9417">
	<stop  offset="0" style="stop-color:#4A3FD9"/>
	<stop  offset="4.939165e-02" style="stop-color:#4A3FD9"/>
	<stop  offset="0.5683" style="stop-color:#F8FF8F"/>
</linearGradient>
<path class="st4" d="M84.8,38.1L72.4,24.9h-0.2v12.7c0,0.4,0.3,0.7,0.7,0.7h11.8L84.8,38.1L84.8,38.1z"/>
</svg>
