<?xml version="1.0" encoding="utf-8"?>
<!-- Generator: Adobe Illustrator 22.0.1, SVG Export Plug-In . SVG Version: 6.00 Build 0)  -->
<svg version="1.1" id="Слой_3" xmlns="http://www.w3.org/2000/svg" xmlns:xlink="http://www.w3.org/1999/xlink" x="0px" y="0px"
	 viewBox="0 0 97 88" style="enable-background:new 0 0 97 88;" xml:space="preserve">
<style type="text/css">
	.st0{fill:#E5E3FD;}
	.st1{fill:#3C3C3C;}
	.st2{fill:none;stroke:#3C3C3C;stroke-width:2;stroke-linecap:round;stroke-linejoin:round;stroke-miterlimit:10;}
	.st3{fill:url(#SVGID_1_);}
</style>
<path id="Эллипс_2" class="st0" d="M15.6,0.4c36,7.8,5.5,48.2,45.5,49.3C89.7,50.4,108,64.7,89.7,79
	c-19.3,15.1-65.3,8.1-74.1,0.7C4.3,70.4-13-5.8,15.6,0.4z"/>
<path class="st1" d="M25.1,58.9L25.1,58.9c-1.1,0-2-0.9-2-2c0-1,0.7-1.8,1.7-2c0.1,0,0.2,0,0.3,0c0.4,0,0.7-0.4,0.7-0.8
	s-0.3-0.7-0.7-0.7c-0.1,0-0.2,0-0.3,0c-1-0.2-1.7-1-1.7-2c0-1,0.7-1.8,1.7-2c0.1,0,0.2,0,0.3,0c0.4,0,0.7-0.4,0.7-0.8
	c0-0.4-0.3-0.7-0.7-0.7c-0.1,0-0.2,0-0.3,0c-1-0.2-1.7-1-1.7-2c0-1,0.7-1.8,1.7-2c0.1,0,0.2,0,0.3,0c0.4,0,0.7-0.4,0.7-0.8
	c0-0.4-0.3-0.7-0.7-0.7c-0.1,0-0.2,0-0.3,0c-1-0.2-1.7-1-1.7-2c0-1,0.7-1.8,1.7-2c0.1,0,0.2,0,0.3,0c0.4,0,0.7-0.4,0.7-0.8
	c0-0.4-0.3-0.7-0.7-0.7c-0.1,0-0.2,0-0.3,0c-1-0.2-1.7-1-1.7-2c0-1.1,0.9-2,2-2c0.4,0,0.7-0.3,0.7-0.7c0-0.4-0.3-0.7-0.7-0.7
	c-1.9,0-3.5,1.6-3.5,3.5c0,1.1,0.5,2.1,1.3,2.7c-0.8,0.6-1.3,1.6-1.3,2.7c0,1.1,0.5,2.1,1.3,2.7c-0.8,0.6-1.3,1.6-1.3,2.7
	c0,1.1,0.5,2.1,1.3,2.7c-0.8,0.6-1.3,1.6-1.3,2.7s0.5,2.1,1.3,2.7c-0.8,0.6-1.3,1.6-1.3,2.7c0,1.9,1.6,3.5,3.5,3.5h1v-1.5L25.1,58.9
	L25.1,58.9z"/>
<path class="st2" d="M74.4,58.7v4.8c0,0.9-0.8,1.7-1.7,1.7H27.8c-0.9,0-1.7-0.8-1.7-1.7v-4.8c0-5.5,1.8-10.8,5-15.1l6.7-8.9h0v-5.1
	c0-0.5,0.4-0.8,0.8-0.8h6.7c0.5,0,0.8,0.4,0.8,0.8v4.2c0,0.5,0.4,0.8,0.8,0.8h9.4c0.5,0,0.8-0.4,0.8-0.8v-4.2c0-0.5,0.4-0.8,0.8-0.8
	h3.7c0.5,0,0.8,0.4,0.8,0.8v5.1h0l6.7,8.9C72.6,47.9,74.4,53.2,74.4,58.7z"/>
<linearGradient id="SVGID_1_" gradientUnits="userSpaceOnUse" x1="43.0298" y1="60.5121" x2="67.8082" y2="30.1236">
	<stop  offset="0" style="stop-color:#4A3FD9"/>
	<stop  offset="4.939165e-02" style="stop-color:#4A3FD9"/>
	<stop  offset="0.5683" style="stop-color:#F8FF8F"/>
</linearGradient>
<circle class="st3" cx="51.7" cy="49.8" r="10.9"/>
<path class="st2" d="M75.6,20.5c-4.2-3.2-9-5-13.7-5.6c-4.4-0.6-23.7,1.9-27.9,3.6c-4.5,1.8-8.6,4.7-11.9,8.9
	c-0.7,0.8-0.5,2.1,0.3,2.8l2.8,2.4l1.2,1.1c0.7,0.6,1.8,0.5,2.4-0.2c1.6-1.9,3.4-3.5,5.4-4.7c0.6-0.4,0.9-1.1,0.8-1.9l-0.2-1.6
	c-0.1-0.5,0.2-0.9,0.6-1c4.2-1.7,22-3.9,26.5-3.4c0.4,0,0.7,0.4,0.8,0.8l0.2,1.6c0.1,0.8,0.6,1.4,1.3,1.6c2.2,0.6,4.4,1.7,6.4,3.2
	c0.8,0.6,1.8,0.4,2.3-0.4l0.9-1.3l2.1-3C76.6,22.4,76.4,21.1,75.6,20.5z"/>
</svg>
