<?xml version="1.0" encoding="utf-8"?>
<!-- Generator: Adobe Illustrator 22.0.1, SVG Export Plug-In . SVG Version: 6.00 Build 0)  -->
<svg version="1.1" id="Слой_3" xmlns="http://www.w3.org/2000/svg" xmlns:xlink="http://www.w3.org/1999/xlink" x="0px" y="0px"
	 viewBox="0 0 105.7 94.8" style="enable-background:new 0 0 105.7 94.8;" xml:space="preserve">
<style type="text/css">
	.st0{fill:#DEDCFB;}
	.st1{fill:url(#SVGID_1_);}
	.st2{fill:url(#SVGID_2_);}
	.st3{fill:#3C3C3C;}
</style>
<path id="Эллипс_2-4" class="st0" d="M19,3.2c25.7-13.1-1.9,16.2,33.6,41.6c28,20,61.4,7,51.2,32.8c-8,20.2-62.9,21.2-84,10.4
	C-3.3,76.2-9.4,17.7,19,3.2z"/>
<g>
	<linearGradient id="SVGID_1_" gradientUnits="userSpaceOnUse" x1="42.2851" y1="62.0288" x2="47.5178" y2="6.3526">
		<stop  offset="0" style="stop-color:#4A3FD9"/>
		<stop  offset="4.939165e-02" style="stop-color:#4A3FD9"/>
		<stop  offset="0.5683" style="stop-color:#F8FF8F"/>
	</linearGradient>
	<path class="st1" d="M38.1,51.6c0.9,0.4,1.9,0.6,3,0.6h2.5c1.1,0,2,0.9,2,2c0,2.2,1.8,4,4,4c2.2,0,4-1.8,4-4v-2.8
		c0-2-0.9-3.9-2.5-5.2c-1.6-1.3-2.5-3.2-2.5-5.2v-7.8c0-1.3-0.4-2.6-1.1-3.7l-2.9-4.3l-0.2-0.5C37.9,28.8,33.6,36,33.6,44.2
		c0,2,0.3,4,0.8,5.9l0.2,0.1L38.1,51.6z"/>
	<linearGradient id="SVGID_2_" gradientUnits="userSpaceOnUse" x1="66.0161" y1="64.2591" x2="71.2488" y2="8.5829">
		<stop  offset="0" style="stop-color:#4A3FD9"/>
		<stop  offset="4.939165e-02" style="stop-color:#4A3FD9"/>
		<stop  offset="0.5683" style="stop-color:#F8FF8F"/>
	</linearGradient>
	<path class="st2" d="M79.4,44.2c0-10.2-6.7-18.9-16-21.9l-5.1,6.8c-0.5,0.7-0.8,1.5-0.8,2.4v8.6c0,2.2,1.8,4,4,4h8c1.1,0,2-0.9,2-2
		c0-1.1,0.9-2,2-2c1.1,0,2,0.9,2,2v5.1c0,0.6-0.3,1.1-0.7,1.5l-5.6,4.8c-0.4,0.4-0.7,0.9-0.7,1.5v8.7C75,59.7,79.4,52.5,79.4,44.2z"
		/>
	<path class="st3" d="M56.5,20.3c-13.2,0-23.9,10.7-23.9,23.9s10.7,23.9,23.9,23.9s23.9-10.7,23.9-23.9S69.7,20.3,56.5,20.3z
		 M56.5,66.1c-12.1,0-21.9-9.8-21.9-21.9s9.8-21.9,21.9-21.9s21.9,9.8,21.9,21.9S68.6,66.1,56.5,66.1z"/>
	<path class="st3" d="M83.2,28.7l-1.7,1c2.5,4.4,3.9,9.4,3.9,14.5c0,15.9-13,28.9-28.9,28.9s-28.9-13-28.9-28.9s13-28.9,28.9-28.9
		c4.5,0,9,1.1,13.1,3.1c-0.1,0.3-0.1,0.6-0.1,0.9c0,2.2,1.8,4,4,4s4-1.8,4-4s-1.8-4-4-4c-1.2,0-2.2,0.5-3,1.4
		c-4.3-2.2-9.1-3.3-14-3.3c-17,0-30.9,13.9-30.9,30.9s13.9,30.9,30.9,30.9s30.9-13.9,30.9-30.9C87.4,38.8,86,33.4,83.2,28.7z
		 M73.4,17.3c1.1,0,2,0.9,2,2c0,1.1-0.9,2-2,2s-2-0.9-2-2C71.4,18.2,72.3,17.3,73.4,17.3z"/>
</g>
</svg>
