<?xml version="1.0" encoding="utf-8"?>
<!-- Generator: Adobe Illustrator 22.0.1, SVG Export Plug-In . SVG Version: 6.00 Build 0)  -->
<svg version="1.1" id="Слой_3" xmlns="http://www.w3.org/2000/svg" xmlns:xlink="http://www.w3.org/1999/xlink" x="0px" y="0px"
	 viewBox="0 0 132.2 119.7" style="enable-background:new 0 0 132.2 119.7;" xml:space="preserve">
<style type="text/css">
	.st0{fill:#DEDCFB;}
	.st1{fill:url(#SVGID_1_);}
	.st2{fill:none;stroke:#3C3C3C;stroke-width:3;stroke-linecap:round;stroke-linejoin:round;stroke-miterlimit:10;}
</style>
<path id="Эллипс_2-2" class="st0" d="M21.2,0.5c49,10.6,7.5,65.6,62,67c39,1,63.9,20.5,39,40c-26.3,20.6-89,10.9-101,1
	C5.9,95.7-17.7-8,21.2,0.5z"/>
<linearGradient id="SVGID_1_" gradientUnits="userSpaceOnUse" x1="80.9045" y1="64.475" x2="102.0152" y2="-4.8113">
	<stop  offset="0" style="stop-color:#4A3FD9"/>
	<stop  offset="4.939165e-02" style="stop-color:#4A3FD9"/>
	<stop  offset="0.5683" style="stop-color:#F8FF8F"/>
</linearGradient>
<path class="st1" d="M106.2,48.5c-0.9-0.9-1.9-1.2-3.1-1.2l10-10l-22-22c-1-1-2.6-1-3.7,0.1L65.2,37.7l9.9,9.9
	c0-1.2,0.4-2.2,1.2-3.1c1.9-1.9,5.1-1.7,6.6,0.8c0.8,1.4,0.8,3.2-0.1,4.5c-0.9,1.3-2.2,1.9-3.6,1.9l9.9,9.9l10-10
	c-0.1,1.4,0.6,2.7,1.9,3.6c1.4,0.9,3.1,0.9,4.5,0.1C107.8,53.6,108.1,50.4,106.2,48.5z"/>
<path class="st2" d="M68.3,76.6c1.3,0.9,1.9,2.3,1.9,3.6l10-10l-9.9-9.9c1.4,0.1,2.7-0.6,3.6-1.9c0.9-1.4,1-3.2,0.1-4.5
	c-1.5-2.4-4.7-2.7-6.6-0.8c-0.9,0.9-1.3,2-1.2,3.1l-9.8-9.8L34.1,68.7c-1,1-1.1,2.7-0.1,3.7l22,22l10-10C65,84.4,63.9,84,63,83.1
	c-1.9-1.9-1.6-5,0.8-6.6C65.2,75.7,67,75.7,68.3,76.6z"/>
</svg>
