<?xml version="1.0" encoding="utf-8"?>
<!-- Generator: Adobe Illustrator 22.0.1, SVG Export Plug-In . SVG Version: 6.00 Build 0)  -->
<svg version="1.1" id="Слой_3" xmlns="http://www.w3.org/2000/svg" xmlns:xlink="http://www.w3.org/1999/xlink" x="0px" y="0px"
	 viewBox="0 0 330 247" style="enable-background:new 0 0 330 247;" xml:space="preserve">
<style type="text/css">
	.st0{opacity:0.3;fill:none;stroke:#FFFFFF;stroke-width:3;enable-background:new    ;}
	.st1{fill:url(#SVGID_1_);}
	.st2{fill:#F2F6F8;}
	.st3{fill:#7C7FA5;}
	.st4{fill:#226D6D;}
	.st5{fill:#2F918E;}
	.st6{fill:#E8EAEF;}
	.st7{fill:#E2E0DC;}
	.st8{fill:#918F8A;}
	.st9{fill:#B5B4AC;}
	.st10{fill:#C0904D;}
	.st11{fill:#E1E4EA;}
	.st12{fill:#DEDFE0;}
	.st13{fill:#DADDE5;}
	.st14{fill:#BFC0C9;}
	.st15{fill:#999999;}
	.st16{fill:#A08170;}
	.st17{fill:#A58777;}
	.st18{fill:#BC9D8E;}
	.st19{fill:#E8CABA;}
	.st20{fill:#B59888;}
	.st21{fill:#E8C7B5;}
	.st22{opacity:0.3;fill:#FFFFFF;}
	.st23{opacity:0.4;fill:#4FA0CA;}
	.st24{fill:#40B9BF;}
	.st25{fill:#2E2EBF;}
	.st26{opacity:0.8;fill:#227061;}
	.st27{fill:#FFFFFF;}
	.st28{fill:#333333;}
	.st29{fill:#B3B3B3;}
	.st30{fill:#1A1A1A;}
	.st31{fill:#33383C;}
	.st32{opacity:0.5;fill:#FFFFFF;}
</style>
<path class="st0" d="M183.8,93.9c-31.4,39.6-102,8-108.3,50.6c-6.3,43,20.3,59.1,88.5,62.7c17.9,1,39.9-3.2,54-11
	c25.5-14,39-25.8,41.9-47.2c0.8-11.9,2-38.8-8.5-54.3C238.4,75.6,202.7,70,183.8,93.9z"/>
<path class="st0" d="M183.4,68.8C143,123.6,52.1,79.8,44,138.8c-8.1,59.4,26.1,81.6,113.9,86.6c23.1,1.3,51.4-4.5,69.6-15.1
	c32.8-19.3,50.1-35.6,53.9-65.3c1.1-16.5,2.6-53.6-10.9-74.9C253.7,43.5,207.8,35.9,183.4,68.8z"/>
<path class="st0" d="M193.7,31.3c-55.3,74.8-179.5,15-190.6,95.6C-8,208,38.8,238.4,158.8,245.2c31.5,1.8,70.3-6.1,95.1-20.7
	c44.8-26.4,68.6-48.7,73.7-89.1c1.5-22.6,3.6-73.2-15-102.4C289.7-3.2,226.9-13.7,193.7,31.3z"/>
<linearGradient id="SVGID_1_" gradientUnits="userSpaceOnUse" x1="102.1341" y1="206.246" x2="209.946" y2="121.3954">
	<stop  offset="0.4522" style="stop-color:#645AEA"/>
	<stop  offset="1" style="stop-color:#F9FDB8"/>
</linearGradient>
<path class="st1" d="M188.5,117.5c-19.3,24.2-51.5,3.5-66.4,30.9c-3.9,8.9-9.3,33.2,32.5,35.4c31.7,0.7,72.6-21.5,74.4-34.6
	c0-45.9,8.8-55.8-11-65C186.4,66.2,214.6,96.9,188.5,117.5z"/>
<g>
	<g>
		<polygon class="st2" points="117.6,157.2 169.6,151.3 187.1,173.5 139,184.2 		"/>
	</g>
	<g>
		<polygon class="st3" points="139.1,184.2 187,173.4 169.7,151.3 171.1,152.5 188.4,174.6 140.5,185.4 		"/>
	</g>
</g>
<polygon class="st4" points="227,138.4 233.1,137.3 232.9,128.5 225.4,129.9 "/>
<polygon class="st4" points="231.5,114.1 231.1,111.5 222.4,113 223.9,121.3 232.5,119.8 "/>
<polygon class="st5" points="223.9,121.3 225.4,129.9 232.9,128.5 232.5,119.8 "/>
<rect x="218.3" y="130.5" transform="matrix(0.9846 -0.1749 0.1749 0.9846 -20.1498 41.0152)" class="st5" width="8.7" height="8.7"/>
<g>
	<g>
		<path class="st6" d="M202.8,74.7L202.8,74.7l-2.5,1.3v60.5l3.3,1.9l0.9-0.6V82.3l23,13.3V152l3.3,1.9v0l0.2-0.1v0l2.2-1.2
			l0.1-60.3L202.8,74.7z"/>
		<g>
			<path class="st7" d="M202.8,74.6L202.8,74.6l-2,1.1l30.6,17.7l2-1.2L202.8,74.6z"/>
			<path class="st8" d="M204.5,82.3l-0.9-0.5l0,56.6l0.9-0.6V82.3z"/>
			<path class="st9" d="M230.9,153.9l0.2-0.1v0l0.2-0.1l-0.2-0.1 M231.1,93.5l0.3-0.1v60.2l1.9-1.1l0.1-60.3h0l-2,1.2L231.1,93.5
				l-0.2,0.2"/>
			<path class="st10" d="M202.4,79.5c-0.1,0-0.1,0-0.2,0.1c0,0,0,0.1,0,0.2v57.6l-0.7-0.4l0,0V78l28.2,16.3V153l-0.7-0.4V94.9
				c0,0,0,0,0-0.1c0,0,0,0-0.1-0.1l-26.3-15.1l0,0C202.5,79.5,202.5,79.5,202.4,79.5z"/>
			<path class="st9" d="M228.9,94.7C228.9,94.7,228.9,94.7,228.9,94.7c0.1,0.2,0.1,0.2,0.1,0.2v57.7l0.7,0.4V94.3L201.5,78v58.8l0,0
				l0.7,0.4V79.7c0,0,0-0.1,0-0.2c0.1,0,0.1-0.1,0.2-0.1c0,0,0.1,0,0.1,0l0,0"/>
		</g>
	</g>
	<path class="st9" d="M203.7,82.3l-2.1-1.2l-23,13.3V150l2.1,1.2l23-13.3V82.3L203.7,82.3z M183.1,118.6L183.1,118.6L183.1,118.6
		L183.1,118.6L183.1,118.6z M194.4,112.1L194.4,112.1L194.4,112.1L194.4,112.1L194.4,112.1z M194.4,141L194.4,141L194.4,141
		L194.4,141L194.4,141L194.4,141z M183.1,147.4L183.1,147.4L183.1,147.4L183.1,147.4L183.1,147.4z"/>
	<path class="st11" d="M203.7,82.3l-2.1-1.2l-23,13.3l2.1,1.2L203.7,82.3z"/>
	<path class="st12" d="M180.7,95.6l-2.1-1.2V150l2.1,1.2V95.6z"/>
	<path class="st9" d="M201.5,86.5L201.5,86.5l0,22l0,0l-7.7,4.4V90.9L201.5,86.5z M190.2,93L190.2,93l0,22l0,0l-7.7,4.4v-22
		L190.2,93z M201.5,115.3L201.5,115.3l0,22.1l0,0l-7.7,4.4v-22.1L201.5,115.3z M190.2,121.8L190.2,121.8l0,22.1l0,0l-7.7,4.4v-22.1
		L190.2,121.8z"/>
	<path class="st8" d="M201.5,86.5L201.5,86.5l-7.7,4.4l0.5,0.3l6.7-3.9h0v21l0,0l0.5,0.3V86.5z"/>
	<path class="st13" d="M201,87.3L201,87.3l-6.7,3.9l0.7,0.4l5.7-3.3V108l0.3,0.2l0,0V87.3z"/>
	<path class="st8" d="M195,91.6l-0.7-0.4v21l0,0v0l6.7-3.9l-0.3-0.2l-0.1,0l-5.6,3.3V91.7V91.6z"/>
	<path class="st13" d="M194.3,91.2l-0.5-0.3V113l7.7-4.4l0,0l-0.5-0.3l-6.7,3.9l0,0h0V91.2z"/>
	<path class="st8" d="M190.3,92.9L190.3,92.9l-7.7,4.5l0.5,0.2l6.7-3.8h0v21l0,0l0.5,0.2V92.9z"/>
	<path class="st13" d="M189.8,93.8L189.8,93.8l-6.7,3.8l0.7,0.4l5.7-3.3v19.8l0.3,0.3l0,0V93.8z"/>
	<path class="st13" d="M183.1,97.7l-0.5-0.2v22l7.7-4.4l0,0l-0.5-0.2l-6.7,3.8l0,0h0V97.7z"/>
	<path class="st8" d="M183.8,98.3v-0.2l-0.7-0.4v21h0l0,0l6.7-3.8l-0.3-0.3l-0.1,0.1l-5.6,3.2V98.3z"/>
	<path class="st8" d="M201.5,115.3L201.5,115.3l-7.7,4.4l0.5,0.3l6.7-3.8l0,0v21l0,0l0.5,0.3V115.3z"/>
	<path class="st8" d="M195,120.6v-0.2l-0.7-0.4v21h0v0l6.7-3.9l-0.3-0.3l-0.1,0.1l-5.6,3.3V120.6z"/>
	<path class="st13" d="M194.3,120l0.7,0.4l5.7-3.3v19.8l0.3,0.3l0,0v-21l0,0L194.3,120z"/>
	<path class="st13" d="M194.3,120l-0.5-0.3v22.1l7.7-4.4l0,0l-0.5-0.3l-6.7,3.9l0,0h0v0V120z"/>
	<path class="st8" d="M183.8,127.1v-0.2l-0.7-0.4v21l0,0l0,0l6.7-3.8l-0.3-0.2l-0.1,0l-5.6,3.3V127.1z"/>
	<path class="st13" d="M183.1,126.5l0.7,0.4l5.7-3.3v19.8l0.3,0.2l0,0v-21h0L183.1,126.5z"/>
	<path class="st13" d="M183.1,126.5l-0.5-0.3v22.1l7.7-4.4l0,0l-0.5-0.3l-6.7,3.8v0h0V126.5z"/>
	<path class="st8" d="M182.6,126.2l0.5,0.3l6.7-3.9h0v21l0,0l0.5,0.3v-22.1h0L182.6,126.2z"/>
	<g>
		<path class="st13" d="M184.9,118.7l0.2,0.2l-2.4,1.4l-0.2-0.2l0,0L184.9,118.7z"/>
		<path class="st14" d="M182.7,120.3v5.5l-0.2-0.1v-5.5l0,0L182.7,120.3z"/>
		<path class="st2" d="M182.7,125.8v-5.5l2.4-1.4l0,5.5L182.7,125.8z"/>
	</g>
	<g>
		<path class="st13" d="M184.3,121.3L184.3,121.3c0.1,0,0.2,0,0.3,0c0.1,0,0.2,0,0.4,0c0.1,0,0.2-0.1,0.3-0.1h0
			c0.2-0.1,0.4-0.1,0.6-0.1c0.4,0,0.8,0.2,1.2,0.5c0.3,0.3,0.5,0.7,0.5,1.2c0,0.5-0.2,0.9-0.5,1.2c-0.1,0.1-0.2,0.1-0.2,0.2l0,0
			c-0.3,0.2-0.6,0.3-0.9,0.3c-0.5,0-0.9-0.2-1.2-0.5c-0.3-0.3-0.4-0.6-0.5-0.9c-0.1,0-0.2-0.1-0.2-0.2v0c-0.2-0.2-0.3-0.4-0.3-0.6
			c0-0.3,0.1-0.5,0.3-0.7C184.1,121.4,184.3,121.3,184.3,121.3z"/>
		<g>
			<path class="st2" d="M184.1,121.6c0.1-0.1,0.2-0.2,0.3-0.2c0.1,0,0.2,0,0.3,0c0.1,0,0.3,0,0.4,0.1c0.1,0,0.2-0.1,0.4-0.2
				c0.2,0,0.4,0,0.5,0c0.4,0,0.8,0.1,1.1,0.4c0.3,0.3,0.4,0.7,0.4,1.1s-0.2,0.8-0.4,1.1c-0.1,0.1-0.2,0.1-0.3,0.2
				c-0.2,0.2-0.5,0.2-0.8,0.2c-0.4,0-0.8-0.1-1.1-0.4c-0.3-0.2-0.4-0.6-0.5-0.9c-0.1-0.1-0.2-0.1-0.3-0.2c-0.2-0.2-0.2-0.3-0.2-0.6
				C183.9,121.9,183.9,121.7,184.1,121.6z"/>
			<g>
				<path class="st13" d="M184.1,121.6c0.1-0.1,0.2-0.2,0.3-0.2c0,0-0.1,0.1-0.1,0.1c-0.2,0.1-0.2,0.3-0.2,0.5c0,0.3,0,0.4,0.2,0.6
					c0,0,0.1,0.1,0.1,0.1l0,0c0-0.4,0.2-0.8,0.5-1.1c0,0,0.1-0.1,0.2-0.2c0.1,0,0.2-0.1,0.4-0.2c-0.1,0.1-0.2,0.2-0.2,0.2
					c0,0,0,0.1-0.1,0.1c-0.2,0.3-0.4,0.6-0.4,1c0,0.1,0,0.2,0.1,0.3c0,0,0,0.1,0,0.1c0.1,0.3,0.2,0.5,0.4,0.7
					c0.3,0.3,0.7,0.5,1.1,0.5c0.2,0,0.4-0.1,0.5-0.1c-0.2,0.2-0.5,0.2-0.8,0.2c-0.4,0-0.8-0.1-1.1-0.4c-0.3-0.2-0.4-0.6-0.5-0.9
					c-0.1-0.1-0.2-0.1-0.3-0.2c-0.2-0.2-0.2-0.3-0.2-0.6C183.9,121.9,183.9,121.7,184.1,121.6z"/>
				<path class="st14" d="M184.3,121.5c0,0,0.1-0.1,0.1-0.1c0.1,0,0.2,0,0.3,0c0.1,0,0.3,0,0.4,0.1c-0.1,0.1-0.2,0.1-0.2,0.2
					c-0.3,0.3-0.5,0.7-0.5,1.1l0,0c0,0-0.1-0.1-0.1-0.1c-0.2-0.1-0.2-0.3-0.2-0.6C184,121.8,184.1,121.6,184.3,121.5z"/>
			</g>
		</g>
	</g>
	<g>
		<g>
			<g>
				<path class="st14" d="M203.9,90.8l-0.4,0.3v1.6l0.4-0.2V90.8z"/>
				<path class="st15" d="M203.9,92.7v-0.3l-0.4,0.2v0.2L203.9,92.7z"/>
				<path class="st14" d="M203.9,92.7l-0.4,0.2v1.6l0.4-0.2"/>
			</g>
		</g>
	</g>
	<g>
		<g>
			<g>
				<path class="st14" d="M203.9,128.5l-0.4,0.3v1.6l0.4-0.2V128.5z"/>
				<path class="st14" d="M203.9,130.3l-0.4,0.2v1.6l0.4-0.2V130.3z"/>
				<path class="st15" d="M203.4,130.5l0.4-0.2v-0.3l-0.4,0.2V130.5z"/>
			</g>
		</g>
	</g>
</g>
<g>
	<g>
		<g>
			<path class="st16" d="M178.2,123l-0.7,6.1l0,0l-0.4,3.6l-6.6,6.7l4.8,3.5c4.3,2.6,3.1,6.7,3.1,6.7l-1.1-0.6l-9.2-5.1
				c-7.6-4.2-5.5-4.8-5.5-4.8l9.6-17.3L178.2,123z"/>
			<path class="st17" d="M169.8,124.6l0.1,4.9l0.1,3.4l0,1.5l-6.5,6.5l6.1,3.9c1,0.4,1.7,1,2.2,1.5c2.1,2.1,1.6,4.7,1.6,4.7
				l-0.5-0.2l-10.5-4.2c-8-3.2-6-4-6-4l7.3-18.3L169.8,124.6z"/>
			<path class="st18" d="M167.7,123l1.2,3.3l0.2,0.5l1.1,3.2l0.2,0.6l-5.4,5.3l-4.9,3.7c6.1,8.5,4.8,13.1,3.4,14.5c0,0,0,0,0,0
				c-0.1,0.1-0.2,0.2-0.2,0.2c-0.2,0.2-0.4,0.3-0.6,0.4c0,0,0,0,0,0c-0.3,0.2-0.6,0.2-0.6,0.2l-10.2-14.3l10.5-12.9L167.7,123z"/>
			<path class="st19" d="M158.7,121.2L158.7,121.2l-3.9,11.5c0,0,0,0,0,0c0,0.1,0,0.7-0.2,1.9l0,0c-0.1,0.6-0.2,1.2-0.3,2
				c-0.2,1.4-0.5,3.2-1,5.3c-0.3,1.4-0.7,3-1.2,4.6l0,0c-0.1,0.2-0.1,0.4-0.2,0.7c-0.4,0.9-0.9,1.6-1.4,2.1c-0.9,1-1.8,1.6-2.5,1.9
				c-0.2,0.1-0.4,0.2-0.6,0.2c-0.4,0.1-0.8,0.2-1.1,0.3c-0.4,0.1-0.6,0-0.6,0l0-0.4l0.3-4.3l0.1-1.4l0,0l1-15.6
				c0.1-0.9,0.6-1.8,1.4-2.3l0.8-0.5l4-2.6l0.1-0.1L158.7,121.2z"/>
			<path class="st19" d="M216.5,137.5l-18.9,3.8l-0.1,0l-5.9,1.2c-11.3,7.4-20.8,5.2-20.8,5.2l-15,4.2l-0.2,0.1l-2.5,0.7l-2.7,0.7
				l-0.4,0.1c0,0-0.2-1.9,0.5-4c0,0,0,0,0,0c0-0.1,0.1-0.2,0.1-0.4c0,0,0,0,0,0c0,0,0,0,0,0c0-0.1,0.1-0.2,0.1-0.3
				c0.5-1.3,1.4-2.6,3-3.5c0.2-0.1,7.8-3.1,12.8-6.3c1.9-1.2,2.5-3.5,1.7-5.4c-0.2-0.6-0.6-1.1-1.1-1.6l-2.9-2.8c0,0-0.1,0-0.3,0.1
				c-0.7,0.2-2.9,1-9.2,3.3l-5.6-5.5l16.7-10.6c0.9-0.6,1.9-0.7,3-0.5l20.7,5.4l21.7-4.4L216.5,137.5z"/>
			<path class="st20" d="M197.7,139.1l0.6,2.3l-0.3-0.2l-6.4,1.3c-11.3,7.4-20.8,5.2-20.8,5.2l-15,4.2l-0.2,0.1l-2.5,0.7l-0.4-1.3
				l-0.1-0.6c0,0,11.1-2,19.1-5.9c0.6-0.3,1.3-0.4,2-0.2c2.7,0.7,10.5,1.9,17.6-4L197.7,139.1z"/>
		</g>
		<g>
			<path class="st21" d="M154.5,148.8c0.3-0.1,0.6,0.2,0.7,0.5l0.4,2.2l0.1,0.5l-5.1,1.4c0-0.2,0-0.3,0-0.5c0,0,0,0,0,0
				c0-0.1,0-0.2,0-0.3C150.7,149.8,153.3,149,154.5,148.8z"/>
			<path class="st21" d="M162,154.1c-0.1,0.1-0.2,0.2-0.3,0.3l-2.4-3.4l0.5-0.1l1.5-0.4C161.1,150.4,163.3,152.8,162,154.1z"/>
			<path class="st21" d="M173,150.2c0,0.3-0.1,0.5-0.1,0.5l-4.3-1.7l0.2-0.5l0.1-0.3l2.1-0.6C172.7,148.3,173,149.5,173,150.2z"/>
			<path class="st21" d="M178.2,147.7c0,0.4,0,0.9,0,1.3c0,0.3,0,0.5,0,0.5l0,0l-2.7-1.5l0.2,0L178.2,147.7z"/>
			<path class="st22" d="M155.6,151.4l0.1,0.5l-5.1,1.4c0-0.2,0-0.3,0-0.5c0,0,0,0,0,0L155.6,151.4z"/>
			<polygon class="st22" points="162,154.1 161.6,154.4 159.2,150.9 159.7,150.8 162,154.1 			"/>
			<path class="st22" d="M173,150.2c0,0.3-0.1,0.5-0.1,0.5l-4.3-1.7l0.2-0.5L173,150.2z"/>
			<polygon class="st22" points="178.3,149 178.2,149.5 175.5,148 175.7,147.9 176.4,147.9 			"/>
			<g>
				<path class="st21" d="M147.7,145.6c0.3,0,0.6,0.2,0.6,0.5c0.2,1.2,0.3,4.2-2,5.1c-0.2,0.1-0.4,0.1-0.6,0.2l0.3-4.3l0.1-1.4
					l0.6,0l0,0L147.7,145.6z"/>
				<path class="st22" d="M146.8,145.7l-0.4,5.5c-0.2,0.1-0.4,0.1-0.6,0.2l0.3-4.3l0.1-1.4l0,0L146.8,145.7L146.8,145.7z"/>
			</g>
		</g>
		<polygon class="st4" points="207.1,115.7 208.5,115.5 210,123.8 216,122.7 214.6,114.4 222.4,113 222.4,113 207.1,115.7 		"/>
		
			<rect x="212.2" y="131.8" transform="matrix(0.9846 -0.1749 0.1749 0.9846 -20.4889 39.7552)" class="st4" width="6.1" height="8.7"/>
		
			<rect x="210.7" y="123.2" transform="matrix(0.9846 -0.1749 0.1749 0.9846 -19.0149 39.3586)" class="st5" width="6.1" height="8.7"/>
		<polygon class="st5" points="223.6,115.6 222.4,113 214.6,114.4 216,122.7 224.6,121.2 		"/>
		
			<rect x="216.7" y="121.9" transform="matrix(0.9846 -0.1749 0.1749 0.9846 -18.6751 40.617)" class="st23" width="8.7" height="8.7"/>
		
			<rect x="216.7" y="121.9" transform="matrix(0.9846 -0.1749 0.1749 0.9846 -18.6751 40.617)" class="st24" width="8.7" height="8.7"/>
		<g>
			<g>
				<polygon class="st25" points="208.4,122.8 208.6,124.1 210,123.8 208.5,115.5 207.1,115.7 208.4,122.8 				"/>
				
					<rect x="210.9" y="132.4" transform="matrix(0.9846 -0.1749 0.1749 0.9846 -20.662 39.1142)" class="st25" width="1.4" height="8.7"/>
				<polygon class="st25" points="209.2,127.7 210.1,132.6 211.5,132.4 210,123.8 208.6,124.1 				"/>
			</g>
			<polygon class="st23" points="209.2,127.7 210.1,132.6 211.5,132.4 210,123.8 208.6,124.1 			"/>
			<polygon class="st26" points="207.1,115.7 208.4,122.8 208.6,124.1 209.2,127.7 210.1,132.6 211.6,141.2 213,140.9 211.5,132.4 
				210,123.8 208.5,115.5 			"/>
		</g>
		<polygon class="st4" points="201.7,124 199.8,113.2 193.2,114.4 195.2,125.9 195.1,125.2 		"/>
		<path class="st4" d="M205.1,143.1c-1.3,0.2-2.6-0.6-2.8-2c-0.2-1.3,0.6-2.6,2-2.8l0,0l-0.6-3.1l-6.6,1.2l2,11.1l6.6-1.2
			L205.1,143.1L205.1,143.1z"/>
		<polygon class="st5" points="201.7,124 195.1,125.2 195.2,125.9 197,136.3 203.7,135.1 		"/>
		<polygon class="st25" points="211.6,141.2 210.3,133.9 209.2,134.1 210.4,141.4 211.6,141.2 211.6,141.2 		"/>
		<path class="st5" d="M210.3,133.9l-1.2,0.2l-5.5,1l0.6,3.1c1.3-0.2,2.6,0.6,2.8,2c0.2,1.3-0.6,2.6-2,2.8l0.6,3.1l6.7-1.2l-0.7-3.8
			l0,0L210.3,133.9z"/>
		
			<rect x="206.5" y="115.8" transform="matrix(0.9846 -0.1749 0.1749 0.9846 -17.6852 38.066)" class="st25" width="1.2" height="7.2"/>
		<polygon class="st5" points="199.8,113.2 201.7,124 207.2,123 208.4,122.8 208.4,122.8 207.1,115.7 206.5,112 		"/>
		
			<rect x="202.6" y="123.4" transform="matrix(0.9846 -0.1749 0.1749 0.9846 -19.4063 37.9169)" class="st23" width="5.6" height="11.3"/>
		
			<rect x="208.2" y="122.8" transform="matrix(0.9846 -0.1749 0.1749 0.9846 -19.2509 38.4924)" class="st25" width="1.2" height="11.3"/>
		<polygon class="st24" points="207.2,123 201.7,124 203.7,135.1 209.2,134.1 210.3,133.9 208.4,122.8 		"/>
		<path id="button_3_" class="st27" d="M204.2,138.3c-1.3,0.2-2.2,1.5-2,2.8c0.2,1.3,1.5,2.2,2.8,2c1.3-0.2,2.2-1.5,2-2.8
			C206.8,138.9,205.5,138,204.2,138.3z M203.5,140.2c0-0.2,0.1-0.4,0.3-0.5c0.2,0,0.4,0.1,0.5,0.3s-0.1,0.4-0.3,0.5
			S203.5,140.4,203.5,140.2z M204.2,141.9c-0.2,0-0.4-0.1-0.5-0.3s0.1-0.4,0.3-0.5c0.2,0,0.4,0.1,0.5,0.3
			C204.6,141.6,204.4,141.8,204.2,141.9z M205.8,141.2c0,0.2-0.1,0.4-0.3,0.5c-0.2,0-0.4-0.1-0.5-0.3c0-0.2,0.1-0.4,0.3-0.5
			C205.6,140.8,205.8,140.9,205.8,141.2z M205.6,139.8c0,0.2-0.1,0.4-0.3,0.5c-0.2,0-0.4-0.1-0.5-0.3c0-0.2,0.1-0.4,0.3-0.5
			C205.4,139.5,205.6,139.6,205.6,139.8z"/>
		<g>
			<path class="st28" d="M168.4,104.5l-2.4-0.9l0.6-1.7c0.2-0.6,0.8-0.8,1.4-0.6l0.4,0.1c0.6,0.2,0.8,0.8,0.6,1.4L168.4,104.5z"/>
			<path class="st29" d="M169.2,104.6l-8.3,22.2l-1.9-0.7l0,0l-1.8-0.7l0-0.1l8.2-22.1c0.2-0.6,0.8-0.8,1.4-0.6l1,0.4l0.8,0.3
				C169.1,103.4,169.4,104,169.2,104.6z"/>
			<path class="st30" d="M145.6,157.5c0,0-0.5,1.7,0,4.3c0,0,1.7-1.1,2.7-3.2L145.6,157.5z"/>
			<path class="st31" d="M159.3,131c0.6-1.6,1.3-3.6,1.6-4.3l-3.8-1.4c0,0-3.6,8.4-4,9.7l0,0c-4.7,12.3-7.5,22.5-7.5,22.5l2.7,1
				c0.7-1.3,1.5-3.2,2.4-5.3l-0.3,0.1l-0.4,0.1c0,0-0.2-1.9,0.5-4c0,0,0,0,0,0c0-0.1,0.1-0.2,0.1-0.4c0,0,0,0,0,0c0,0,0,0,0,0
				c0-0.1,0.1-0.2,0.1-0.3c0.5-1.3,1.4-2.6,3-3.5c0,0,0.1,0,0.3-0.1c1.7-4.4,3.4-8.8,4.6-12.3l0,0c0,0,0,0,0,0
				C158.9,132.2,159.1,131.6,159.3,131C159.3,131,159.3,131,159.3,131z"/>
			<path class="st32" d="M167.7,102.9l-8.7,23.2l0,0l-1.8-0.7l8.2-22.1c0.2-0.6,0.8-0.8,1.4-0.6L167.7,102.9z"/>
			<path class="st31" d="M168.6,103.2l-6.3,16.6c-0.2,0.5-0.7,0.7-1.2,0.5l0,0c-0.5-0.2-0.7-0.7-0.5-1.2l6.3-16.6L168.6,103.2z"/>
		</g>
	</g>
</g>
</svg>
