<?xml version="1.0" encoding="utf-8"?>
<!-- Generator: Adobe Illustrator 22.0.1, SVG Export Plug-In . SVG Version: 6.00 Build 0)  -->
<svg version="1.1" id="Слой_3" xmlns="http://www.w3.org/2000/svg" xmlns:xlink="http://www.w3.org/1999/xlink" x="0px" y="0px"
	 viewBox="0 0 101.5 98.8" style="enable-background:new 0 0 101.5 98.8;" xml:space="preserve">
<style type="text/css">
	.st0{fill:#DEDCFB;}
	.st1{fill:#3C3C3C;}
	.st2{fill:url(#SVGID_1_);}
	.st3{fill:url(#SVGID_2_);}
</style>
<path id="Эллипс_2-2" class="st0" d="M15.2,3.5C44.1-14.4,3.5,42.1,46.4,49.9C77.6,55.5,116,73.5,96,89.1
	c-21,16.5-71.2,8.8-80.8,0.8C3,79.7-11.8,20.2,15.2,3.5z"/>
<path id="Фигура_1" class="st1" d="M42.5,72.9c-1.9-3.5-6.3-4.8-9.9-2.9c-1.2,0.7-2.2,1.6-2.9,2.9h-0.1c-3.6,0-6.5,3-6.5,6.6
	c0,3.5,2.9,6.4,6.5,6.5h11.9c3.6-0.1,6.5-3,6.4-6.7C48,76,45.6,73.4,42.5,72.9z M42,84H30c-2.6,0.1-4.8-1.9-5-4.5c0-0.1,0-0.1,0-0.2
	c0-2.6,2-4.6,4.6-4.7c0.2,0,0.3,0,0.5,0l0.7,0.1l0.3-0.6c1.2-2.8,4.5-4,7.2-2.8c1.2,0.5,2.2,1.5,2.7,2.7l0.2,0.5l0.5,0
	c2.5,0.2,4.4,2.2,4.3,4.7C46.3,81.8,44.4,83.8,42,84z"/>
<linearGradient id="SVGID_1_" gradientUnits="userSpaceOnUse" x1="38.6779" y1="84.1477" x2="70.322" y2="5.791">
	<stop  offset="0" style="stop-color:#4A3FD9"/>
	<stop  offset="4.939165e-02" style="stop-color:#4A3FD9"/>
	<stop  offset="0.5683" style="stop-color:#F8FF8F"/>
</linearGradient>
<path class="st2" d="M53.4,70.8l-1.5-0.1c-9.6-0.9-14.2-3.5-14.4-3.6l-0.9-0.5l11.8-28h5.1V70.8z"/>
<linearGradient id="SVGID_2_" gradientUnits="userSpaceOnUse" x1="50.1516" y1="100.7556" x2="78.4282" y2="30.7373">
	<stop  offset="0" style="stop-color:#4A3FD9"/>
	<stop  offset="0.209" style="stop-color:#4A3FD9"/>
	<stop  offset="1" style="stop-color:#F8FF8F"/>
</linearGradient>
<path class="st3" d="M62,70.8V38.4h4.6l10.7,28L76.4,67c-0.2,0.1-4.3,2.7-13,3.6L62,70.8z"/>
<path class="st1" d="M64.2,26.6c0-3.6-2.9-6.5-6.5-6.5s-6.5,2.9-6.5,6.5s2.9,6.5,6.5,6.5C61.3,33,64.2,30.1,64.2,26.6z M57.7,30.9
	c-2.4,0-4.3-1.9-4.3-4.3s1.9-4.3,4.3-4.3c2.4,0,4.3,1.9,4.3,4.3S60.1,30.9,57.7,30.9z"/>
<path class="st1" d="M84.7,34.2c-1.5-2.7-4.4-4.4-7.5-4.4c-1.1,0-2.2,0.2-3.2,0.7v-3.4c0-2.1-1.7-3.8-3.8-3.8
	c-2.1,0-3.8,1.7-3.8,3.8V33h-8.6h-8.6v-5.9c0-2.1-1.7-3.8-3.8-3.8s-3.8,1.7-3.8,3.8v9.7c0,2.1,1.7,3.8,3.8,3.8h5.9v27.5
	c0,2.1,1.7,3.8,3.8,3.8c1.1,0,2-0.4,2.7-1.1c0.7,0.7,1.6,1.1,2.7,1.1c2.1,0,3.8-1.7,3.8-3.8V40.6h5.9c2.1,0,3.8-1.7,3.8-3.8v-4
	c1-0.6,2.1-0.9,3.2-0.9c2.5,0,4.8,1.5,5.9,3.7l0.3,0.6l0.6,0c2.9,0.2,5.1,2.5,5.1,5.4c0,3-2.4,5.4-5.4,5.4H69.9l0.8,2.2h12.9
	c4.2,0,7.6-3.4,7.6-7.6C91.2,37.9,88.4,34.7,84.7,34.2z M70.1,25.5c0.9,0,1.6,0.7,1.6,1.6v1.6h-3.2v-1.6
	C68.5,26.2,69.2,25.5,70.1,25.5z M45.3,25.5c0.9,0,1.6,0.7,1.6,1.6v1.6h-3.2v-1.6C43.7,26.2,44.4,25.5,45.3,25.5z M62,50.8l-4.3,2.6
	l-4.3-2.6v-1.5H62V50.8z M55,69.8c-0.9,0-1.6-0.7-1.6-1.6V53.3l3.2,1.9v12.9C56.6,69,55.9,69.8,55,69.8z M60.4,69.8
	c-0.9,0-1.6-0.7-1.6-1.6V55.2l3.2-1.9v14.8C62,69,61.3,69.8,60.4,69.8z M70.1,38.4H62v8.6h-8.6v-8.6h-8.1c-0.9,0-1.6-0.7-1.6-1.6
	v-5.9h3.2v4.3h5.4c0,0.6,0.5,1.1,1.1,1.1c0.5,0,0.9-0.3,1-0.7l6.6,0c0.2,0.4,0.5,0.7,1,0.7c0.6,0,1.1-0.5,1.1-1.1h5.4v-4.3h3.2v5.9
	C71.7,37.7,71,38.4,70.1,38.4z"/>
</svg>
