<?xml version="1.0" encoding="utf-8"?>
<!-- Generator: Adobe Illustrator 22.0.1, SVG Export Plug-In . SVG Version: 6.00 Build 0)  -->
<svg version="1.1" id="Слой_2" xmlns="http://www.w3.org/2000/svg" xmlns:xlink="http://www.w3.org/1999/xlink" x="0px" y="0px"
	 viewBox="0 0 132.1 118.5" style="enable-background:new 0 0 132.1 118.5;" xml:space="preserve">
<style type="text/css">
	.st0{fill:#DEDCFB;}
	.st1{fill:url(#SVGID_1_);}
	.st2{fill:url(#SVGID_2_);}
	.st3{fill:none;stroke:#3C3C3C;stroke-width:3;stroke-linecap:round;stroke-linejoin:round;stroke-miterlimit:10;}
</style>
<path id="Эллипс_2-3" class="st0" d="M23.7,4c32.1-16.4-2.4,20.3,42,52c35,25,76.8,8.7,64,41c-10,25.2-78.6,26.5-105,13
	C-4.1,95.3-11.7,22.1,23.7,4z"/>
<linearGradient id="SVGID_1_" gradientUnits="userSpaceOnUse" x1="41.3752" y1="48.9005" x2="97.8752" y2="-9.950468e-02">
	<stop  offset="0" style="stop-color:#4A3FD9"/>
	<stop  offset="4.241063e-02" style="stop-color:#4A3FD9"/>
	<stop  offset="4.939165e-02" style="stop-color:#4A3FD9"/>
	<stop  offset="0.5683" style="stop-color:#F8FF8F"/>
</linearGradient>
<circle class="st1" cx="57.1" cy="35.2" r="10.2"/>
<linearGradient id="SVGID_2_" gradientUnits="userSpaceOnUse" x1="49.994" y1="47.6905" x2="106.494" y2="-1.3095">
	<stop  offset="0" style="stop-color:#4A3FD9"/>
	<stop  offset="4.939165e-02" style="stop-color:#4A3FD9"/>
	<stop  offset="0.5683" style="stop-color:#F8FF8F"/>
	<stop  offset="0.8784" style="stop-color:#F8FF8F"/>
</linearGradient>
<circle class="st2" cx="77.7" cy="23.7" r="10.2"/>
<path class="st3" d="M99.1,74.9v13.5c0,2.1-1.7,3.7-3.7,3.7H36.2c-2.1,0-3.7-1.7-3.7-3.7V45.1c0-2.1,1.7-3.7,3.7-3.7h59.1
	c2.1,0,3.7,1.7,3.7,3.7V58"/>
<path class="st3" d="M101.3,74.9H77.2c-1.7,0-3.1-1.4-3.1-3.1V61.7c0-1.7,1.4-3.1,3.1-3.1h24.1c1.7,0,3.1,1.4,3.1,3.1v10.2
	C104.4,73.6,103,74.9,101.3,74.9z"/>
<circle class="st3" cx="82.2" cy="66.8" r="3.6"/>
</svg>
