<svg xmlns="http://www.w3.org/2000/svg" xmlns:xlink="http://www.w3.org/1999/xlink" width="161" height="118" viewBox="0 0 161 118"><defs><path id="cupza" d="M388.46 3739a38.6 38.6 0 0 1-38.54-38.54l-.15-5.06v-.1c0-19.84 7.71-38.5 21.73-52.54a73.67 73.67 0 0 1 52.47-21.76 2.87 2.87 0 0 1 2.87 2.87v20.41a2.87 2.87 0 0 1-2.87 2.87 47.74 47.74 0 0 0-34.57 14.68 38.61 38.61 0 0 1 37.6 38.58 38.6 38.6 0 0 1-38.54 38.59zm-32.96-43.74l.15 5.06v.09a32.86 32.86 0 0 0 32.81 32.85 32.86 32.86 0 0 0 32.8-32.85 32.86 32.86 0 0 0-37.94-32.45 2.86 2.86 0 0 1-2.76-4.53c1.62-2.2 3.42-4.3 5.35-6.23a53.4 53.4 0 0 1 35.2-15.72v-14.68c-36.42 1.5-65.6 31.64-65.61 68.46zM304.7 3739a38.6 38.6 0 0 1-38.54-38.54l-.16-5.06v-.1c0-19.84 7.72-38.5 21.74-52.54A73.67 73.67 0 0 1 340.2 3621a2.87 2.87 0 0 1 2.87 2.87v20.41a2.87 2.87 0 0 1-2.87 2.87 47.75 47.75 0 0 0-34.57 14.68 38.61 38.61 0 0 1 37.6 38.58A38.6 38.6 0 0 1 304.7 3739zm-32.97-43.74l.16 5.06v.09a32.86 32.86 0 0 0 32.8 32.85 32.86 32.86 0 0 0 32.81-32.85 32.86 32.86 0 0 0-37.95-32.45 2.86 2.86 0 0 1-2.75-4.53 54.8 54.8 0 0 1 5.35-6.23 53.4 53.4 0 0 1 35.2-15.72v-14.68c-36.43 1.5-65.6 31.64-65.62 68.46z"/><linearGradient id="cupzb" x1="357" x2="336" y1="3621" y2="3739" gradientUnits="userSpaceOnUse"><stop offset="0" stop-color="#645aea"/><stop offset="1" stop-color="#f9fdb8"/></linearGradient></defs><g><g transform="translate(-266 -3621)"><use fill="url(#cupzb)" xlink:href="#cupza"/></g></g></svg>