<svg xmlns="http://www.w3.org/2000/svg" xmlns:xlink="http://www.w3.org/1999/xlink" width="161" height="118" viewBox="0 0 161 118"><defs><path id="7kuya" d="M976.54 3915a38.6 38.6 0 0 1 38.54 38.54l.15 5.06v.1c0 19.84-7.71 38.5-21.73 52.53a73.67 73.67 0 0 1-52.47 21.77 2.87 2.87 0 0 1-2.87-2.87v-20.41a2.87 2.87 0 0 1 2.87-2.87 47.75 47.75 0 0 0 34.57-14.68 38.61 38.61 0 0 1-37.6-38.58 38.6 38.6 0 0 1 38.54-38.6zm32.96 43.74l-.16-5.06v-.1a32.86 32.86 0 0 0-32.8-32.84 32.86 32.86 0 0 0-32.8 32.85 32.86 32.86 0 0 0 37.94 32.44 2.86 2.86 0 0 1 2.76 4.54 54.76 54.76 0 0 1-5.35 6.23 53.4 53.4 0 0 1-35.2 15.71v14.69c36.42-1.51 65.6-31.64 65.61-68.46zm50.8-43.74a38.6 38.6 0 0 1 38.54 38.54l.16 5.06v.1c0 19.84-7.72 38.5-21.74 52.53a73.67 73.67 0 0 1-52.47 21.77 2.87 2.87 0 0 1-2.87-2.87v-20.41a2.87 2.87 0 0 1 2.87-2.87 47.75 47.75 0 0 0 34.57-14.68 38.61 38.61 0 0 1-37.6-38.58 38.6 38.6 0 0 1 38.54-38.6zm32.97 43.74l-.16-5.06v-.1a32.86 32.86 0 0 0-32.8-32.84 32.86 32.86 0 0 0-32.81 32.85 32.86 32.86 0 0 0 37.95 32.44 2.86 2.86 0 0 1 2.75 4.54 54.77 54.77 0 0 1-5.35 6.23 53.4 53.4 0 0 1-35.2 15.71v14.69c36.43-1.51 65.6-31.64 65.62-68.46z"/><linearGradient id="7kuyb" x1="1029" x2="1008" y1="3915" y2="4033" gradientUnits="userSpaceOnUse"><stop offset="0" stop-color="#645aea"/><stop offset="1" stop-color="#f9fdb8"/></linearGradient></defs><g><g transform="translate(-938 -3915)"><use fill="url(#7kuyb)" xlink:href="#7kuya"/></g></g></svg>