<svg xmlns="http://www.w3.org/2000/svg" xmlns:xlink="http://www.w3.org/1999/xlink" width="334" height="291" viewBox="0 0 334 291"><defs><path id="6lvwa" d="M303.79 2002.56c53.82 67.54 156.2 60.03 156.2 134.1 0 74.05-73.35 116.54-151.5 129.81-30.32 5.15-64.12-3.34-88.29-16.51-43.65-23.78-48.52-77.47-81.45-111.88-30.1-31.45 1.22-127.66 52.97-149.5 20.77-8.77 79.67-26.68 112.07 13.98z"/><path id="6lvwc" d="M301.93 2023.9C346.06 2079.14 430 2073 430 2133.58c0 60.57-60.14 95.32-124.22 106.17-24.85 4.2-52.56-2.74-72.37-13.5-35.79-19.45-39.78-63.37-66.78-91.5-24.67-25.73 1-104.41 43.43-122.28 17.03-7.18 65.31-21.82 91.87 11.43z"/><clipPath id="6lvwb"><use fill="#fff" xlink:href="#6lvwa"/></clipPath></defs><g><g transform="translate(-126 -1977)"><use fill="#fff" fill-opacity="0" stroke="#fff" stroke-miterlimit="50" stroke-width="2" clip-path="url(&quot;#6lvwb&quot;)" xlink:href="#6lvwa"/></g><g transform="translate(-126 -1977)"><use fill="#fff" xlink:href="#6lvwc"/></g></g></svg>