<svg xmlns="http://www.w3.org/2000/svg" xmlns:xlink="http://www.w3.org/1999/xlink" width="2238" height="2564" viewBox="0 0 2238 2564"><defs><path id="saxra" d="M1742.1 4130c-331.97 348.7-212.78 908.92-621.58 965.07-306.9 42.15-552.78-99-679.18-385.92-41.97-95.27 44.89-290.38-67.2-452.7-213.48-309.18 71.05-272.5 64.89-560.05-7.22-336.8-6.3-175.5 243.97-249.18 48.25-14.2 151.73-98.62 210.47-111.93 270.06-61.2 680.82-104.77 840.7 164.68 64.19 108.16 207.76 420.13 7.93 630.02z"/><path id="saxrb" d="M1863.52 4117.08c-395.08 414.95-253.25 1081.6-739.75 1148.4-365.24 50.17-657.84-117.77-808.27-459.2-49.94-113.37-94.04-303.88-155.83-448.79-175.36-411.22 103.36-365.04 153.1-756.34 50.56-397.7-7.5-208.84 290.35-296.52 57.42-16.9 180.57-117.35 250.47-133.2 321.4-72.82 810.23-124.68 1000.5 195.96 76.38 128.7 247.24 499.93 9.43 749.7z"/><path id="saxrc" d="M2009.84 4093.96c-469.37 492.96-300.86 1284.91-878.84 1364.3-433.9 59.58-781.52-139.93-960.23-545.55-59.33-134.67-111.73-361-185.14-533.14-208.32-488.53 122.8-433.67 181.9-898.53 60.06-472.46-8.92-248.1 344.93-352.26 68.22-20.08 214.52-139.42 297.57-158.24 381.82-86.51 962.56-148.12 1188.62 232.8 90.73 152.89 293.7 593.9 11.19 890.62z"/><path id="saxrd" d="M1404.22 4151.78c-160.63 168.71-102.96 439.76-300.76 466.93-197.8 27.17-338.24-153.41-402.39-357.56-24.87-79.17-14.62-172.68 11.67-242.14 47.47-125.47 189.08-158.2 268.88-258.88 72.94-92.02 341.4-43.54 418.77 86.82 31.05 52.33 100.51 203.28 3.83 304.83z"/><path id="saxre" d="M1235.42 4195.3c-260.1 153.6-21.27 232.66-144.5 255.92-194.82 36.76-210-75.14-234.61-175.52-12.42-50.64-27.34-157.66-10.83-201.3 29.83-78.85 118.78-99.4 168.9-162.67 45.82-57.83 272.56-73.42 263.05 54.55-6.62 88.96 33.84 184.22-42.01 229.02z"/><path id="saxrf" d="M1500.07 4146.95c-208.29 218.78-133.5 570.29-390 605.51-256.48 35.23-509.83-244.88-539.64-607.03-8.83-107.25-125.1-191.77 56.42-270.53 476.13-206.59 78.4-100.97 82.37-172.12 8.48-151.94 658.35-161.01 785.87 48.87 40.98 67.44 130.35 263.6 4.98 395.3z"/><path id="saxrg" d="M1650.66 4139.62c-282.9 297.18-181.31 774.64-529.67 822.48-348.36 47.85-529.07-353.28-636.03-714.72-75.34-254.58-9.06-325.96 37.23-448.31 83.6-221 172.26-283.94 405.3-336.75 230.12-52.15 580.15-89.28 716.4 140.36 54.7 92.18 177.04 358.07 6.77 536.94z"/><clipPath id="saxrh"><use fill="#fff" xlink:href="#saxra"/></clipPath><clipPath id="saxri"><use fill="#fff" xlink:href="#saxrb"/></clipPath><clipPath id="saxrj"><use fill="#fff" xlink:href="#saxrc"/></clipPath><clipPath id="saxrk"><use fill="#fff" xlink:href="#saxrd"/></clipPath><clipPath id="saxrl"><use fill="#fff" xlink:href="#saxre"/></clipPath><clipPath id="saxrm"><use fill="#fff" xlink:href="#saxrf"/></clipPath></defs><g><g transform="translate(83 -2905)"><use fill="#e5e3fd" xlink:href="#saxrg"/></g><g opacity=".08" transform="translate(83 -2905)"><use fill="#fff" fill-opacity="0" stroke="#8781bd" stroke-miterlimit="50" stroke-width="8" clip-path="url(&quot;#saxrh&quot;)" xlink:href="#saxra"/></g><g opacity=".08" transform="translate(83 -2905)"><use fill="#fff" fill-opacity="0" stroke="#8781bd" stroke-miterlimit="50" stroke-width="8" clip-path="url(&quot;#saxri&quot;)" xlink:href="#saxrb"/></g><g opacity=".08" transform="translate(83 -2905)"><use fill="#fff" fill-opacity="0" stroke="#8781bd" stroke-miterlimit="50" stroke-width="8" clip-path="url(&quot;#saxrj&quot;)" xlink:href="#saxrc"/></g><g opacity=".4" transform="translate(83 -2905)"><use fill="#fff" fill-opacity="0" stroke="#fff" stroke-miterlimit="50" stroke-width="8" clip-path="url(&quot;#saxrk&quot;)" xlink:href="#saxrd"/></g><g opacity=".4" transform="translate(83 -2905)"><use fill="#fff" fill-opacity="0" stroke="#fff" stroke-miterlimit="50" stroke-width="8" clip-path="url(&quot;#saxrl&quot;)" xlink:href="#saxre"/></g><g opacity=".4" transform="translate(83 -2905)"><use fill="#fff" fill-opacity="0" stroke="#fff" stroke-miterlimit="50" stroke-width="8" clip-path="url(&quot;#saxrm&quot;)" xlink:href="#saxrf"/></g></g></svg>