<svg xmlns="http://www.w3.org/2000/svg" xmlns:xlink="http://www.w3.org/1999/xlink" width="3569" height="3200" viewBox="0 0 3569 3200"><defs><path id="gdmua" d="M1421.43-620.39c481.23 491.12 1286.97 348.98 1346.7 935.13 44.84 440.03-168.93 783.85-584.87 949.9-138.1 55.14-368.52 100.03-544.96 168.05-500.71 193.02-581.64-91.25-900.97-215.28-448.59-174.24-250.86.24-343.54-360.57-17.87-69.56-133.22-221.43-149.29-305.91-73.87-388.42-115.55-976.72 277.11-1191.44 157.62-86.18 610.16-275.48 899.82 20.12z"/><path id="gdmub" d="M1377.03-989.08C2043.06-309.32 3158.2-506.05 3240.88 305.23c62.06 609.06-233.8 1084.94-809.47 1314.78-191.14 76.3-497.81 180.21-754.23 232.6C214.96 2151.26 1295.13 1895.22 801 1713c-690.94-342.73 138.2 767.47-846.25-657.43-56.5-81.79-184.37-306.48-206.61-423.42C-354.1 94.54-411.8-719.74 131.66-1016.93c218.14-119.29 844.47-381.3 1245.37 27.85z"/><path id="gdmuc" d="M624.99 1792.6c40.33-10.86 154.01 35.34 154.01 71.57 0 36.24-41.65 79.83-83.42 79.83s-30.97-21.83-43.09-55.97c-12.37-34.86-99-76.16-27.5-95.42z"/><path id="gdmud" d="M1512.42-443.76C1860.51-7.66 2522.66-56.14 2522.66 422.01c0 358.96-200.86 618.96-550.3 718.81-116.02 33.16-309.33 123.78-457.36 164.18-420.1 114.66-360.97-185.16-732-285-377.1-101.47-176.55-56.69-221.7-355.62-8.7-57.63-89.32-189.73-95.34-259.26-27.68-319.68-12.94-798.08 321.71-939.14 134.33-56.62 515.23-172.23 724.75 90.26z"/><path id="gdmue" d="M1505.96-235.44c249.3 312.26 723.54 277.55 723.54 619.92 0 342.38-411.06 463.53-774.05 518.81-255.67 38.94-315.76-34.45-427.71-95.32-202.2-109.93-251.19-203.79-271.27-435.58-19.82-228.9-9.27-571.46 230.42-672.46 96.2-40.54 369.01-123.32 519.07 64.63z"/><path id="gdmuf" d="M1491.62-71.27c175.73 220.03 510.03 195.57 510.03 436.81 0 241.25-290.99 439.6-629.41 421.2-100.23-5.45-193.09 91.16-242.82-86.4-130.48-465.74-83.36-85.18-148.6-97.86-139.33-27.1-65.23-628.19 144.9-719.3 67.51-29.26 260.12-86.89 365.9 45.55z"/><path id="gdmug" d="M1480.75 56.15c118.15 147.85 342.9 131.41 342.9 293.52 0 162.1-161.01 255.11-332.59 284.15-66.54 11.26-140.74-7.32-193.8-36.14-95.82-52.05-106.52-169.57-178.8-244.89-66.07-68.84 2.68-279.42 116.28-327.25 45.6-19.2 174.89-58.39 246 30.6z"/><path id="gdmuh" d="M1508.79-324.93C1801.3 41.52 2357.76.78 2357.76 402.56c0 301.63-168.8 520.1-462.45 604.01-97.5 27.86-274.29-81.78-445.79 4.82-326.67 164.96-253.56-104.64-531.88-136.8-326-37.68-170.2-17.18-208.14-268.36-7.31-48.43-75.07-159.43-80.13-217.86-23.26-268.62-10.87-670.61 270.36-789.14 112.88-47.58 432.99-144.72 609.06 75.84z"/><path id="gdmui" d="M1438.25 178.31c64 80.08 185.76 71.18 185.76 158.98 0 87.8-87.23 138.18-180.18 153.9-36.04 6.1-76.24-3.96-104.98-19.57-51.91-28.19-57.7-91.84-96.87-132.64-35.79-37.28 1.46-151.34 63-177.24 24.7-10.4 94.74-31.63 133.27 16.57z"/><clipPath id="gdmuj"><use fill="#fff" xlink:href="#gdmua"/></clipPath><clipPath id="gdmuk"><use fill="#fff" xlink:href="#gdmub"/></clipPath><clipPath id="gdmul"><use fill="#fff" xlink:href="#gdmuc"/></clipPath><clipPath id="gdmum"><use fill="#fff" xlink:href="#gdmud"/></clipPath><clipPath id="gdmun"><use fill="#fff" xlink:href="#gdmue"/></clipPath><clipPath id="gdmuo"><use fill="#fff" xlink:href="#gdmuf"/></clipPath><clipPath id="gdmup"><use fill="#fff" xlink:href="#gdmug"/></clipPath><clipPath id="gdmuq"><use fill="#fff" xlink:href="#gdmuh"/></clipPath><clipPath id="gdmur"><use fill="#fff" xlink:href="#gdmui"/></clipPath></defs><g><g opacity=".96" transform="translate(320 1210)"><use fill="#fff" fill-opacity="0" stroke="#f6f5fa" stroke-miterlimit="50" stroke-width="8" clip-path="url(&quot;#gdmuj&quot;)" xlink:href="#gdmua"/></g><g opacity=".96" transform="translate(320 1210)"><use fill="#fff" fill-opacity="0" stroke="#f6f5fa" stroke-miterlimit="50" stroke-width="8" clip-path="url(&quot;#gdmuk&quot;)" xlink:href="#gdmub"/></g><g transform="translate(320 1210)"><use fill="#fff" fill-opacity="0" stroke="#f6f5fa" stroke-miterlimit="50" stroke-width="8" clip-path="url(&quot;#gdmul&quot;)" xlink:href="#gdmuc"/></g><g opacity=".96" transform="translate(320 1210)"><use fill="#fff" fill-opacity="0" stroke="#f6f5fa" stroke-miterlimit="50" stroke-width="8" clip-path="url(&quot;#gdmum&quot;)" xlink:href="#gdmud"/></g><g opacity=".96" transform="translate(320 1210)"><use fill="#fff" fill-opacity="0" stroke="#f6f5fa" stroke-miterlimit="50" stroke-width="8" clip-path="url(&quot;#gdmun&quot;)" xlink:href="#gdmue"/></g><g opacity=".96" transform="translate(320 1210)"><use fill="#fff" fill-opacity="0" stroke="#f6f5fa" stroke-miterlimit="50" stroke-width="8" clip-path="url(&quot;#gdmuo&quot;)" xlink:href="#gdmuf"/></g><g opacity=".96" transform="translate(320 1210)"><use fill="#fff" fill-opacity="0" stroke="#f6f5fa" stroke-miterlimit="50" stroke-width="8" clip-path="url(&quot;#gdmup&quot;)" xlink:href="#gdmug"/></g><g opacity=".96" transform="translate(320 1210)"><use fill="#fff" fill-opacity="0" stroke="#f6f5fa" stroke-miterlimit="50" stroke-width="8" clip-path="url(&quot;#gdmuq&quot;)" xlink:href="#gdmuh"/></g><g transform="translate(320 1210)"><use fill="#fff" fill-opacity="0" stroke="#f6f5fa" stroke-miterlimit="50" stroke-width="8" clip-path="url(&quot;#gdmur&quot;)" xlink:href="#gdmui"/></g></g></svg>